<svg width="133" height="104" viewBox="0 0 133 104" fill="none" xmlns="http://www.w3.org/2000/svg">
<g clip-path="url(#clip0_308_8498)">
<g filter="url(#filter0_d_308_8498)">
<path d="M33.9324 83.8588C31.5579 82.8673 9.91578 58.4966 8.64149 53.0609C7.3672 47.6321 3.37023 21.542 4.63756 18.2833C5.91186 15.0246 23.557 7.41183 29.3783 6.87103C35.1997 6.33023 48.4788 1.98303 50.1222 1.4353C51.7586 0.894498 55.2193 1.61557 57.2178 2.34357C59.2163 3.07157 60.8597 1.80277 63.0392 2.88437C65.2257 3.9729 69.5917 3.61237 71.9523 5.2417C74.3198 6.87103 96.1499 14.4838 98.3364 15.7457C100.523 17.0145 108.886 22.4502 111.434 26.6172C113.983 30.7841 107.068 76.6134 105.975 78.43C104.882 80.2396 39.5657 86.223 33.9254 83.8657L33.9324 83.8588Z" fill="#A16B47"/>
</g>
<path d="M4.45654 21.847C4.45654 21.847 4.94398 23.5387 9.06628 23.296C13.1886 23.0534 11.4895 26.0763 11.8586 30.2987C12.2207 34.528 20.716 35.2491 21.8022 36.5803C22.8955 37.9115 24.9566 42.8619 26.6557 42.4944C28.3548 42.1339 24.2325 29.6955 24.2325 29.6955L13.3139 17.4998L4.45654 21.847Z" fill="white"/>
<path d="M33.9324 83.8588C33.9324 83.8588 30.2906 81.8689 29.7474 74.9841C29.2043 68.0993 28.8352 51.4316 27.3799 48.7137C25.9246 45.9958 28.1946 37.9185 31.5649 33.8556C35.0187 29.6886 39.3917 22.263 50.4843 17.1878C61.5839 12.1126 66.312 12.6604 67.4052 14.47C68.4985 16.2796 76.8684 18.6369 79.5981 17.0076C82.3277 15.3782 82.3277 12.8406 87.6059 14.1094C92.8841 15.3782 98.1554 16.2865 103.072 20.086C107.981 23.8924 111.26 28.0593 111.441 30.7772C111.623 33.495 111.079 75.7052 108.169 77.1542C105.258 78.6033 50.6793 87.1174 33.9394 83.8588H33.9324Z" fill="#8D4A20"/>
<path d="M34.4755 40.3867C34.4755 40.3867 36.293 30.4235 45.5751 24.9878C54.8573 19.5521 58.3111 15.2049 63.7703 18.2833C69.2296 21.3617 76.5063 25.8891 83.783 21.0011C91.0597 16.1131 101.978 21.3617 106.525 27.5254C111.072 33.6891 108.343 77.1611 105.982 78.4299C103.615 79.6987 37.5742 84.5867 36.8431 80.9675C36.1119 77.3414 30.6596 48.1798 34.4755 40.3867Z" fill="#C9B071"/>
<path d="M26.1683 42.1338C26.1683 42.1338 29.3227 44.0682 31.0217 40.3242C32.7208 36.5802 34.4199 39.4783 35.2694 36.0948C36.1189 32.7114 34.0578 30.2986 40.2412 25.7087C46.4247 21.1188 56.3753 15.3226 59.4044 15.2047C62.4334 15.0868 72.6278 19.1914 77.9617 19.1914C83.2956 19.1914 90.2102 16.5359 94.5762 17.1391C98.9423 17.7423 104.52 24.3844 106.706 26.194C108.893 28.0036 110.829 31.7476 110.829 31.7476L112.646 30.7839L107.674 23.4138L101.609 18.1028L93.483 13.9983L84.0198 14.1162L53.2139 11.4607L28.3478 30.9018L26.1613 42.1338H26.1683Z" fill="#5D2F00"/>
<path d="M57.2179 2.34353C55.2194 -0.194067 51.9396 -0.5546 48.6669 0.7142C45.3941 1.983 43.0266 4.5206 31.7459 5.6022C20.4653 6.69073 19.0099 10.3099 13.5507 12.1265C8.09838 13.9361 2.82016 17.9227 3.55131 20.4534C4.28246 22.991 6.0999 22.263 10.4659 22.0827C14.8319 21.9025 12.1023 25.1611 12.8335 29.1478C13.5646 33.1345 18.4738 34.4033 21.3845 34.9441C24.2951 35.4849 23.9261 42.9382 27.3869 42.2518C31.9339 41.3435 29.6917 35.8523 30.785 35.4918C31.8782 35.1313 30.6039 37.7867 33.3336 37.0587C36.0632 36.3377 32.2403 32.6006 36.669 27.6987C40.9724 22.9286 45.8885 20.0305 54.0774 15.6833C61.1034 11.9531 65.7619 15.7387 67.1685 15.7387C67.0989 15.7041 67.0501 15.6833 67.0501 15.6833L57.2248 2.3366L57.2179 2.34353Z" fill="white"/>
<path d="M97.4312 14.1164C90.5166 11.5788 92.3967 12.7852 88.7619 11.7036C85.12 10.6151 75.058 3.79267 71.0541 3.79267C67.0501 3.79267 65.5948 3.06467 63.5963 1.6156C61.5978 0.166536 57.2318 2.33667 57.2318 2.33667L67.0571 15.6833C67.0571 15.6833 67.0989 15.7041 67.1755 15.7388C68.3941 16.2935 78.4631 19.5521 84.8902 17.3751C91.582 15.1148 94.3534 15.8636 97.6262 17.1324C100.899 18.4012 107.27 24.0796 109.45 27.158C111.636 30.2364 113.517 28.9676 113.517 28.9676C113.517 28.9676 104.36 16.6471 97.4452 14.1164H97.4312Z" fill="white"/>
<path d="M90.9413 17.7979C88.9359 17.8742 85.8442 21.6043 86.9374 24.135C88.0306 26.6726 96.9437 27.3937 97.6749 24.4955C98.406 21.5974 98.8238 17.4929 90.9413 17.791V17.7979Z" fill="#443541"/>
<path d="M47.7616 30.7839C47.7616 30.7839 48.8549 25.5285 44.3078 27.7055C39.7607 29.8826 38.6675 33.8623 41.3971 34.9509C44.1267 36.0394 47.7616 30.7839 47.7616 30.7839Z" fill="#443541"/>
<path d="M54.1261 22.0896C52.0928 24.1142 50.4843 30.4235 54.6693 31.6923C58.8542 32.9611 61.7649 25.3552 60.4906 23.1782C59.2163 21.0011 57.5799 18.6507 54.1261 22.0896Z" fill="#443541"/>
<g filter="url(#filter1_d_308_8498)">
<path d="M31.2028 48.3531C31.2028 52.7003 33.3892 60.4934 33.9324 65.7419C34.4755 70.9974 33.9324 80.6 35.0256 84.5798C36.1189 88.5664 40.3039 96.4358 43.0335 97.7046C45.7631 98.9734 54.1331 101.247 70.5039 98.7099C86.8817 96.1723 97.4521 98.8347 105.641 96.2971C113.83 93.7595 121.086 99.2507 124.902 92.3728C128.724 85.488 128.724 51.792 129.999 48.1728C131.273 44.5536 125.814 32.9542 105.439 31.6854C85.0643 30.4166 91.9789 32.5936 86.8817 32.2262C81.7845 31.8656 84.3331 29.1478 77.0564 30.0491C69.7797 30.9574 54.1331 33.488 44.8509 39.2912C35.5688 45.0875 36.481 49.2544 34.3014 49.615C32.115 49.9755 31.2097 48.3462 31.2097 48.3462L31.2028 48.3531Z" fill="#A16B47"/>
</g>
<path d="M40.666 92.7333C40.666 92.7333 40.847 78.9637 39.2106 70.817C37.5743 62.6634 32.6581 52.1594 37.5743 45.2746C42.4834 38.3898 58.4991 31.6853 71.5972 30.6037C84.6952 29.5152 81.2414 31.512 86.3316 31.512C91.4218 31.512 88.8802 28.7941 95.2447 29.5221C101.609 30.2501 112.89 31.8794 120.536 35.6789C128.174 39.4853 130.542 43.1045 130.542 46.5504C130.542 49.9962 129.63 51.4384 129.268 54.5237C128.906 57.6021 127.45 86.4032 126.9 89.4885C126.357 92.5669 124.352 94.5637 120.898 95.6453C117.444 96.7338 94.5136 98.0026 85.0573 98.3632C75.5942 98.7237 60.4976 104.159 50.3102 100.901C40.1228 97.6421 41.7592 96.193 40.666 92.7472V92.7333Z" fill="#9D4618"/>
<path d="M44.7117 90.1472C44.7117 90.1472 44.8788 77.6949 43.3956 70.3248C41.9124 62.9547 37.4698 53.4491 41.9124 47.2229C46.355 40.9968 60.8318 34.9371 72.6835 33.9525C84.5281 32.968 81.4016 34.7707 86.0113 34.7707C90.621 34.7707 88.3162 32.3163 94.0749 32.968C99.8336 33.6267 110.035 35.0965 116.943 38.5355C123.85 41.9744 125.995 45.2539 125.995 48.3669C125.995 51.48 125.173 52.7904 124.846 55.5776C124.519 58.3648 123.203 84.4133 122.708 87.1936C122.214 89.9808 120.403 91.7835 117.277 92.7611C114.15 93.7456 93.4203 94.8896 84.8624 95.2155C76.3044 95.5413 62.6493 100.457 53.4368 97.5104C44.2242 94.5637 45.7005 93.2533 44.7186 90.1403L44.7117 90.1472Z" fill="#DFBC8F"/>
<path d="M56.229 43.0906C54.2236 46.8208 59.2372 52.2149 63.8539 52.8389C68.4706 53.4629 70.678 47.2368 67.064 43.9226C63.45 40.6016 58.2345 39.3605 56.229 43.0906Z" fill="#A16B47"/>
<path d="M76.8685 18.2833C72.7392 17.5206 55.5815 23.3585 47.5736 27.8859C39.5658 32.4134 28.5915 43.4651 31.5022 47.4518C34.4129 51.4385 36.8362 46.7307 39.3847 42.7441C41.9333 38.7574 51.5776 35.1382 56.4867 33.6891C61.3959 32.2401 78.3168 28.0731 80.3223 28.9814C82.3208 29.8897 84.751 31.8795 87.1115 31.3387C89.4791 30.7979 90.9901 27.5947 99.2417 29.7718C106.825 31.7686 114.331 32.2747 119.86 34.9649C125.438 37.6827 131.628 42.2102 130.354 47.2854C129.08 52.3606 136.175 46.1969 129.992 38.7713C123.808 31.3457 114.345 25.7297 105.063 23.3723C95.7809 21.015 100.516 18.1169 94.6946 18.2971C88.8733 18.4774 89.7855 23.0049 84.6883 22.4641C79.5911 21.9233 81.7776 19.2054 76.8615 18.2971L76.8685 18.2833Z" fill="white"/>
<path d="M130.723 46.9664C131.997 41.8912 125.445 37.6689 119.867 34.951C114.338 32.2609 106.832 31.7547 99.2487 29.7579C91.0041 27.5809 89.4861 30.7841 87.1185 31.3249C84.751 31.8657 82.3277 29.8758 80.3293 28.9675C78.3308 28.0593 61.4098 32.2262 56.4937 33.6753C51.5845 35.1243 40.9654 39.4715 38.4238 43.4582C35.8752 47.4449 34.6636 50.2182 31.8713 47.9233C30.8129 47.0497 31.168 45.2401 31.349 44.3041C30.604 45.9265 30.4647 47.3409 31.2028 48.3462C34.1135 52.3329 36.3 48.3462 38.8416 44.3595C41.3902 40.3729 51.0344 36.7537 55.9436 35.3046C60.8528 33.8555 77.7737 29.6886 79.7791 30.5969C81.7776 31.5051 84.2078 33.495 86.5684 32.9542C88.936 32.4134 90.447 29.2102 98.6986 31.3873C106.282 33.3841 113.788 33.8902 119.317 36.5803C124.895 39.2982 131.085 43.8257 129.811 48.9009C129.038 51.9862 131.35 50.9115 131.9 47.9302C131.05 49.5456 130.11 49.3862 130.723 46.9664Z" fill="#5D2F00"/>
<path d="M56.9184 44.5466C55.101 47.8053 59.648 52.5199 63.833 53.0607C68.018 53.6015 70.0165 48.1727 66.7437 45.2677C63.4709 42.3695 58.7358 41.281 56.9184 44.5466Z" fill="#342530"/>
<path d="M80.9211 68.7232C79.6537 66.4976 86.8956 59.5851 90.252 59.7376C93.6083 59.8901 96.0107 61.5333 95.8644 64.6949C95.7182 67.8496 92.9955 70.2069 89.8481 71.1013C86.7007 71.9957 82.3486 71.2261 80.9211 68.7232Z" fill="#A16B47"/>
<path d="M69.5917 65.0209C66.3398 64.6188 63.9514 72.2662 66.3189 74.9841C68.6865 77.702 70.866 78.6102 72.5024 74.9841C74.1388 71.358 72.5024 65.3814 69.5917 65.0209Z" fill="#342530"/>
<path d="M123.725 51.0362C119.589 50.5647 118.071 52.0623 116.49 54.5306C114.909 56.9988 110.16 57.1999 112.869 61.7204C115.585 66.241 121.914 67.6762 125.535 65.2148C129.156 62.7466 129.832 56.9988 128.251 54.1215C126.67 51.2442 125.535 51.2442 123.725 51.0362Z" fill="#9D4618"/>
<path d="M93.0652 45.9958C91.763 45.1291 96.1569 38.0225 99.6177 38.7505C103.072 39.4716 99.9798 43.4582 99.0745 44.3665C98.1624 45.2748 95.8018 47.8054 93.0721 45.9958H93.0652Z" fill="#342530"/>
<path d="M80.8723 69.0075C79.7373 67.0731 86.5127 61.2144 89.6044 61.4016C92.6961 61.5819 94.8826 63.0309 94.7016 65.7488C94.5205 68.4667 91.9719 70.4565 89.0613 71.1845C86.1506 71.9056 82.1466 71.1845 80.8723 69.0075Z" fill="#3F2F36"/>
<path d="M123.265 52.52C119.937 52.104 118.718 53.4283 117.444 55.5984C116.17 57.7755 112.347 57.9558 114.533 61.9355C116.72 65.9222 121.81 67.191 124.721 65.0139C127.631 62.8368 128.174 57.7686 126.907 55.231C125.633 52.6934 124.721 52.6934 123.265 52.5131V52.52Z" fill="#342530"/>
<path d="M112.347 65.0207C110.397 64.4522 106.887 67.3781 108.893 70.0959C110.898 72.8138 113.621 73.7221 115.257 71.9055C116.894 70.0959 115.438 65.929 112.347 65.0207Z" fill="#342530"/>
<path d="M121.267 78.423C119.366 77.4801 113.99 78.6033 114.902 82.0492C115.814 85.4881 118.544 87.6652 120.362 87.4849C122.179 87.3046 123.815 85.1276 123.453 82.9574C123.091 80.7804 122.722 79.151 121.267 78.43V78.423Z" fill="#342530"/>
<path d="M55.3795 85.8486C52.1694 86.3201 47.9427 89.5025 48.5485 92.9414C49.1543 96.3804 51.1597 100.249 56.5911 99.6044C62.0156 98.9596 64.4319 96.3804 63.6241 92.7265C62.8233 89.0726 61.2148 84.9889 55.3865 85.8486H55.3795Z" fill="#A16B47"/>
<path d="M94.5205 82.7701C93.1209 83.2139 91.7909 86.0288 92.5221 88.2059C93.2532 90.383 95.7948 94.543 99.2556 94.0022C102.709 93.4614 105.989 89.1141 105.077 86.2091C104.165 83.304 99.6177 81.1339 94.5275 82.7701H94.5205Z" fill="#443541"/>
<path d="M81.4155 88.7536C80.0159 86.8955 74.5009 89.1142 74.5009 91.2912C74.5009 93.4683 76.8685 98.3563 80.8654 96.7269C84.8693 95.0976 81.0465 92.1995 81.4086 91.111C81.7707 90.0224 82.5018 90.2027 81.4086 88.7536H81.4155Z" fill="#342530"/>
<path d="M55.4004 88.0255C52.4967 88.4276 48.6669 91.1039 49.217 94.002C49.7601 96.9002 51.5845 100.159 56.4937 99.618C61.4028 99.0772 63.5893 96.9002 62.8582 93.8218C62.134 90.7434 60.6717 87.2975 55.4004 88.0255Z" fill="#342530"/>
<path d="M73.2336 57.7131C73.7001 56.3195 70.0792 59.8901 72.9898 61.8176C75.9005 63.752 75.6568 61.0896 75.9005 60.3685C76.1442 59.6405 72.7461 59.1621 73.2336 57.7131Z" fill="#C18A49"/>
<path d="M67.649 38.8753C65.9081 39.0556 72.015 41.7734 72.9829 39.6033C73.9508 37.4262 71.5276 35.9772 70.5597 36.4625C69.5918 36.9478 72.2587 38.3969 67.649 38.8753Z" fill="#C18A49"/>
<path d="M75.4131 44.4288C73.7906 45.0736 75.4131 49.0186 77.5996 48.0549C79.7861 47.0911 77.8433 43.465 75.4131 44.4288Z" fill="#C18A49"/>
<path d="M53.3393 56.7493C51.9048 56.2154 50.6723 61.0965 52.3714 61.3391C54.0704 61.5818 55.2821 57.4773 53.3393 56.7493Z" fill="#C18A49"/>
<path d="M54.5509 66.6501C52.6569 66.1786 52.8519 72.4464 55.7625 71.7253C58.6732 71.0042 56.0063 68.8272 56.9742 67.6208C57.9421 66.4144 56.4867 67.1354 54.5509 66.657V66.6501Z" fill="#C18A49"/>
<path d="M61.8276 76.0725C60.7483 75.9754 62.0713 80.905 63.7704 79.6986C65.4694 78.4922 64.5015 76.3151 61.8276 76.0725Z" fill="#C18A49"/>
<path d="M109.861 43.7077C108.176 43.3957 106.95 44.9141 108.405 46.3631C109.861 47.8122 107.438 49.7466 108.649 50.225C109.861 50.7103 113.746 44.4287 109.861 43.7007V43.7077Z" fill="#C18A49"/>
<path d="M102.584 49.2614C101.191 48.1798 98.4618 51.9169 100.161 52.4022C101.86 52.8875 104.771 50.9531 102.584 49.2614Z" fill="#C18A49"/>
<path d="M94.0958 35.4917C92.724 34.8053 88.7618 37.9045 88.0307 39.8389C87.2995 41.7733 88.2744 41.7733 90.2172 40.0816C92.1599 38.3898 95.5511 36.2197 94.0958 35.4917Z" fill="#C18A49"/>
<path d="M87.5433 44.9141C86.0879 45.3994 86.0879 49.7466 87.787 49.0186C89.4861 48.2906 87.5433 44.9141 87.5433 44.9141Z" fill="#C18A49"/>
<path d="M102.584 68.0992C101.923 66.983 99.4297 70.2763 100.161 71.4827C100.892 72.6891 98.9492 74.6235 98.9492 74.6235C98.9492 74.6235 105.738 73.4171 102.591 68.0992H102.584Z" fill="#C18A49"/>
<path d="M107.681 74.3809C106.797 73.2785 104.527 76.5579 105.982 76.7937C107.438 77.0363 108.649 75.5873 107.681 74.3809Z" fill="#C18A49"/>
<path d="M85.6005 83.3179C86.45 81.8342 84.6326 77.279 81.7219 78.2427C78.8112 79.2065 79.5354 83.7963 82.2093 84.2817C84.8763 84.767 84.6326 85.0027 85.6074 83.3179H85.6005Z" fill="#C18A49"/>
<path d="M49.4607 77.0364C48.1516 77.0364 48.2491 82.3473 50.4286 81.3836C52.6151 80.4198 51.3965 77.0364 49.4607 77.0364Z" fill="#C18A49"/>
<path d="M47.7616 46.3633C46.3759 44.9835 45.8189 51.9169 47.5179 50.9531C49.217 49.9894 48.7295 47.327 47.7616 46.3633Z" fill="#C18A49"/>
<path d="M76.3253 19.552C73.7488 19.552 61.5908 21.9093 57.949 26.0763C54.3071 30.2432 79.9601 26.8043 80.1481 24.4469C80.3292 22.0896 79.0549 19.5589 76.3253 19.5589V19.552Z" fill="#F1F0EB"/>
<path d="M96.7001 19.9124C95.3144 19.6073 91.9719 19.0042 91.0598 22.45C90.1476 25.889 91.2408 27.338 95.0637 27.1577C98.8866 26.9775 100.523 28.6068 104.527 28.7871C108.531 28.9674 113.44 32.226 114.171 30.5967C114.895 28.9674 107.438 24.9807 104.165 25.161C100.892 25.3412 98.3434 20.2729 96.707 19.9055L96.7001 19.9124Z" fill="#F1F0EB"/>
<path d="M85.6005 23.8992C84.1521 23.7536 82.3277 30.056 85.2384 29.3349C88.1491 28.6139 87.4249 24.0795 85.6005 23.8992Z" fill="#F1F0EB"/>
<path d="M52.8518 28.9675C51.5009 27.8929 42.8455 33.3147 40.847 35.8523C38.8485 38.3899 41.7592 37.662 46.8494 35.3115C51.9466 32.9542 55.5815 31.1446 52.8518 28.9745V28.9675Z" fill="#F1F0EB"/>
<path d="M52.6708 1.25504C50.1361 1.53237 46.1183 6.33024 43.3886 6.51051C40.659 6.69077 23.0139 6.69077 23.557 11.9462C24.1002 17.2017 30.2906 17.9228 29.5594 22.0897C28.8283 26.2566 22.4638 35.1313 25.1934 38.9377C27.923 42.7441 28.8352 38.7574 29.7405 34.0428C30.6527 29.335 31.0148 35.8524 32.4701 35.1313C33.9254 34.4102 31.5579 28.4268 37.1982 24.4401C42.8385 20.4534 55.2124 11.2182 59.2094 11.9393C63.2133 12.6604 55.9366 0.887574 52.6569 1.24811L52.6708 1.25504Z" fill="#F1F0EB"/>
<path d="M23.564 19.1916C20.8344 17.8326 11.1901 25.8961 15.013 29.8828C18.8359 33.8694 19.9222 27.3452 21.9276 27.7057C23.9261 28.0662 27.93 21.3686 23.564 19.1916Z" fill="#F1F0EB"/>
<path d="M17.9237 13.2079C16.719 12.2164 6.28094 15.7455 7.18618 18.0959C8.09142 20.4463 15.013 16.4666 16.0993 17.5551C17.1925 18.6436 21.0084 15.7455 17.9167 13.2079H17.9237Z" fill="#F1F0EB"/>
<path d="M62.6771 3.79251C61.8276 4.56211 64.3135 10.6773 68.4985 11.3984C72.6835 12.1264 76.6874 11.3984 78.1427 13.0277C79.5981 14.657 82.8151 15.0176 84.0268 14.1162C85.2384 13.208 80.1482 8.31997 75.232 7.77918C70.3229 7.23837 64.6826 1.98291 62.6771 3.79251Z" fill="#F1F0EB"/>
</g>
<defs>
<filter id="filter0_d_308_8498" x="-1.60754" y="1.24658" width="113.602" height="85.1614" filterUnits="userSpaceOnUse" color-interpolation-filters="sRGB">
<feFlood flood-opacity="0" result="BackgroundImageFix"/>
<feColorMatrix in="SourceAlpha" type="matrix" values="0 0 0 0 0 0 0 0 0 0 0 0 0 0 0 0 0 0 127 0" result="hardAlpha"/>
<feOffset dx="-6" dy="2"/>
<feComposite in2="hardAlpha" operator="out"/>
<feColorMatrix type="matrix" values="0 0 0 0 0 0 0 0 0 0 0 0 0 0 0 0 0 0 0.25 0"/>
<feBlend mode="normal" in2="BackgroundImageFix" result="effect1_dropShadow_308_8498"/>
<feBlend mode="normal" in="SourceGraphic" in2="effect1_dropShadow_308_8498" result="shape"/>
</filter>
<filter id="filter1_d_308_8498" x="30.2028" y="29.8669" width="100.97" height="74.9922" filterUnits="userSpaceOnUse" color-interpolation-filters="sRGB">
<feFlood flood-opacity="0" result="BackgroundImageFix"/>
<feColorMatrix in="SourceAlpha" type="matrix" values="0 0 0 0 0 0 0 0 0 0 0 0 0 0 0 0 0 0 127 0" result="hardAlpha"/>
<feOffset dy="4"/>
<feGaussianBlur stdDeviation="0.5"/>
<feComposite in2="hardAlpha" operator="out"/>
<feColorMatrix type="matrix" values="0 0 0 0 0 0 0 0 0 0 0 0 0 0 0 0 0 0 0.25 0"/>
<feBlend mode="normal" in2="BackgroundImageFix" result="effect1_dropShadow_308_8498"/>
<feBlend mode="normal" in="SourceGraphic" in2="effect1_dropShadow_308_8498" result="shape"/>
</filter>
<clipPath id="clip0_308_8498">
<rect width="133" height="104" fill="white"/>
</clipPath>
</defs>
</svg>
