<svg width="90" height="80" viewBox="0 0 90 80" fill="none" xmlns="http://www.w3.org/2000/svg">
<g clip-path="url(#clip0_599_4710)">
<path d="M50.57 53.53L46.29 51.7L68.61 0L89.22 4.24L88.28 8.78L71.39 5.3L50.57 53.53Z" fill="#6C1300"/>
<g style="mix-blend-mode:multiply" opacity="0.2">
<path d="M50.57 53.5301L71.39 5.30006L88.28 8.78006L88.64 7.02006L70.6 3.31006L49.18 52.9401L50.57 53.5301Z" fill="#6C1300"/>
</g>
<path d="M22.06 26.9202L22.66 32.8402L26.66 72.3302H62.92L66.92 32.8402L67.52 26.9202H22.06Z" fill="#6C1300"/>
<g style="mix-blend-mode:multiply" opacity="0.2">
<path d="M44.96 71.7801C54.3875 71.7801 62.03 71.395 62.03 70.9201C62.03 70.4451 54.3875 70.0601 44.96 70.0601C35.5325 70.0601 27.89 70.4451 27.89 70.9201C27.89 71.395 35.5325 71.7801 44.96 71.7801Z" fill="#6C1300"/>
</g>
<path d="M21.55 21.8901L22.61 32.3701C36.19 32.2001 53.94 32.0701 66.98 32.2401L67.93 22.8501C55.83 23.1001 36.49 19.9701 21.54 21.8901H21.55Z" fill="#932D00"/>
<g style="mix-blend-mode:multiply" opacity="0.2">
<path d="M27.89 40.1501C25.58 17.7201 57.67 24.3501 67.8 24.1901L67.94 22.8501C55.84 23.1001 36.5 19.9701 21.55 21.8901L22.06 26.9201L22.66 32.8401L26.67 72.3301H33.2C33.2 72.3301 29.13 52.1601 27.89 40.1401V40.1501Z" fill="#6C1300"/>
</g>
<g style="mix-blend-mode:lighten" opacity="0.1">
<path d="M49.47 70.06H60.4L64.12 37.27H53.2L49.47 70.06Z" fill="white"/>
</g>
<path d="M68.05 79.86H21.53L14 13.53H75.58L68.05 79.86ZM22.61 78.66H66.98L74.24 14.72H15.35L22.61 78.66Z" fill="#E6E6E6"/>
<g style="mix-blend-mode:lighten" opacity="0.4">
<path d="M63.98 14.1299L57.06 75.0999H21.6L22.07 79.2599H67.51L74.91 14.1299H63.98Z" fill="white"/>
</g>
</g>
<defs>
<clipPath id="clip0_599_4710">
<rect width="89.22" height="79.86" fill="white"/>
</clipPath>
</defs>
</svg>
