<svg width="138" height="119" viewBox="0 0 138 119" fill="none" xmlns="http://www.w3.org/2000/svg">
<g clip-path="url(#clip0_609_4692)">
<path d="M18.5009 113.152C21.4462 114.557 24.8854 113.819 28.0423 114.575C31.1816 115.33 33.933 117.578 37.1252 117.981C41.3227 118.508 45.6966 115.751 49.5943 117.525C50.582 117.981 51.4815 118.701 52.5397 118.93C54.5503 119.351 56.3845 117.841 57.7072 116.278C59.03 114.715 60.3174 112.889 62.2575 112.379C63.4921 112.046 64.7972 112.309 66.0846 112.45C71.7107 113.117 78.1481 111.15 80.1587 105.794C81.0406 103.458 80.9347 100.772 81.8342 98.4534C82.6279 96.4163 84.127 94.8007 85.485 93.1675C88.2716 89.8309 90.7231 85.5987 89.806 81.1381C89.4532 79.4347 88.6243 77.8191 88.4127 76.1156C88.1834 74.2893 88.6772 72.5331 88.9771 70.7595C89.4356 68.0024 89.4356 65.1926 89.4356 62.3828C89.4356 60.732 89.418 59.0111 88.6243 57.5184C87.425 55.2705 84.8501 54.2344 82.91 52.5837C80.9347 50.8978 79.612 48.4392 79.3298 45.928C79.1711 44.646 79.2769 43.3114 78.6949 42.1348C77.4956 39.6586 74.2152 39.2021 72.0282 37.5337C70.9524 36.7084 70.1411 35.5493 69.0123 34.7942C67.4603 33.7405 65.5379 33.5649 63.7037 33.4069C60.1764 33.1259 56.6314 32.8273 53.1393 33.2664C51.5697 33.4596 49.9824 33.7932 48.3951 33.6176C44.6737 33.1786 41.4815 30 37.7249 30C34.9383 30 32.5397 31.7912 30.5996 33.7405C28.6596 35.6898 26.8783 37.9201 24.4092 39.1845C21.7989 40.5191 18.7302 40.6245 15.8377 41.2918C12.9453 41.9592 9.91181 43.5221 9.06525 46.367C8.62433 47.807 8.83597 49.3875 8.48324 50.8627C7.58377 54.6208 3.54496 56.6579 1.55202 59.9769C-1.65786 65.3331 1.16401 72.2346 1.1111 78.6269C1.07583 83.5791 -0.705476 88.8299 1.28747 93.4134C3.12168 97.6281 7.58376 99.8759 10.4938 103.441C13.1746 106.725 14.7443 111.343 18.5185 113.152H18.5009Z" fill="#F0A450"/>
<path d="M65.3439 56.0082C65.2558 55.0072 64.4797 54.1818 63.6332 53.6374C62.7866 53.0755 61.8342 52.6891 61.0582 52.0569C60.4938 51.5828 60.0353 51.0033 59.7178 50.3359C61.4462 50.8628 63.1923 51.4423 64.6561 52.5135C66.1199 53.5848 67.284 55.1828 67.3545 56.9916C67.3898 57.9926 67.1252 59.1165 67.7073 59.9419C67.9718 60.3107 68.3598 60.5565 68.7655 60.7848C70.1411 61.5751 71.5873 62.2424 73.0864 62.8044C71.0229 62.6814 68.9595 62.3653 66.9489 61.8209C66.0318 61.5751 65.0265 61.1887 64.6561 60.3107C64.0917 58.9585 65.4674 57.5009 65.3439 56.0433V56.0082Z" fill="#BE722C"/>
<path d="M35.2204 48.2461C33.8977 49.1593 32.1517 49.1242 30.6702 49.7388C30.3527 49.8617 30.0529 50.0373 29.8413 50.3183C29.5767 50.6871 29.5591 51.1613 29.5591 51.6003C29.5414 53.0227 29.5238 54.4276 29.4885 55.8501C29.9294 55.1476 30.388 54.4276 30.8289 53.7252C31.5167 52.6364 32.3104 51.4598 33.5273 51.0735C34.7619 50.6696 36.2963 51.1086 37.2663 50.2656C37.8483 49.7739 38.0423 48.9837 38.201 48.2285C38.6596 46.1388 39.1358 44.0314 39.5943 41.9417C37.4779 43.4519 37.3192 46.771 35.1852 48.2461H35.2204Z" fill="#BE722C"/>
<path d="M58.5009 78.8201C57.09 78.3459 55.9436 77.3098 55.0088 76.1508C54.0741 74.9917 53.3157 73.7098 52.381 72.5507C52.2046 72.3224 51.993 72.0766 51.7108 71.9888C51.3757 71.8834 51.023 71.9888 50.7055 72.1117C48.8007 72.7966 46.896 73.4815 44.9912 74.1664C47.09 74.3771 49.2417 74.1312 51.2522 73.4288C51.9224 74.3947 52.4515 75.4483 52.8043 76.5547C53.1217 77.5381 53.3863 78.6445 54.2152 79.2591C55.4321 80.1547 57.1429 79.4874 58.5009 78.8201Z" fill="#BE722C"/>
<path d="M77.8483 78.7498C78.1658 78.785 78.5009 78.7498 78.7831 78.8903C79.2063 79.0484 79.4885 79.4523 79.7002 79.8386C80.2998 80.9274 80.5291 82.2094 81.2346 83.2455C81.94 84.2816 83.4039 84.984 84.4444 84.2992C83.1217 82.8767 82.0282 81.2611 81.2346 79.505C80.8995 78.7674 80.5644 77.9596 79.8765 77.503C79.2945 77.1166 78.5714 77.0815 77.866 77.0464C76.1023 76.9586 74.3386 76.8708 72.5573 76.8005C74.4444 76.9235 75.9436 78.5918 77.8307 78.7674L77.8483 78.7498Z" fill="#BE722C"/>
<path d="M64.2681 105.39C64.9559 104.336 65.8377 103.423 66.8607 102.721C67.3898 102.352 68.007 101.966 68.1481 101.333C68.254 100.859 68.06 100.385 67.9012 99.9286C67.5485 99.0154 67.2663 98.0496 67.3016 97.0661C67.3369 96.0827 67.7425 95.0817 68.5361 94.5022C69.1887 95.1871 69.9471 95.7666 70.776 96.2408C70.8818 96.2934 70.9876 96.3637 71.0229 96.469C71.0582 96.5744 71.0229 96.6798 71.0053 96.7851C70.582 98.2427 70.1587 99.7003 69.7354 101.158C69.4356 102.194 69.1182 103.248 68.5361 104.161C67.9541 105.074 67.0547 105.847 65.9788 106.022C65.3439 106.128 64.6032 105.97 64.2857 105.425L64.2681 105.39Z" fill="#BE722C"/>
<path d="M41.9401 96.5218C42.6279 96.4867 43.3334 96.4515 44.0212 96.4164C44.3034 96.2759 44.3916 95.872 44.1799 95.6437C44.0565 95.5032 43.8625 95.433 43.6685 95.3803C43.2981 95.2749 42.9453 95.1696 42.575 95.0466C41.5344 94.7305 40.4233 94.4144 39.3651 94.713C38.2716 95.0291 37.478 95.9423 36.5609 96.6096C34.8677 97.8389 32.6102 98.2603 30.582 97.6984C31.2699 98.0496 31.9401 98.4184 32.6279 98.7696C33.6155 99.2964 34.6561 99.8233 35.7672 99.8584C36.3669 99.1033 37.0723 98.4184 37.8483 97.8213C37.9718 97.5403 38.254 97.3296 38.5538 97.2945C38.642 97.2945 38.7302 97.2945 38.7831 97.3647C38.8184 97.435 38.7302 97.5579 38.6773 97.4876C39.0124 97.0311 39.5591 96.715 40.1235 96.6798C40.3175 96.592 40.5115 96.4867 40.7055 96.3989C41.1111 96.434 41.5168 96.4691 41.9224 96.5218H41.9401Z" fill="#BE722C"/>
<path d="M19.9823 69.4425C19.3122 68.7049 18.3245 68.3361 17.6367 67.6337C16.5785 66.5625 16.4374 64.7185 17.3016 63.4893C17.3898 64.5956 18.642 65.1224 19.5943 65.6844C22.0811 67.142 23.5097 70.1976 23.0159 73.025C22.8042 74.2718 22.2575 75.4484 22.0106 76.6777C21.7637 77.9245 21.8871 79.347 22.8042 80.2251C22.3104 79.6807 21.8166 79.1538 21.3227 78.6094C20.8289 78.065 20.3174 77.5206 20.0529 76.8357C19.7883 76.1509 19.7883 75.3255 20.2469 74.7635C20.4938 74.4825 20.8289 74.2718 21.0582 73.9733C21.6049 73.2708 21.3227 72.2523 21.0229 71.4093C20.7584 70.7069 20.4938 69.9869 19.9823 69.4249V69.4425Z" fill="#BE722C"/>
<path d="M22.1164 93.6768C21.993 94.028 21.8166 94.3968 21.8519 94.7832C21.8871 95.1695 22.1341 95.5207 22.3633 95.8193C23.2099 96.9432 24.0388 98.0495 24.8854 99.1735C23.8624 99.1208 22.8219 99.0505 21.8871 98.6642C20.9524 98.2778 20.1058 97.4876 19.9295 96.4866C19.6473 94.7832 21.3051 93.1675 20.8995 91.4992C20.7584 90.9197 20.4057 90.428 20.0353 89.9714C19.6473 89.4797 19.2064 88.9704 18.6244 88.7597C18.254 88.6192 17.8483 88.6192 17.4427 88.6192C16.2081 88.6192 14.9736 88.6192 13.739 88.6192C12.6984 87.706 11.94 86.4767 11.6226 85.1421C11.7108 84.9489 11.5873 84.7031 11.3933 84.6328C12.6984 85.5987 14.2681 86.1958 15.873 86.3538C16.7196 86.4241 17.5838 86.3889 18.4303 86.5645C19.9118 86.8806 21.1993 87.9343 21.8871 89.2865C22.5573 90.6387 22.6279 92.2719 22.1164 93.6944V93.6768Z" fill="#BE722C"/>
<path d="M52.8043 109.622C51.7284 108.99 50.6526 108.34 49.5767 107.708C48.6244 107.146 47.6367 106.567 46.5432 106.444C45.2558 106.286 43.9506 106.795 42.8924 107.568C41.8342 108.323 40.9877 109.341 40.1588 110.342C41.2875 110.448 42.4339 110.219 43.4392 109.693C44.0917 109.341 44.6914 108.885 45.3792 108.569C46.0494 108.253 46.8783 108.112 47.5309 108.446C48.1482 108.762 48.5009 109.394 48.9065 109.938C49.2416 110.395 49.7178 110.852 50.2998 110.869C51.2522 110.904 51.8695 109.798 52.8219 109.64L52.8043 109.622Z" fill="#BE722C"/>
<path d="M56.3139 92.9042C57.425 92.0613 56.7019 90.1822 57.4603 89.0232C56.1199 90.6213 54.7795 92.2193 53.4392 93.8174C53.1393 94.1686 52.8219 94.5725 52.8395 95.0291C52.8395 95.7842 53.6684 96.2233 54.2328 96.715C55.4674 97.7687 55.9083 99.5423 57.1781 100.561C56.3845 98.6994 55.7143 96.8028 55.1852 94.8535C55.0794 94.4672 54.9912 94.0281 55.1852 93.6945C55.4145 93.3081 55.9259 93.2028 56.2963 92.9218L56.3139 92.9042Z" fill="#BE722C"/>
<path d="M43.0335 56.061C42.9101 56.4122 42.8219 56.8161 42.9101 57.1849C43.1217 57.9927 44.0741 58.3264 44.8148 58.6952C46.9489 59.7488 48.3245 62.1547 48.1482 64.5255C48.9242 64.4903 49.2064 63.4893 49.1535 62.7342C49.0124 60.3459 47.7602 58.0454 45.8378 56.6405C45.5027 56.3946 45.097 56.1137 45.0794 55.6922C45.0618 55.3585 45.291 55.0776 45.5027 54.8317C46.1023 54.1644 46.8078 53.5673 47.5662 53.0931C47.8307 52.9175 48.1129 52.7595 48.2716 52.4961C48.7478 51.7585 48.1658 50.7048 48.5715 49.9321L46.4551 51.8112C45.0618 53.0405 43.6155 54.34 43.0159 56.0961L43.0335 56.061Z" fill="#BE722C"/>
<path d="M31.605 84.2816C32.5044 83.7898 33.3334 83.1576 34.0565 82.4552C34.2681 82.2445 34.4798 82.0162 34.5679 81.7352C34.6561 81.4366 34.6208 81.1206 34.5679 80.822C34.1094 78.2581 33.157 75.782 31.7637 73.5868C31.7108 73.5166 31.6579 73.4288 31.6579 73.341C31.6579 73.2005 31.7813 73.0951 31.8872 73.0073C32.7337 72.3224 33.6508 71.7078 34.3739 70.9C35.097 70.0746 35.5909 68.9858 35.3616 67.9146C33.7214 69.5829 32.0635 71.2336 30.4233 72.9019C30.247 73.0775 30.0529 73.2707 29.9295 73.499C29.6649 74.0083 29.7884 74.6405 30.0706 75.1498C30.3528 75.659 30.7584 76.0629 31.1111 76.5195C31.799 77.38 32.3104 78.4161 32.4692 79.5049C32.6984 81.1206 32.1341 82.7362 31.5873 84.2816H31.605Z" fill="#BE722C"/>
<path d="M18.8007 46.8061C17.3369 48.0353 16.7372 49.9846 15.5908 51.4949C14.5679 52.8471 13.0688 53.8481 11.4286 54.2696C11.6402 55.0247 12.6102 55.3759 13.3863 55.2003C14.1623 55.0247 14.7972 54.4803 15.3968 53.971C16.7196 52.812 18.1129 51.53 18.4127 49.809C18.5009 49.2822 18.5714 48.6149 19.0653 48.3866C19.5415 48.1758 20.0706 48.5622 20.582 48.5446C21.0759 48.5446 21.4991 48.1407 21.7108 47.6841C21.9048 47.2275 21.9401 46.7183 21.9577 46.2265C21.9577 46.0509 21.9577 45.8226 21.799 45.7348C21.7284 45.6997 21.6402 45.6997 21.552 45.6997C20.5644 45.77 19.5944 46.1563 18.836 46.8061H18.8007Z" fill="#BE722C"/>
<path d="M59.3122 38.7631C59.0124 38.3768 58.6596 37.9729 58.1834 37.8499C57.1958 37.5865 56.3845 38.6226 55.7143 39.3953C55.291 39.8695 54.8148 40.3085 54.3034 40.6773C53.9153 40.9407 53.4215 41.1866 53.0159 40.9758C52.7513 40.8353 52.5926 40.5544 52.4339 40.291C51.5168 38.6929 49.5767 37.4285 47.8483 38.0607C49.4004 39.5885 51.0935 40.9758 52.8748 42.2227C53.1217 42.3983 53.3862 42.5739 53.6861 42.5739C53.9683 42.5739 54.2504 42.451 54.4974 42.3105C55.4321 41.8012 56.3669 41.3095 57.3016 40.8002C57.5485 40.6597 57.8131 40.5192 58.0952 40.5192C58.3245 40.5192 58.5362 40.6071 58.7478 40.7124C59.5767 41.1514 60.2469 41.8363 60.7937 42.5915C61.0229 42.9076 61.2522 43.2412 61.6049 43.4344C61.94 43.6276 62.4339 43.6451 62.6808 43.3466C61.6226 41.7837 60.4938 40.2558 59.3122 38.7807V38.7631Z" fill="#BE722C"/>
<path d="M25.0088 106.549C25.1323 107.708 25.2558 108.85 25.3792 110.009C25.4321 110.465 25.5027 110.957 25.873 111.238C26.1552 111.431 26.508 111.449 26.8431 111.466C28.2364 111.484 29.6297 111.519 31.023 111.537C31.3581 111.537 31.7108 111.537 32.0282 111.66C32.8924 111.958 33.3157 112.942 34.0565 113.486C34.7619 114.013 35.7672 114.101 36.5432 113.714C35.3439 112.731 34.1623 111.73 32.963 110.746C32.6632 110.501 32.3633 110.255 31.993 110.114C30.8642 109.675 29.5944 110.43 28.3951 110.307C27.5133 110.22 26.7372 109.64 26.1905 108.938C25.6438 108.235 25.3087 107.41 24.9736 106.584L25.0088 106.549Z" fill="#BE722C"/>
<path d="M79.7884 67.581C79.4886 67.0366 79.1887 66.4922 78.7302 66.0883C78.5362 65.9127 78.3069 65.7722 78.1658 65.5439C77.9013 65.14 78.0247 64.5956 78.1129 64.1215C78.7125 61.2239 78.448 58.1507 77.3545 55.4111C77.7778 56.0785 77.4603 56.9565 77.1958 57.7116C76.1729 60.7322 76.3845 63.9985 76.6138 67.1771C76.649 67.7039 76.7196 68.2835 77.1076 68.6523C77.4956 69.0035 78.06 69.021 78.5714 69.1264C80.1235 69.3898 81.4991 70.4786 82.1341 71.9011C81.3404 70.4611 80.5644 69.0035 79.7707 67.5635L79.7884 67.581Z" fill="#BE722C"/>
<path d="M8.44798 62.2073C8.6949 63.0853 8.13052 63.9809 7.61906 64.7185C6.6314 66.1234 5.66139 67.5283 4.67373 68.9332C4.55028 69.1088 4.42682 69.2844 4.42682 69.4951C4.42682 69.7586 4.58555 69.9869 4.72664 70.1976C6.40213 72.5157 7.42506 75.3079 7.6367 78.1528C8.71253 75.2201 7.88361 71.6727 5.60848 69.5127C6.31394 68.3361 7.03705 67.1595 7.76015 65.9829C8.46562 64.8239 9.18872 63.3312 8.44798 62.1897V62.2073Z" fill="#BE722C"/>
<g style="mix-blend-mode:multiply" opacity="0.75">
<path d="M82.2399 81.419C78.9771 84.0532 75.5556 86.3537 71.9401 87.9693C66.6843 90.3225 61.3228 91.1128 56.1905 87.8815C54.8854 87.0561 53.4568 85.6864 51.9401 85.4581C49.2593 85.0717 46.3492 85.5459 43.6508 85.6688C31.799 86.1956 23.6155 80.8395 15.6085 72.6735C13.1923 70.1974 10.6349 67.7564 8.48326 65.0344C6.01412 69.495 8.28925 75.1497 8.25398 80.4004C8.21871 84.5449 6.73723 88.9527 8.39508 92.7811C9.92947 96.3109 13.6684 98.2075 16.1023 101.175C18.3422 103.932 19.6649 107.796 22.8219 109.306C25.291 110.483 28.1658 109.851 30.8113 110.5C33.4392 111.132 35.7496 113.012 38.4127 113.345C41.9401 113.784 45.5908 111.484 48.8536 112.959C49.6826 113.345 50.4409 113.942 51.3228 114.135C52.9983 114.487 54.5326 113.222 55.6438 111.905C56.7549 110.588 57.8307 109.078 59.4533 108.639C60.4762 108.358 61.5873 108.569 62.6632 108.691C67.3721 109.253 72.769 107.603 74.4445 103.125C75.1852 101.158 75.097 98.9099 75.8554 96.9782C76.5256 95.2748 77.7778 93.9225 78.9242 92.5528C81.2522 89.743 83.3157 86.2132 82.5573 82.4902C82.4868 82.1214 82.381 81.7527 82.2752 81.4014L82.2399 81.419Z" fill="#D9A050"/>
</g>
<path d="M27.7072 72.4981C28.9947 72.8844 30.4586 72.4981 31.4815 71.6376C32.5044 70.7771 33.1217 69.4776 33.2452 68.1429C33.2804 67.8444 33.2804 67.5283 33.157 67.2649C32.8924 66.7029 32.187 66.5273 31.5873 66.3868C30 66.018 28.448 65.4034 27.0371 64.5956C26.7549 64.4375 26.4727 64.2619 26.1729 64.139C25.0265 63.6999 23.739 64.0687 22.575 64.4902C22.2046 64.6307 21.8342 64.7712 21.5697 65.0521C21.1464 65.4912 21.0935 66.1585 21.0582 66.7731C21.0229 67.3702 20.9877 67.9497 20.97 68.5468C20.97 68.6873 20.97 68.8629 21.0406 68.9859C21.1111 69.0737 21.1993 69.1439 21.3051 69.1966C22.9982 70.0922 24.6914 71.0054 26.3845 71.901C26.8078 72.1293 27.2487 72.3576 27.7072 72.4981Z" fill="#5D2F00"/>
<path d="M51.4815 46.7182C51.2169 46.8587 50.9524 47.0343 50.8113 47.2977C50.5291 47.7894 50.7584 48.3865 51.0053 48.8958C51.552 50.0899 52.0988 51.2841 52.6632 52.4783C57.1958 51.9163 61.6049 50.4236 65.5556 48.1231C65.5556 47.7192 65.5556 47.3328 65.5556 46.9289C63.351 45.524 60.6173 44.9094 58.0247 45.2431C58.2011 45.0323 58.0423 44.6811 57.7954 44.5757C57.5485 44.4704 57.2487 44.523 56.9841 44.5757C55.0794 45.0323 53.2275 45.7523 51.5168 46.7357L51.4815 46.7182Z" fill="#5D2F00"/>
<path d="M53.7213 76.3791C53.8095 78.6445 54.2681 80.9099 55.0617 83.0348C55.1322 83.2104 55.2028 83.4036 55.3439 83.5441C55.5732 83.7724 55.9259 83.8426 56.2434 83.8602C58.201 84.0182 60.2116 83.386 61.7284 82.1392C62.0106 81.5421 61.8342 80.8397 61.552 80.2601C61.2698 79.6806 60.8642 79.1538 60.6349 78.5391C60.2116 77.4152 60.4233 76.0981 59.8236 75.062C59.4709 74.4474 58.8536 73.9908 58.1658 73.8152C57.0723 73.5518 55.9612 74.0259 54.9382 74.5001C54.5326 74.6757 54.1093 74.8864 53.8977 75.2728C53.7213 75.5889 53.7213 75.9752 53.739 76.344L53.7213 76.3791Z" fill="#5D2F00"/>
<path d="M75.5027 61.733C74.3739 61.9086 73.1393 61.9437 72.2575 62.6462C71.0053 63.6296 70.9348 65.456 70.9877 67.0365C70.9877 67.177 70.9877 67.3175 71.0935 67.4404C71.1817 67.5457 71.3228 67.5809 71.4639 67.5984C73.4392 67.9145 75.291 66.6501 77.2663 66.3165C78.8889 66.053 80.8466 66.3165 81.8871 65.0345C82.4162 64.4023 82.5397 63.4716 82.187 62.7164C81.6755 61.6101 80.3351 61.1008 79.1182 61.1184C77.9012 61.1359 76.7196 61.5398 75.5203 61.733H75.5027Z" fill="#5D2F00"/>
<path d="M25.0088 50.3007C26.4903 50.687 28.0247 50.8802 29.5415 50.8802C30.2646 50.8802 31.0229 50.8275 31.6579 50.4763C32.8571 49.8089 33.2804 48.3338 33.5979 47.0167C33.7743 46.2967 33.933 45.5767 34.1094 44.8391C31.0053 44.0138 27.7249 44.5055 24.5503 44.9796C24.4974 46.4548 24.4268 47.9123 24.3739 49.3875C24.3739 49.6158 24.3739 49.8616 24.515 50.0548C24.6385 50.1953 24.8325 50.2655 25.0088 50.3007Z" fill="#5D2F00"/>
<path d="M10.7937 93.4135C11.1464 93.8349 11.7284 93.993 12.2751 94.0457C13.7919 94.2213 15.3616 93.7998 16.5961 92.9218C16.9489 92.6759 17.284 92.3598 17.3545 91.9383C17.4603 91.2534 16.8254 90.709 16.261 90.3051C15.4497 89.7432 14.6208 89.1637 13.8095 88.6017C12.769 87.8817 11.5873 86.8807 11.746 85.6339C11.799 85.1948 12.0106 84.7031 11.7813 84.3343C11.6755 84.1587 11.4991 84.0534 11.3404 83.948C10.9524 83.7021 10.582 83.4563 10.194 83.228C9.96474 83.0699 9.70019 82.9294 9.418 82.9294C8.90654 82.947 8.60671 83.4738 8.30689 83.8953C7.74251 84.6856 6.87832 85.3002 6.66668 86.2485C6.50795 86.9509 6.79013 87.7061 7.21341 88.3032C7.63669 88.9002 8.18343 89.392 8.67726 89.9364C9.38273 90.7266 9.96474 91.6222 10.388 92.6056C10.5115 92.9042 10.6349 93.2027 10.8289 93.4486L10.7937 93.4135Z" fill="#5D2F00"/>
<path d="M33.6155 87.706C32.134 87.864 30.6349 88.0396 29.1535 88.1977C28.9242 88.2152 28.6949 88.2503 28.5009 88.3557C28.0423 88.6016 27.9365 89.1811 27.8483 89.6904C27.7249 90.586 27.5838 91.4816 27.4603 92.3597C30.0529 92.9567 32.769 92.6758 35.3439 92.0436C36.5256 91.745 37.9012 91.1479 38.0423 89.9362C38.1482 88.9879 37.3721 88.1274 36.4727 87.8113C35.5732 87.4952 34.5855 87.6006 33.6332 87.706H33.6155Z" fill="#5D2F00"/>
<path d="M54.9559 103.897C56.2257 103.195 57.1076 101.948 57.7248 100.648C57.9365 100.192 58.1305 99.7002 58.0423 99.2085C57.9012 98.3655 57.0547 97.8387 56.2963 97.4348C54.9206 96.6972 53.545 95.9597 52.1869 95.2396C51.9753 95.1343 51.7636 95.0113 51.5344 94.9938C51.0053 94.9235 50.5467 95.2923 50.1587 95.6436C49.3827 96.3284 48.6067 97.0309 47.8659 97.7333C47.6896 97.9089 47.4956 98.1021 47.5132 98.348C47.5132 98.5587 47.6719 98.7343 47.813 98.8748C49.0476 100.245 50.2998 101.597 51.5344 102.967C52.0811 103.564 52.6984 104.196 53.492 104.284C54.0035 104.336 54.515 104.161 54.9735 103.915L54.9559 103.897Z" fill="#5D2F00"/>
<path d="M72.7513 90.7617C74.0917 90.147 75.3791 89.3919 76.5961 88.5314C77.1428 88.1275 77.7072 87.6885 77.9717 87.0738C78.5714 85.6865 77.3721 84.0533 75.9083 83.6845C74.4444 83.3333 72.91 83.9304 71.6225 84.7206C71.2169 84.9665 70.8113 85.2475 70.3703 85.4055C69.6825 85.6514 68.8359 85.6514 68.395 86.2309C68.7301 87.3021 69.0476 88.3734 69.3827 89.427C69.559 89.989 69.753 90.5685 70.2292 90.9197C70.9523 91.429 71.9576 91.1305 72.7689 90.7617H72.7513Z" fill="#5D2F00"/>
<path d="M24.7443 106.514C24.4268 107.094 24.127 107.796 24.3915 108.411C24.5855 108.867 25.0617 109.131 25.5026 109.377C27.8483 110.659 30.2293 111.87 32.6279 113.047C32.8042 113.135 33.0159 113.222 33.2099 113.17C33.3862 113.117 33.5097 112.977 33.6332 112.836C34.8501 111.343 35.8377 109.658 36.5432 107.866C33.9859 106.76 31.358 105.829 28.6773 105.092C27.7778 104.846 26.7549 104.618 25.9436 105.092C25.3968 105.408 25.0441 105.97 24.7443 106.532V106.514Z" fill="#5D2F00"/>
<path d="M51.5873 64.2268C51.4991 63.2785 51.3757 62.2599 50.7231 61.5575C49.9295 60.7321 48.6596 60.6618 47.5132 60.6443C46.6138 60.6443 45.7143 60.6443 44.8501 60.8726C43.9859 61.1184 43.1746 61.6277 42.769 62.418C42.6102 62.7341 42.381 63.1555 42.0459 63.0326C41.9401 64.0512 42.0106 65.0697 42.2751 66.0707C42.5573 67.1419 43.2452 68.301 44.3563 68.3888C44.9559 68.4414 45.5379 68.1429 46.067 67.8619C47.7602 66.9663 49.4533 66.0531 51.1464 65.1575C51.2875 65.0873 51.4286 64.9995 51.5168 64.8765C51.6402 64.7009 51.6226 64.4551 51.605 64.2443L51.5873 64.2268Z" fill="#5D2F00"/>
<path d="M7.76014 64.2091C7.79541 64.455 7.84832 64.7184 7.98942 64.9115C8.23633 65.2628 8.74779 65.333 9.15344 65.2277C9.55908 65.1223 9.91181 64.8413 10.2469 64.5779C11.5344 63.5593 12.8219 62.5408 14.1093 61.5222C14.4268 61.2764 14.7619 60.9954 14.9383 60.6442C15.1675 60.1876 15.1323 59.6608 15.2205 59.1691C15.2734 58.8529 15.3792 58.5193 15.3086 58.2032C15.1146 57.2549 13.545 56.9388 13.6155 55.9905C12.6455 56.4822 11.7108 57.009 10.776 57.571C9.73545 58.2032 8.67725 58.9232 8.11287 59.9944C7.42504 61.2588 7.51323 62.8042 7.7425 64.2267L7.76014 64.2091Z" fill="#5D2F00"/>
<path d="M76.0846 108.235C76.455 107.656 76.8254 107.041 76.7901 106.356C76.7372 105.197 75.5732 104.424 74.5502 103.862C74.515 103.862 74.4973 103.827 74.4621 103.81C74.4091 103.774 74.3386 103.757 74.3033 103.81C74.268 103.862 74.3915 103.88 74.3562 103.827C72.716 104.214 71.1111 104.775 69.6825 105.654C69.3121 105.882 68.9241 106.18 68.9241 106.602C68.9241 106.813 69.0123 107.006 69.1005 107.199C69.5061 108.042 69.9118 108.885 70.5467 109.57C71.1816 110.255 72.0811 110.746 73.0158 110.676C74.3739 110.571 75.3439 109.359 76.0846 108.217V108.235Z" fill="#5D2F00"/>
<path d="M45.9436 40.0449C46.8959 39.799 47.9542 39.4478 48.3774 38.5698C48.7302 37.7971 48.4656 36.8663 47.9365 36.2166C47.2134 35.3209 46.067 34.8117 44.903 34.7239C43.739 34.636 42.5926 34.8995 41.5168 35.3385C40.9524 35.5668 40.3704 35.8478 39.9647 36.3219C39.5591 36.7785 39.3475 37.4634 39.5944 38.0254C39.7531 38.0254 39.9118 38.0429 40.0706 38.0605C40.3175 38.5873 40.1764 39.2371 40.4056 39.7815C40.6526 40.4137 41.358 40.7825 42.0282 40.8527C42.7161 40.9229 43.3862 40.7473 44.0564 40.5717C44.6914 40.3961 45.3263 40.2381 45.9436 40.0624V40.0449Z" fill="#5D2F00"/>
<g style="mix-blend-mode:multiply" opacity="0.75">
<path d="M89.806 81.1204C89.4533 79.417 88.6243 77.8014 88.4127 76.0979C88.1834 74.2716 88.6773 72.5155 88.9771 70.7418C89.4356 67.9847 89.4356 65.1749 89.4356 62.3651C89.4356 60.7144 89.418 58.9934 88.6243 57.5007C87.425 55.2528 84.8501 54.2167 82.91 52.566C80.9347 50.8801 79.612 48.4215 79.3298 45.8927C79.1711 44.6108 79.2769 43.2761 78.6949 42.0995C77.4956 39.6234 74.2152 39.1668 72.0282 37.4985C70.9524 36.6731 70.1411 35.5141 69.0123 34.759C67.4603 33.7053 65.5379 33.5297 63.7037 33.3716C62.8219 33.3014 61.94 33.2311 61.0582 33.1609C58.2892 35.2155 55.3792 37.0068 52.5044 39.1141C46.3139 43.6976 45.1146 51.7406 42.8042 58.4314C39.8942 66.8608 34.2152 69.4949 27.5485 74.4296C18.8007 80.9097 19.4356 97.9792 11.7108 105.162C13.7037 108.165 15.3263 111.607 18.4656 113.117C21.4109 114.522 24.8501 113.784 28.0071 114.539C31.1464 115.294 33.8977 117.542 37.0899 117.946C41.2875 118.473 45.6614 115.716 49.5591 117.49C50.5467 117.946 51.4462 118.666 52.5044 118.895C54.515 119.316 56.3492 117.806 57.672 116.243C58.9947 114.68 60.2822 112.853 62.2222 112.344C63.4568 112.011 64.7619 112.274 66.0494 112.414C71.6755 113.082 78.1129 111.115 80.1235 105.759C81.0053 103.423 80.8995 100.736 81.7989 98.4182C82.5926 96.3811 84.0917 94.7655 85.4497 93.1323C88.2363 89.7957 90.6878 85.5634 89.7707 81.1029L89.806 81.1204Z" fill="#D49659"/>
</g>
</g>
<g filter="url(#filter0_d_609_4692)">
<g filter="url(#filter1_d_609_4692)">
<path d="M66.0119 82.9457C68.7884 84.2707 72.0305 83.5751 75.0065 84.2873C77.9659 84.9995 80.5595 87.1195 83.5688 87.5004C87.5257 87.9973 91.6489 85.397 95.3233 87.0698C96.2543 87.5004 97.1022 88.1795 98.0998 88.3948C99.9951 88.7923 101.724 87.3679 102.971 85.8939C104.218 84.4198 105.432 82.6973 107.261 82.217C108.424 81.9023 109.655 82.1507 110.868 82.2832C116.172 82.9126 122.24 81.0576 124.136 76.006C124.967 73.8032 124.867 71.2691 125.715 69.0828C126.463 67.1616 127.877 65.6378 129.157 64.0975C131.784 60.9506 134.095 56.9591 133.23 52.7522C132.898 51.1456 132.116 49.6218 131.917 48.0153C131.701 46.2928 132.166 44.6365 132.449 42.9637C132.881 40.3634 132.881 37.7134 132.881 35.0633C132.881 33.5065 132.864 31.8833 132.116 30.4755C130.986 28.3555 128.558 27.3783 126.729 25.8214C124.867 24.2314 123.62 21.9127 123.354 19.5442C123.205 18.3352 123.305 17.0764 122.756 15.9667C121.625 13.6314 118.533 13.2008 116.471 11.6273C115.457 10.8489 114.692 9.75574 113.628 9.04355C112.165 8.0498 110.353 7.88417 108.624 7.73511C105.299 7.47011 101.957 7.18855 98.665 7.60261C97.1853 7.7848 95.689 8.09949 94.1927 7.93386C90.6846 7.5198 87.6754 4.52197 84.1341 4.52197C81.5072 4.52197 79.2461 6.21135 77.4172 8.0498C75.5884 9.88824 73.9092 11.9917 71.5816 13.1842C69.1209 14.4429 66.228 14.5423 63.5014 15.1717C60.7748 15.8011 57.9151 17.2751 57.1171 19.9583C56.7014 21.3164 56.9009 22.807 56.5684 24.1983C55.7205 27.7427 51.9132 29.6639 50.0345 32.7943C47.0086 37.8459 49.6687 44.3549 49.6188 50.3837C49.5856 55.0544 47.9064 60.0066 49.7851 64.3294C51.5142 68.3044 55.7205 70.4244 58.4638 73.7866C60.9909 76.8838 62.4706 81.2398 66.0285 82.9457H66.0119Z" fill="#F0A450"/>
<path d="M110.17 29.0514C110.087 28.1073 109.355 27.3289 108.557 26.8154C107.759 26.2854 106.862 25.921 106.13 25.3248C105.598 24.8776 105.166 24.331 104.867 23.7017C106.496 24.1985 108.142 24.7451 109.522 25.7554C110.902 26.7657 111.999 28.2729 112.065 29.9789C112.099 30.9229 111.849 31.9829 112.398 32.7614C112.647 33.1092 113.013 33.3411 113.396 33.5564C114.692 34.3017 116.056 34.9311 117.469 35.4611C115.524 35.3451 113.578 35.047 111.683 34.5336C110.819 34.3017 109.871 33.9373 109.522 33.1092C108.99 31.8339 110.287 30.4592 110.17 29.0845V29.0514Z" fill="#BE722C"/>
<path d="M81.7732 21.7304C80.5263 22.5916 78.8803 22.5585 77.4837 23.1382C77.1845 23.2541 76.9018 23.4198 76.7023 23.6848C76.4529 24.0326 76.4363 24.4798 76.4363 24.8938C76.4197 26.2354 76.4031 27.5604 76.3698 28.902C76.7855 28.2395 77.2177 27.5604 77.6334 26.8979C78.2818 25.871 79.0299 24.7613 80.1771 24.397C81.3409 24.016 82.7874 24.4301 83.7018 23.6351C84.2505 23.1713 84.4333 22.426 84.583 21.7138C85.0152 19.7429 85.4641 17.7554 85.8964 15.7844C83.9013 17.2088 83.7517 20.3391 81.74 21.7304H81.7732Z" fill="#BE722C"/>
<path d="M103.719 50.5661C102.389 50.1189 101.309 49.1417 100.427 48.0486C99.5463 46.9555 98.8313 45.7464 97.9502 44.6533C97.7839 44.438 97.5844 44.2061 97.3184 44.1233C97.0025 44.0239 96.67 44.1233 96.3707 44.2392C94.5751 44.8852 92.7795 45.5311 90.9839 46.177C92.9624 46.3758 94.9908 46.1439 96.8861 45.4814C97.5179 46.3923 98.0167 47.3861 98.3492 48.4295C98.6485 49.357 98.8978 50.4005 99.6793 50.9802C100.826 51.8249 102.439 51.1955 103.719 50.5661Z" fill="#BE722C"/>
<path d="M121.958 50.4998C122.257 50.5329 122.573 50.4998 122.839 50.6323C123.238 50.7814 123.504 51.1623 123.704 51.5267C124.269 52.5536 124.485 53.7626 125.15 54.7398C125.815 55.717 127.195 56.3795 128.176 55.7336C126.929 54.392 125.898 52.8683 125.15 51.212C124.834 50.5164 124.518 49.7545 123.87 49.3239C123.321 48.9595 122.64 48.9264 121.975 48.8933C120.312 48.8104 118.649 48.7276 116.97 48.6614C118.749 48.7773 120.162 50.3508 121.941 50.5164L121.958 50.4998Z" fill="#BE722C"/>
<path d="M109.156 75.6252C109.804 74.6315 110.636 73.7702 111.6 73.1077C112.099 72.7599 112.681 72.3955 112.814 71.7993C112.913 71.3521 112.731 70.9049 112.581 70.4743C112.248 69.613 111.982 68.7021 112.016 67.7746C112.049 66.8471 112.431 65.903 113.179 65.3564C113.795 66.0024 114.509 66.549 115.291 66.9961C115.391 67.0458 115.49 67.1121 115.524 67.2115C115.557 67.3108 115.524 67.4102 115.507 67.5096C115.108 68.8843 114.709 70.259 114.31 71.6337C114.027 72.6108 113.728 73.6046 113.179 74.4659C112.631 75.3271 111.783 76.0559 110.769 76.2215C110.17 76.3209 109.472 76.1718 109.173 75.6584L109.156 75.6252Z" fill="#BE722C"/>
<path d="M88.1077 67.261C88.7561 67.2279 89.4211 67.1947 90.0695 67.1616C90.3355 67.0291 90.4187 66.6482 90.2192 66.4329C90.1028 66.3004 89.9199 66.2341 89.737 66.1844C89.3879 66.085 89.0553 65.9857 88.7062 65.8697C87.7253 65.5716 86.6779 65.2735 85.6803 65.555C84.6495 65.8532 83.9013 66.7144 83.0368 67.3438C81.4407 68.5032 79.3126 68.9007 77.4006 68.3707C78.049 68.7019 78.6808 69.0497 79.3292 69.381C80.2603 69.8779 81.2412 70.3748 82.2886 70.4079C82.8539 69.6957 83.5189 69.0497 84.2505 68.4866C84.3669 68.2216 84.6329 68.0229 84.9155 67.9897C84.9986 67.9897 85.0818 67.9897 85.1316 68.056C85.1649 68.1222 85.0818 68.2382 85.0319 68.1719C85.3478 67.7413 85.8632 67.4432 86.3952 67.4101C86.5781 67.3272 86.761 67.2279 86.9439 67.1451C87.3263 67.1782 87.7087 67.2113 88.091 67.261H88.1077Z" fill="#BE722C"/>
<path d="M67.4085 41.7216C66.7767 41.026 65.8456 40.6782 65.1972 40.0157C64.1997 39.0054 64.0667 37.2663 64.8813 36.1069C64.9645 37.1504 66.1449 37.6473 67.0427 38.1773C69.3869 39.5519 70.7336 42.4338 70.2681 45.1004C70.0686 46.2763 69.5532 47.386 69.3204 48.5454C69.0877 49.7214 69.2041 51.0629 70.0686 51.8911C69.6031 51.3776 69.1376 50.8807 68.672 50.3673C68.2065 49.8539 67.7244 49.3404 67.475 48.6945C67.2256 48.0485 67.2256 47.2701 67.6579 46.7401C67.8906 46.4751 68.2065 46.2763 68.4226 45.9948C68.938 45.3323 68.672 44.3717 68.3894 43.5767C68.14 42.9141 67.8906 42.2351 67.4085 41.7051V41.7216Z" fill="#BE722C"/>
<path d="M69.4202 64.5778C69.3038 64.9091 69.1376 65.2569 69.1708 65.6213C69.2041 65.9856 69.4368 66.3169 69.653 66.5984C70.451 67.6585 71.2324 68.7019 72.0305 69.7619C71.0662 69.7122 70.0852 69.646 69.2041 69.2816C68.3229 68.9172 67.5249 68.1719 67.3586 67.2278C67.0926 65.6213 68.6554 64.0975 68.273 62.5241C68.14 61.9775 67.8075 61.5137 67.4584 61.0831C67.0926 60.6194 66.677 60.139 66.1283 59.9403C65.7792 59.8078 65.3968 59.8078 65.0144 59.8078C63.8506 59.8078 62.6868 59.8078 61.5229 59.8078C60.542 58.9465 59.8271 57.7872 59.5278 56.5284C59.611 56.3462 59.4946 56.1143 59.3117 56.0481C60.542 56.959 62.0217 57.5222 63.5347 57.6712C64.3327 57.7375 65.1474 57.7043 65.9454 57.87C67.342 58.1681 68.5557 59.1619 69.2041 60.4372C69.8359 61.7125 69.9024 63.2528 69.4202 64.5944V64.5778Z" fill="#BE722C"/>
<path d="M98.3492 79.6165C97.335 79.0203 96.3208 78.4075 95.3067 77.8112C94.4089 77.2812 93.4778 76.7346 92.447 76.6187C91.2333 76.4696 90.003 76.95 89.0055 77.6787C88.0079 78.3909 87.2099 79.3515 86.4285 80.2956C87.4925 80.395 88.5732 80.1797 89.5209 79.6828C90.136 79.3515 90.7013 78.9209 91.3497 78.6228C91.9815 78.3246 92.7629 78.1921 93.3781 78.5068C93.96 78.805 94.2925 79.4012 94.6749 79.9147C94.9908 80.3453 95.4397 80.7759 95.9883 80.7925C96.8861 80.8256 97.468 79.7821 98.3658 79.6331L98.3492 79.6165Z" fill="#BE722C"/>
<path d="M101.658 63.8493C102.705 63.0543 102.024 61.2821 102.738 60.189C101.475 61.6962 100.211 63.2034 98.9477 64.7105C98.6651 65.0418 98.3658 65.4227 98.3824 65.8534C98.3824 66.5655 99.1639 66.9796 99.6959 67.4434C100.86 68.4371 101.275 70.1099 102.472 71.0706C101.724 69.3149 101.092 67.5262 100.594 65.6877C100.494 65.3234 100.411 64.9093 100.594 64.5946C100.81 64.2302 101.292 64.1309 101.641 63.8659L101.658 63.8493Z" fill="#BE722C"/>
<path d="M89.1385 29.1011C89.0221 29.4324 88.939 29.8133 89.0221 30.1611C89.2216 30.923 90.1194 31.2377 90.8177 31.5855C92.8294 32.5793 94.1262 34.8483 93.96 37.0843C94.6915 37.0512 94.9575 36.1071 94.9077 35.3949C94.7747 33.1424 93.5942 30.9727 91.782 29.6477C91.4661 29.4158 91.0837 29.1508 91.0671 28.7533C91.0505 28.4386 91.2666 28.1736 91.4661 27.9418C92.0314 27.3124 92.6964 26.7493 93.4113 26.3021C93.6607 26.1364 93.9267 25.9874 94.0764 25.7389C94.5253 25.0433 93.9766 24.0496 94.359 23.3208L92.3639 25.093C91.0505 26.2524 89.6871 27.478 89.1219 29.1343L89.1385 29.1011Z" fill="#BE722C"/>
<path d="M78.3649 55.7171C79.2128 55.2533 79.9942 54.6571 80.6759 53.9946C80.8754 53.7958 81.0749 53.5805 81.158 53.3155C81.2412 53.0339 81.2079 52.7358 81.158 52.4542C80.7258 50.0361 79.828 47.7008 78.5145 45.6305C78.4646 45.5642 78.4148 45.4814 78.4148 45.3986C78.4148 45.2661 78.5311 45.1667 78.6309 45.0839C79.4289 44.438 80.2935 43.8583 80.9751 43.0964C81.6568 42.318 82.1223 41.2911 81.9062 40.2808C80.36 41.8542 78.7972 43.4111 77.251 44.9845C77.0847 45.1502 76.9018 45.3323 76.7854 45.5477C76.536 46.028 76.6524 46.6242 76.9184 47.1045C77.1845 47.5849 77.5668 47.9658 77.8994 48.3964C78.5478 49.208 79.0299 50.1852 79.1796 51.2121C79.3957 52.7358 78.8637 54.2596 78.3483 55.7171H78.3649Z" fill="#BE722C"/>
<path d="M66.2946 20.3725C64.9146 21.5319 64.3493 23.3704 63.2687 24.7947C62.3044 26.0701 60.8912 27.0141 59.345 27.4116C59.5445 28.1238 60.4589 28.4551 61.1904 28.2895C61.922 28.1238 62.5205 27.6104 63.0858 27.1301C64.3327 26.0369 65.6462 24.8279 65.9288 23.2047C66.0119 22.7079 66.0784 22.0785 66.544 21.8632C66.9929 21.6644 67.4916 22.0288 67.9738 22.0122C68.4393 22.0122 68.8383 21.6313 69.0378 21.2007C69.2207 20.77 69.254 20.2897 69.2706 19.826C69.2706 19.6604 69.2706 19.445 69.121 19.3622C69.0545 19.3291 68.9713 19.3291 68.8882 19.3291C67.9572 19.3954 67.0427 19.7597 66.3278 20.3725H66.2946Z" fill="#BE722C"/>
<path d="M104.484 12.7867C104.201 12.4223 103.869 12.0414 103.42 11.9255C102.489 11.677 101.724 12.6542 101.092 13.383C100.693 13.8301 100.245 14.2442 99.7624 14.592C99.3966 14.8405 98.9311 15.0723 98.5487 14.8736C98.2993 14.7411 98.1497 14.4761 98 14.2276C97.1355 12.7205 95.3066 11.5279 93.6773 12.1242C95.1404 13.5651 96.7365 14.8736 98.4157 16.0495C98.6484 16.2152 98.8978 16.3808 99.1805 16.3808C99.4465 16.3808 99.7125 16.2648 99.9452 16.1323C100.826 15.652 101.708 15.1883 102.589 14.708C102.822 14.5755 103.071 14.443 103.337 14.443C103.553 14.443 103.753 14.5258 103.952 14.6251C104.733 15.0392 105.365 15.6852 105.881 16.3973C106.097 16.6955 106.313 17.0102 106.645 17.1923C106.961 17.3745 107.427 17.3911 107.66 17.1095C106.662 15.6355 105.598 14.1945 104.484 12.8033V12.7867Z" fill="#BE722C"/>
<path d="M72.1468 76.7183C72.2632 77.8114 72.3796 78.888 72.496 79.9811C72.5459 80.4117 72.6124 80.8755 72.9615 81.1405C73.2275 81.3227 73.56 81.3392 73.8759 81.3558C75.1894 81.3723 76.5028 81.4055 77.8162 81.422C78.1321 81.422 78.4647 81.422 78.7639 81.538C79.5786 81.8195 79.9776 82.747 80.6759 83.2605C81.3409 83.7574 82.2886 83.8402 83.0201 83.4758C81.8896 82.5483 80.7756 81.6042 79.6451 80.6767C79.3625 80.4448 79.0798 80.213 78.7307 80.0805C77.6666 79.6664 76.4696 80.3786 75.339 80.2626C74.5077 80.1798 73.7762 79.6333 73.2608 78.9708C72.7454 78.3083 72.4295 77.5298 72.1136 76.7514L72.1468 76.7183Z" fill="#BE722C"/>
<path d="M123.787 39.9661C123.504 39.4527 123.221 38.9393 122.789 38.5583C122.606 38.3927 122.39 38.2602 122.257 38.0449C122.008 37.6639 122.124 37.1505 122.207 36.7033C122.773 33.9705 122.523 31.072 121.492 28.4883C121.891 29.1177 121.592 29.9458 121.343 30.658C120.378 33.5067 120.578 36.5874 120.794 39.5852C120.827 40.0821 120.894 40.6286 121.26 40.9765C121.625 41.3077 122.157 41.3243 122.64 41.4236C124.103 41.6721 125.399 42.699 125.998 44.0405C125.25 42.6824 124.518 41.3077 123.77 39.9496L123.787 39.9661Z" fill="#BE722C"/>
<path d="M56.5352 34.8977C56.768 35.7258 56.2359 36.5705 55.7538 37.2661C54.8227 38.5911 53.9083 39.9161 52.9773 41.2411C52.8609 41.4068 52.7445 41.5724 52.7445 41.7711C52.7445 42.0196 52.8941 42.2349 53.0271 42.4336C54.6066 44.6199 55.5709 47.2533 55.7704 49.9365C56.7846 47.1705 56.0032 43.8249 53.8584 41.7877C54.5235 40.678 55.2051 39.5683 55.8868 38.4586C56.5518 37.3655 57.2335 35.9577 56.5352 34.8811V34.8977Z" fill="#BE722C"/>
<g style="mix-blend-mode:multiply" opacity="0.75">
<path d="M126.098 53.0171C123.022 55.5015 119.797 57.6712 116.388 59.1949C111.434 61.4143 106.379 62.1596 101.541 59.1121C100.311 58.3337 98.9643 57.0418 97.5345 56.8265C95.0074 56.4621 92.2641 56.9093 89.7204 57.0252C78.5478 57.5221 70.8334 52.4705 63.2853 44.7689C61.0075 42.4336 58.5968 40.1314 56.5684 37.5642C54.2408 41.7711 56.3856 47.1042 56.3523 52.0565C56.3191 55.9652 54.9225 60.1224 56.4853 63.7331C57.9318 67.0621 61.4564 68.8509 63.7508 71.65C65.8623 74.2503 67.1092 77.8941 70.0852 79.3184C72.4129 80.4281 75.1229 79.8319 77.6167 80.4447C80.094 81.0409 82.272 82.8131 84.7825 83.1278C88.1077 83.5419 91.5492 81.3722 94.625 82.7634C95.4064 83.1278 96.1213 83.6909 96.9526 83.8731C98.5321 84.2044 99.9785 83.0119 101.026 81.7697C102.073 80.5275 103.088 79.1031 104.617 78.689C105.581 78.424 106.629 78.6228 107.643 78.7387C112.082 79.2687 117.17 77.7119 118.749 73.4884C119.447 71.6334 119.364 69.5134 120.079 67.6915C120.711 66.0849 121.891 64.8096 122.972 63.5177C125.167 60.8677 127.112 57.5387 126.397 54.0274C126.33 53.6796 126.231 53.3318 126.131 53.0005L126.098 53.0171Z" fill="#D9A050"/>
</g>
<path d="M74.6906 44.6033C75.9043 44.9677 77.2842 44.6033 78.2485 43.7917C79.2128 42.9802 79.7947 41.7545 79.9111 40.4958C79.9444 40.2142 79.9444 39.9161 79.828 39.6676C79.5786 39.1376 78.9136 38.972 78.3483 38.8395C76.852 38.4917 75.3889 37.912 74.0588 37.1501C73.7928 37.0011 73.5268 36.8354 73.2442 36.7195C72.1635 36.3054 70.9498 36.6533 69.8525 37.0508C69.5033 37.1833 69.1542 37.3158 68.9048 37.5808C68.5058 37.9948 68.4559 38.6242 68.4227 39.2039C68.3894 39.767 68.3562 40.3136 68.3395 40.8767C68.3395 41.0092 68.3395 41.1748 68.406 41.2908C68.4725 41.3736 68.5557 41.4398 68.6554 41.4895C70.2515 42.3342 71.8476 43.1955 73.4437 44.0402C73.8427 44.2555 74.2583 44.4708 74.6906 44.6033Z" fill="#5D2F00"/>
<path d="M97.1022 20.2894C96.8528 20.4219 96.6034 20.5876 96.4704 20.836C96.2044 21.2997 96.4205 21.8629 96.6533 22.3432C97.1687 23.4694 97.6841 24.5957 98.2161 25.722C102.489 25.192 106.645 23.7841 110.37 21.6144C110.37 21.2335 110.37 20.8691 110.37 20.4882C108.291 19.1632 105.714 18.5835 103.27 18.8982C103.437 18.6994 103.287 18.3682 103.054 18.2688C102.821 18.1694 102.539 18.2191 102.289 18.2688C100.494 18.6994 98.7481 19.3785 97.1354 20.306L97.1022 20.2894Z" fill="#5D2F00"/>
<path d="M99.2137 48.2639C99.2968 50.4005 99.7291 52.5371 100.477 54.5412C100.544 54.7068 100.61 54.889 100.743 55.0215C100.959 55.2368 101.292 55.303 101.591 55.3196C103.437 55.4687 105.332 54.8724 106.762 53.6965C107.028 53.1333 106.862 52.4708 106.596 51.9243C106.33 51.3777 105.947 50.8808 105.731 50.3011C105.332 49.2411 105.532 47.9989 104.966 47.0218C104.634 46.4421 104.052 46.0114 103.403 45.8458C102.373 45.5974 101.325 46.0446 100.361 46.4918C99.9785 46.6574 99.5795 46.8561 99.3799 47.2205C99.2137 47.5186 99.2137 47.883 99.2303 48.2308L99.2137 48.2639Z" fill="#5D2F00"/>
<path d="M119.747 34.4505C118.683 34.6161 117.519 34.6492 116.687 35.3117C115.507 36.2392 115.441 37.9617 115.49 39.4524C115.49 39.5849 115.49 39.7174 115.59 39.8333C115.673 39.9327 115.806 39.9658 115.939 39.9824C117.801 40.2805 119.547 39.088 121.409 38.7733C122.939 38.5249 124.784 38.7733 125.765 37.5642C126.264 36.968 126.38 36.0902 126.048 35.378C125.566 34.3345 124.302 33.8542 123.155 33.8708C122.008 33.8873 120.894 34.2683 119.763 34.4505H119.747Z" fill="#5D2F00"/>
<path d="M72.1468 23.6682C73.5434 24.0326 74.9898 24.2148 76.4196 24.2148C77.1013 24.2148 77.8162 24.1651 78.4148 23.8338C79.5453 23.2045 79.9443 21.8132 80.2436 20.571C80.4098 19.892 80.5595 19.2129 80.7257 18.5173C77.7996 17.7388 74.7072 18.2026 71.7145 18.6498C71.6647 20.041 71.5982 21.4157 71.5483 22.807C71.5483 23.0223 71.5483 23.2542 71.6813 23.4363C71.7977 23.5688 71.9806 23.6351 72.1468 23.6682Z" fill="#5D2F00"/>
<path d="M58.7464 64.3295C59.0789 64.727 59.6276 64.8761 60.143 64.9258C61.5728 65.0914 63.0525 64.6939 64.2163 63.8658C64.5488 63.6339 64.8647 63.3357 64.9312 62.9382C65.031 62.2923 64.4324 61.7789 63.9004 61.3979C63.1356 60.8679 62.3542 60.3214 61.5894 59.7914C60.6085 59.1123 59.4946 58.1682 59.6442 56.9923C59.6941 56.5782 59.8936 56.1145 59.6774 55.7667C59.5777 55.601 59.4114 55.5017 59.2618 55.4023C58.896 55.1704 58.5469 54.9385 58.1811 54.7232C57.965 54.5742 57.7156 54.4417 57.4496 54.4417C56.9674 54.4582 56.6848 54.9551 56.4021 55.3526C55.8701 56.0979 55.0555 56.6776 54.8559 57.572C54.7063 58.2345 54.9723 58.9467 55.3713 59.5098C55.7704 60.0729 56.2858 60.5367 56.7513 61.0501C57.4163 61.7954 57.965 62.6401 58.364 63.5676C58.4804 63.8492 58.5968 64.1308 58.7796 64.3626L58.7464 64.3295Z" fill="#5D2F00"/>
<path d="M80.2602 58.9465C78.8637 59.0956 77.4505 59.2612 76.0539 59.4103C75.8378 59.4269 75.6216 59.46 75.4387 59.5594C75.0065 59.7912 74.9067 60.3378 74.8236 60.8181C74.7072 61.6628 74.5742 62.5075 74.4578 63.3356C76.9018 63.8987 79.4622 63.6338 81.8896 63.0375C83.0035 62.7559 84.3003 62.1928 84.4333 61.05C84.5331 60.1556 83.8015 59.344 82.9536 59.0459C82.1057 58.7478 81.1747 58.8472 80.2769 58.9465H80.2602Z" fill="#5D2F00"/>
<path d="M100.378 74.2172C101.575 73.5547 102.406 72.3787 102.988 71.1531C103.187 70.7225 103.37 70.2587 103.287 69.795C103.154 69 102.356 68.5031 101.641 68.1222C100.344 67.4265 99.0474 66.7309 97.7673 66.0518C97.5677 65.9525 97.3682 65.8365 97.1521 65.82C96.6533 65.7537 96.2211 66.1015 95.8553 66.4328C95.1237 67.0787 94.3922 67.7412 93.6939 68.4037C93.5277 68.5693 93.3448 68.7515 93.3614 68.9834C93.3614 69.1822 93.511 69.3478 93.644 69.4803C94.8079 70.7722 95.9883 72.0475 97.1521 73.3394C97.6675 73.9025 98.2494 74.4987 98.9976 74.5816C99.4797 74.6312 99.9619 74.4656 100.394 74.2337L100.378 74.2172Z" fill="#5D2F00"/>
<path d="M117.153 61.8282C118.417 61.2485 119.63 60.5364 120.777 59.7248C121.293 59.3439 121.825 58.9298 122.074 58.3501C122.639 57.0417 121.509 55.5013 120.129 55.1535C118.749 54.8223 117.303 55.3854 116.089 56.1307C115.707 56.3626 115.324 56.6276 114.908 56.7767C114.26 57.0085 113.462 57.0085 113.046 57.5551C113.362 58.5654 113.662 59.5757 113.977 60.5695C114.144 61.0995 114.327 61.646 114.775 61.9773C115.457 62.4576 116.405 62.176 117.17 61.8282H117.153Z" fill="#5D2F00"/>
<path d="M71.8974 76.6851C71.5982 77.2317 71.3155 77.8942 71.5649 78.4739C71.7478 78.9045 72.1967 79.1529 72.6123 79.3848C74.8236 80.5939 77.0681 81.7367 79.3292 82.8464C79.4954 82.9292 79.6949 83.012 79.8778 82.9623C80.0441 82.9126 80.1605 82.7801 80.2768 82.6476C81.424 81.2398 82.3551 79.6498 83.0201 77.9604C80.6094 76.917 78.1321 76.0392 75.605 75.3435C74.7571 75.1116 73.7928 74.8963 73.028 75.3435C72.5126 75.6416 72.1801 76.1717 71.8974 76.7017V76.6851Z" fill="#5D2F00"/>
<path d="M97.202 36.8026C97.1189 35.9082 97.0025 34.9476 96.3873 34.2851C95.6392 33.5066 94.4421 33.4404 93.3614 33.4238C92.5135 33.4238 91.6656 33.4238 90.8509 33.6391C90.0363 33.871 89.2715 34.3513 88.8891 35.0966C88.7394 35.3948 88.5233 35.7923 88.2074 35.6763C88.1077 36.637 88.1742 37.5976 88.4235 38.5417C88.6896 39.552 89.338 40.6451 90.3854 40.7279C90.9507 40.7776 91.4993 40.496 91.9981 40.231C93.5942 39.3863 95.1903 38.5251 96.7863 37.6804C96.9194 37.6142 97.0524 37.5313 97.1355 37.4154C97.2519 37.2498 97.2352 37.0179 97.2186 36.8192L97.202 36.8026Z" fill="#5D2F00"/>
<path d="M55.8868 36.7857C55.92 37.0176 55.9699 37.266 56.1029 37.4482C56.3357 37.7795 56.8178 37.8457 57.2002 37.7463C57.5826 37.647 57.9151 37.382 58.231 37.1335C59.4447 36.1729 60.6584 35.2123 61.8721 34.2516C62.1713 34.0198 62.4872 33.7548 62.6535 33.4235C62.8696 32.9929 62.8364 32.496 62.9195 32.0322C62.9694 31.7341 63.0691 31.4194 63.0026 31.1213C62.8197 30.2269 61.34 29.9288 61.4065 29.0344C60.4921 29.4982 59.6109 29.9951 58.7298 30.5251C57.7488 31.1213 56.7513 31.8004 56.2193 32.8107C55.5709 34.0032 55.654 35.4607 55.8701 36.8023L55.8868 36.7857Z" fill="#5D2F00"/>
<path d="M120.295 78.3082C120.644 77.7616 120.994 77.1819 120.96 76.536C120.91 75.4428 119.813 74.7141 118.849 74.1841C118.816 74.1841 118.799 74.1509 118.766 74.1344C118.716 74.1013 118.649 74.0847 118.616 74.1344C118.583 74.1841 118.699 74.2006 118.666 74.151C117.12 74.5153 115.607 75.0453 114.26 75.8735C113.911 76.0888 113.545 76.3703 113.545 76.7678C113.545 76.9666 113.628 77.1488 113.711 77.331C114.094 78.126 114.476 78.921 115.075 79.5669C115.673 80.2129 116.521 80.6766 117.402 80.6103C118.683 80.511 119.597 79.3682 120.295 78.2916V78.3082Z" fill="#5D2F00"/>
<path d="M91.8817 13.9957C92.7795 13.7639 93.7771 13.4326 94.1761 12.6045C94.5086 11.8757 94.2592 10.9979 93.7604 10.3851C93.0788 9.54042 91.9981 9.06011 90.9008 8.97729C89.8035 8.89448 88.7228 9.14292 87.7086 9.55698C87.1766 9.7723 86.628 10.0373 86.2456 10.4845C85.8632 10.9151 85.6637 11.5611 85.8964 12.0911C86.046 12.0911 86.1957 12.1076 86.3453 12.1242C86.5781 12.6211 86.4451 13.2339 86.6612 13.7473C86.894 14.3436 87.559 14.6914 88.1908 14.7576C88.8392 14.8239 89.471 14.6583 90.1028 14.4926C90.7013 14.327 91.2998 14.1779 91.8817 14.0123V13.9957Z" fill="#5D2F00"/>
<g style="mix-blend-mode:multiply" opacity="0.75">
<path d="M133.23 52.7358C132.898 51.1292 132.116 49.6055 131.917 47.9989C131.701 46.2764 132.166 44.6201 132.449 42.9473C132.881 40.347 132.881 37.697 132.881 35.047C132.881 33.4901 132.864 31.8669 132.116 30.4591C130.986 28.3391 128.558 27.3619 126.729 25.805C124.867 24.215 123.62 21.8963 123.354 19.5113C123.205 18.3022 123.305 17.0435 122.756 15.9338C121.625 13.5984 118.533 13.1678 116.471 11.5944C115.457 10.8159 114.692 9.7228 113.628 9.01061C112.165 8.01686 110.353 7.85123 108.624 7.70217C107.793 7.63592 106.961 7.56967 106.13 7.50342C103.52 9.44124 100.777 11.1306 98.0665 13.1181C92.2309 17.441 91.1003 25.0266 88.9223 31.3369C86.179 39.287 80.8255 41.7714 74.541 46.4254C66.2945 52.537 66.8931 68.6358 59.611 75.4099C61.4897 78.2421 63.0193 81.4884 65.9787 82.9128C68.7552 84.2378 71.9972 83.5421 74.9732 84.2543C77.9326 84.9665 80.5263 87.0865 83.5355 87.4675C87.4925 87.9644 91.6157 85.364 95.29 87.0368C96.2211 87.4675 97.069 88.1465 98.0665 88.3619C99.9619 88.7594 101.691 87.335 102.938 85.8609C104.185 84.3868 105.399 82.6643 107.227 82.184C108.391 81.8693 109.621 82.1178 110.835 82.2503C116.139 82.8796 122.207 81.0246 124.103 75.9731C124.934 73.7702 124.834 71.2362 125.682 69.0499C126.43 67.1286 127.843 65.6049 129.124 64.0646C131.75 60.9177 134.061 56.9261 133.197 52.7192L133.23 52.7358Z" fill="#D49659"/>
</g>
</g>
</g>
<defs>
<filter id="filter0_d_609_4692" x="40" y="-4" width="102" height="101" filterUnits="userSpaceOnUse" color-interpolation-filters="sRGB">
<feFlood flood-opacity="0" result="BackgroundImageFix"/>
<feColorMatrix in="SourceAlpha" type="matrix" values="0 0 0 0 0 0 0 0 0 0 0 0 0 0 0 0 0 0 127 0" result="hardAlpha"/>
<feOffset/>
<feGaussianBlur stdDeviation="2"/>
<feComposite in2="hardAlpha" operator="out"/>
<feColorMatrix type="matrix" values="0 0 0 0 0 0 0 0 0 0 0 0 0 0 0 0 0 0 0.25 0"/>
<feBlend mode="normal" in2="BackgroundImageFix" result="effect1_dropShadow_609_4692"/>
<feBlend mode="normal" in="SourceGraphic" in2="effect1_dropShadow_609_4692" result="shape"/>
</filter>
<filter id="filter1_d_609_4692" x="45.5854" y="4.52197" width="87.8293" height="87.9404" filterUnits="userSpaceOnUse" color-interpolation-filters="sRGB">
<feFlood flood-opacity="0" result="BackgroundImageFix"/>
<feColorMatrix in="SourceAlpha" type="matrix" values="0 0 0 0 0 0 0 0 0 0 0 0 0 0 0 0 0 0 127 0" result="hardAlpha"/>
<feOffset dx="-3" dy="4"/>
<feComposite in2="hardAlpha" operator="out"/>
<feColorMatrix type="matrix" values="0 0 0 0 0 0 0 0 0 0 0 0 0 0 0 0 0 0 0.25 0"/>
<feBlend mode="normal" in2="BackgroundImageFix" result="effect1_dropShadow_609_4692"/>
<feBlend mode="normal" in="SourceGraphic" in2="effect1_dropShadow_609_4692" result="shape"/>
</filter>
<clipPath id="clip0_609_4692">
<rect width="90" height="89" fill="white" transform="translate(0 30)"/>
</clipPath>
</defs>
</svg>
