<svg width="102" height="56" viewBox="0 0 102 56" fill="none" xmlns="http://www.w3.org/2000/svg">
<g clip-path="url(#clip0_599_4912)">
<path d="M100.749 16.5859C98.1748 9.4035 90.2442 5.65828 83.0697 8.25237L82.9088 8.31722V15.3051L85.2896 14.4458C89.0538 13.0839 93.2202 15.0457 94.5715 18.8233C95.9227 22.601 93.9602 26.7677 90.196 28.1296L81.2841 31.3398C80.2546 34.4851 78.7586 37.3549 76.8765 39.9165L92.4159 34.323C99.5904 31.7451 103.322 23.7845 100.733 16.6021L100.749 16.5859Z" fill="#E6E6E6"/>
<path d="M51.3475 53.7464H51.1866C33.2503 53.7464 18.66 39.1222 18.66 21.1581V0H83.8741V21.1581C83.8741 39.1222 69.2837 53.7464 51.3475 53.7464ZM20.5903 1.94557V21.1581C20.5903 38.0521 34.312 51.8008 51.1866 51.8008H51.3475C68.222 51.8008 81.9437 38.0521 81.9437 21.1581V1.94557H20.5903Z" fill="#E6E6E6"/>
<g style="mix-blend-mode:lighten" opacity="0.4">
<path d="M50.5592 48.1368C36.548 48.1368 26.6066 36.0742 25.4323 24.2873C24.4993 14.9648 26.3653 0.9729 26.3653 0.9729H75.9274C75.9274 0.9729 77.5682 17.7534 76.6352 25.2277C75.5413 33.999 64.5704 48.153 50.5592 48.153V48.1368Z" fill="white"/>
</g>
<path d="M25.191 24.9358C26.5262 37.9711 37.5293 48.1367 50.881 48.1367C64.2487 48.1367 75.2357 37.9711 76.5709 24.9358H25.191Z" fill="#6C1300"/>
<g style="mix-blend-mode:multiply" opacity="0.2">
<path d="M52.1678 48.1043C52.5861 48.0881 53.0043 48.0557 53.4065 48.007C43.2399 45.267 35.5506 36.4633 34.4407 25.714C34.4407 25.4222 34.4568 25.179 34.505 24.9358H25.1749C26.5101 37.9711 37.5132 48.1367 50.8648 48.1367C51.2831 48.1367 51.7174 48.1367 52.1357 48.1043H52.1678Z" fill="#6C1300"/>
</g>
<g style="mix-blend-mode:lighten" opacity="0.4">
<path d="M68.4633 0.9729V21.2393C68.4633 36.2688 57.975 48.8177 43.9316 51.9955C46.1676 52.4981 48.4841 52.7737 50.8809 52.7737C68.2703 52.7737 82.9089 39.6249 82.9089 21.1582V0.9729H68.4633Z" fill="white"/>
</g>
<g style="mix-blend-mode:lighten" opacity="0.1">
<path d="M62.3827 19.1963V22.6983C62.3827 27.9514 60.5489 32.7666 57.4764 36.5605H67.1765C70.2329 32.7829 72.0828 27.9514 72.0828 22.6983V19.1963H62.3827Z" fill="white"/>
</g>
<path d="M59.8732 55.9999H43.1112C38.4783 55.9999 34.7302 52.2385 34.7302 47.6016H68.2381C68.2381 52.2385 64.49 55.9999 59.8571 55.9999H59.8732Z" fill="#E6E6E6"/>
<path opacity="0.5" d="M40.3605 48.1692C16.1344 38.2792 23.5824 0.9729 23.5824 0.9729H19.6252V21.1582C19.6252 32.6046 25.6897 42.6243 34.7785 48.1692C35.0681 52.5305 38.6875 56.0001 43.1273 56.0001H48.7093C44.2695 56.0001 40.6501 52.5467 40.3605 48.1692Z" fill="#A2BDCD"/>
</g>
<defs>
<clipPath id="clip0_599_4912">
<rect width="101.555" height="56" fill="white"/>
</clipPath>
</defs>
</svg>
