<svg width="93" height="56" viewBox="0 0 93 56" fill="none" xmlns="http://www.w3.org/2000/svg">
<g clip-path="url(#clip0_303_2010)">
<path d="M44.7809 54.3529H44.6138C26.3052 54.3529 11.41 39.5413 11.41 21.3402V0H77.9966V21.3402C77.9966 39.5413 63.1014 54.3529 44.7928 54.3529H44.7809ZM12.8303 1.43223V21.3402C12.8303 38.7536 27.081 52.9207 44.6019 52.9207H44.7689C62.2898 52.9207 76.5405 38.7536 76.5405 21.3402V1.43223H12.8303Z" fill="#E6E6E6"/>
<g style="mix-blend-mode:lighten" opacity="0.4">
<path d="M17.8431 0.716064H70.0836V22.7843C70.0836 37.202 58.3751 48.8985 43.9693 48.8985C29.5516 48.8985 17.8551 37.1901 17.8551 22.7843V0.716064H17.8431Z" fill="white"/>
</g>
<path d="M17.8311 25.1953C19.2156 38.5031 30.5302 48.8867 44.2915 48.8867C58.0528 48.8867 69.3673 38.5031 70.7518 25.1953H17.8311Z" fill="#6C1300"/>
<path d="M17.8311 16.9481C17.6759 11.4221 28.7279 15.2413 42.2983 12.9975C56.5966 10.6224 70.907 9.83468 70.7399 16.9481H17.8311Z" fill="#FF9557"/>
<path d="M70.7518 16.948H17.8311V25.5055H70.7518V16.948Z" fill="#FDBB97"/>
<g style="mix-blend-mode:multiply" opacity="0.2">
<path d="M25.8158 38.527C22.1875 33.2278 21.2566 26.8066 20.7791 20.5407C20.624 18.5713 20.3375 16.3872 22.7843 15.9337C25.4697 15.4324 28.2745 15.695 30.9838 15.8024C33.8363 15.9098 36.7246 15.8262 39.5532 15.4921C41.6896 15.2414 43.7902 14.8476 45.8908 14.394C51.8346 13.117 57.7067 11.4341 63.7936 11.6131C58.3273 10.8373 50.3188 11.6728 42.2983 12.9976C28.728 15.2414 17.6641 11.4222 17.8312 16.9482V25.5057H17.867C19.0963 36.1161 26.6274 44.8049 36.653 47.7887C32.3086 45.7239 28.5251 42.4895 25.8158 38.527Z" fill="#6C1300"/>
</g>
<g style="mix-blend-mode:lighten" opacity="0.4">
<path d="M62.3972 0.716064V21.4237C62.3972 36.7723 51.5959 49.6027 37.1423 52.8371C39.4458 53.3503 41.8329 53.6368 44.2915 53.6368C62.1943 53.6368 77.2685 40.2097 77.2685 21.3401V0.716064H62.3972Z" fill="white"/>
</g>
<g style="mix-blend-mode:lighten" opacity="0.1">
<path d="M56.1312 19.335V22.9155C56.1312 28.2864 54.2455 33.2037 51.0826 37.0707H61.0724C64.2233 33.2037 66.121 28.2744 66.121 22.9155V19.335H56.1312Z" fill="white"/>
</g>
<path d="M70.5132 56H18.0699C16.3154 56 14.8951 54.5797 14.8951 52.8372H73.6999C73.6999 54.5797 72.2796 56 70.5252 56H70.5132Z" fill="#D9D9D9"/>
<path d="M0 46.5234C1.83802 50.7008 6.03922 53.6368 10.9207 53.6368H77.6624C82.5439 53.6368 86.7451 50.7127 88.5831 46.5234H0Z" fill="#E6E6E6"/>
<path opacity="0.5" d="M28.6087 46.5234H0C1.83802 50.7008 6.03922 53.6368 10.9207 53.6368H39.5294C34.6479 53.6368 30.4467 50.7127 28.6087 46.5234Z" fill="#A2BDCD"/>
<path d="M80.6462 9.79883H77.2685V15.3248H80.6462C84.0358 15.3248 86.8048 18.0699 86.8048 21.4476C86.8048 24.8253 84.0477 27.5704 80.6462 27.5704H76.6837C76.3257 29.4919 75.8005 31.3419 75.1321 33.0964H80.6462C87.1032 33.0964 92.3666 27.8687 92.3666 21.4476C92.3666 15.0264 87.1032 9.79883 80.6462 9.79883Z" fill="#E6E6E6"/>
</g>
<defs>
<clipPath id="clip0_303_2010">
<rect width="92.3666" height="56" fill="white"/>
</clipPath>
</defs>
</svg>
