<svg width="98" height="76" viewBox="0 0 98 76" fill="none" xmlns="http://www.w3.org/2000/svg">
<g clip-path="url(#clip0_599_4853)">
<path d="M97.52 26.0849C97.14 20.0749 91.69 17.1549 86.14 17.8649C83.19 18.2349 80.33 19.2949 77.64 20.7449L76.71 28.8949C78.95 27.1749 81.41 25.7549 84.1 24.8249C86.89 23.8549 91.86 23.3749 91.09 27.8649C90.64 30.4949 88.27 32.9949 86.63 34.9449C83.07 39.1949 78.99 42.9549 74.71 46.4849L73.71 55.2949C78.56 51.5549 83.31 47.6749 87.58 43.2849C91.96 38.7849 97.94 32.8749 97.51 26.0749L97.52 26.0849Z" fill="#E6E6E6"/>
<path d="M72.05 75.3847H25.53L18 9.05469H79.58L72.05 75.3847ZM26.61 74.1847H70.98L78.24 10.2447H19.35L26.61 74.1847Z" fill="#E6E6E6"/>
<path d="M26.45 26.2849L30.66 67.8549H66.92L71.13 26.2849H26.45Z" fill="#FF9557"/>
<path d="M26.66 28.3548H70.93L72.83 9.64478H24.76L26.66 28.3548Z" fill="#FDBB97"/>
<path d="M48.83 4.1048C67.65 -7.6752 72.82 9.6448 72.82 9.6448H24.76C23.73 -0.0451956 44.07 7.0848 48.83 4.1048Z" fill="white"/>
<g style="mix-blend-mode:multiply" opacity="0.2">
<path d="M29.64 12.4249C28.61 2.72488 50.74 11.6249 53.71 6.88488C56 3.20488 58.26 1.05488 60.42 0.00488281C57.3 0.0548828 53.48 1.18488 48.82 4.10488C44.07 7.08488 23.73 -0.0451174 24.76 9.65488L26.45 26.2849L30.67 67.8549H39.87C36.92 61.0549 29.94 41.9149 29.65 12.4249H29.64Z" fill="#6C1300"/>
</g>
<g style="mix-blend-mode:multiply" opacity="0.2">
<path d="M48.96 67.3047C58.3875 67.3047 66.03 66.9197 66.03 66.4447C66.03 65.9698 58.3875 65.5847 48.96 65.5847C39.5325 65.5847 31.89 65.9698 31.89 66.4447C31.89 66.9197 39.5325 67.3047 48.96 67.3047Z" fill="#6C1300"/>
</g>
<g style="mix-blend-mode:lighten" opacity="0.4">
<path d="M67.98 9.65479L61.06 70.6248H25.6L26.07 74.7848H71.51L78.91 9.65479H67.98Z" fill="white"/>
</g>
<g style="mix-blend-mode:lighten" opacity="0.1">
<path d="M53.47 65.5749H64.4L68.12 32.7949H57.2L53.47 65.5749Z" fill="white"/>
</g>
</g>
<defs>
<clipPath id="clip0_599_4853">
<rect width="97.532" height="75.3848" fill="white"/>
</clipPath>
</defs>
</svg>
