<svg width="86" height="102" viewBox="0 0 86 102" fill="none" xmlns="http://www.w3.org/2000/svg">
<g clip-path="url(#clip0_599_4783)">
<path d="M64.89 92.79H20.67L12 0H73.56L64.89 92.79ZM21.76 91.59H63.79L72.24 1.2H13.32L21.76 91.6V91.59Z" fill="#E6E6E6"/>
<g style="mix-blend-mode:lighten" opacity="0.4">
<path d="M64.34 23.1601L66.45 0.600098H19.11L21.21 23.1601H64.34Z" fill="white"/>
</g>
<path d="M70.83 22.6699L70.09 30.5999C74.81 32.8699 78.08 37.6699 78.08 43.2299V43.6299C78.08 50.1099 73.63 55.5799 67.61 57.1699L66.87 65.0899C77.52 63.6799 85.77 54.5999 85.77 43.6299V43.2299C85.77 33.6699 79.5 25.5399 70.83 22.6799V22.6699Z" fill="#E6E6E6"/>
<path d="M20.93 24.8899L24.67 85.2599H60.92L64.67 24.8899H20.93Z" fill="#E8B491"/>
<path d="M42.76 11.8699C20.53 1.2999 20.53 17.4099 20.53 17.4099H65.05C66.24 3.5999 47.56 14.1499 42.76 11.8699Z" fill="white"/>
<path d="M21.4 32.56C32.97 31.81 49.93 30.85 64.31 30.63L65.14 17.23H20.45L21.4 32.56Z" fill="#D39367"/>
<g style="mix-blend-mode:multiply" opacity="0.2">
<path d="M60.03 83.2699C60.03 83.7499 52.39 84.1299 42.96 84.1299C33.53 84.1299 25.89 83.7399 25.89 83.2699C25.89 82.7999 33.53 82.4099 42.96 82.4099C52.39 82.4099 60.03 82.7999 60.03 83.2699Z" fill="#6C1300"/>
</g>
<g style="mix-blend-mode:multiply" opacity="0.2">
<path d="M28.35 37.16L27.4 21.83H27.48C27.48 16.84 22.4 12.27 45.41 13.96C47.74 14.13 54.39 11.23 60.48 10.28C54.9 9.40003 45.89 13.36 42.76 11.87C21.94 1.97003 20.62 15.48 20.53 17.23H20.45L21.4 32.56L24.67 85.26H31.33L28.35 37.16Z" fill="#6C1300"/>
</g>
<g style="mix-blend-mode:lighten" opacity="0.1">
<path d="M49.84 80.1099H60.02L63.49 24.8899H53.31L49.84 80.1099Z" fill="white"/>
</g>
<g style="mix-blend-mode:lighten" opacity="0.4">
<path d="M58.14 0.600098C58.14 0.600098 64.15 16.3801 60.45 44.4501C55.58 81.4001 43.67 88.1701 20.69 86.5801L21.21 92.1901H64.34L72.9 0.600098H58.14Z" fill="white"/>
</g>
<path d="M22.66 91.04H62.89C68.49 91.04 73.04 95.59 73.04 101.19H12.51C12.51 95.59 17.06 91.04 22.66 91.04Z" fill="#E6E6E6"/>
<path opacity="0.5" d="M47.68 91.04H22.72C17.08 91.04 12.51 95.58 12.51 101.19H37.47C37.47 95.58 42.04 91.04 47.68 91.04Z" fill="#A2BDCD"/>
</g>
<defs>
<clipPath id="clip0_599_4783">
<rect width="85.77" height="101.19" fill="white"/>
</clipPath>
</defs>
</svg>
