<svg width="104" height="118" viewBox="0 0 104 118" fill="none" xmlns="http://www.w3.org/2000/svg">
<path d="M52.4 100.51C48.85 100.51 45.47 99.8399 42.35 98.6299V111.86H63.65V98.1299C60.21 99.6599 56.41 100.51 52.4 100.51Z" fill="#E6E6E6"/>
<path d="M52.4 101.11C36.83 101.11 24.17 88.5199 24.17 73.0499L23 21.1499H81.8L80.63 73.0499C80.63 88.5099 67.97 101.1 52.4 101.1V101.11ZM24.23 22.3499L25.37 73.0299C25.37 87.8599 37.49 99.9099 52.4 99.9099C67.31 99.9099 79.43 87.8599 79.43 73.0399L80.57 22.3499H24.23Z" fill="#E6E6E6"/>
<path opacity="0.5" d="M42.35 98.6299V111.86H49.49V100.36C47 100.1 44.6 99.5099 42.35 98.6299Z" fill="#A2BDCD"/>
<path d="M34.04 108.45H70.77C75.88 108.45 80.04 112.6 80.04 117.72H24.77C24.77 112.61 28.92 108.45 34.04 108.45Z" fill="#E6E6E6"/>
<path opacity="0.5" d="M56.87 108.45H34.09C28.94 108.45 24.77 112.6 24.77 117.72H47.55C47.55 112.6 51.72 108.45 56.87 108.45Z" fill="#A2BDCD"/>
<path d="M81.54 35.8H80.87L80.7 43.44H81.55C89.32 43.44 95.65 49.7301 95.65 57.4501V57.85C95.65 65.58 89.33 71.8601 81.55 71.8601H80.06L80.03 73.03C80.03 75.26 79.76 77.42 79.25 79.5H81.54C93.55 79.5 103.32 69.79 103.32 57.85V57.4501C103.32 45.5101 93.55 35.8 81.54 35.8Z" fill="#E6E6E6"/>
<path d="M52.4 101.11C36.83 101.11 24.17 88.5199 24.17 73.0499L23 21.1499H81.8L80.63 73.0499C80.63 88.5099 67.97 101.1 52.4 101.1V101.11ZM24.23 22.3499L25.37 73.0299C25.37 87.8599 37.49 99.9099 52.4 99.9099C67.31 99.9099 79.43 87.8599 79.43 73.0399L80.57 22.3499H24.23Z" fill="#E6E6E6"/>
<path d="M58.29 53.53L54.01 51.7L76.32 0L96.94 4.24L96 8.78L79.11 5.3L58.29 53.53Z" fill="#6C1300"/>
<g style="mix-blend-mode:multiply" opacity="0.2">
<path d="M58.29 53.5301L79.11 5.30006L96 8.78006L96.36 7.02006L78.32 3.31006L56.9 52.9401L58.29 53.5301Z" fill="#6C1300"/>
</g>
<path d="M52.4 92.39C40.25 92.39 30.22 82.75 30 70.64C29.82 58.98 29.63 47.32 29.45 35.65C44.75 35.41 60.06 35.41 75.36 35.65C75.18 47.31 74.99 58.97 74.81 70.64C74.58 82.75 64.55 92.39 52.41 92.39H52.4Z" fill="#72C982"/>
<path d="M75.33 46.02C60.05 45.51 44.76 45.51 29.48 46.02C29.44 40.87 29.4 35.52 29.36 30.37C44.72 29.86 60.08 29.86 75.44 30.37C75.4 35.52 75.36 40.87 75.32 46.02H75.33Z" fill="#71C982"/>
<path d="M75.44 30.3601L75.47 28.6901C75.64 19.7901 68.4 6.64008 59.21 10.3701C52.53 12.4301 45.89 16.6401 39.26 16.8101C33.68 17.2001 29.16 17.4601 29.25 22.6801C29.29 25.2401 29.33 27.8001 29.37 30.3601C44.73 30.1201 60.09 30.1201 75.45 30.3601H75.44Z" fill="#FFFFFE"/>
<path d="M62.18 10.23C61.8 12.39 60.81 14.48 59.36 16.26C57.89 18.03 55.99 19.45 53.95 20.56C51.89 21.65 49.69 22.45 47.44 23.02C45.19 23.57 42.89 23.89 40.59 24.01C42.8 23.37 44.99 22.78 47.13 22.07C49.26 21.33 51.34 20.51 53.28 19.46C55.23 18.43 57.02 17.15 58.55 15.62C60.06 14.07 61.25 12.24 62.18 10.23Z" fill="#CAE6CE"/>
<g style="mix-blend-mode:multiply" opacity="0.2">
<path d="M38.33 22.5702C38.77 17.3602 42.8 17.1102 48.38 16.7602C54.47 16.6302 61.92 9.26018 59.2 10.3702C52.52 12.4302 45.88 16.6402 39.25 16.8102C33.67 17.2002 29.15 17.4602 29.24 22.6802C29.28 25.2402 29.32 27.8002 29.36 30.3602C29.39 32.1202 29.42 33.8902 29.44 35.6502C29.45 36.3102 29.46 36.9702 29.47 37.6402C29.64 48.6402 29.82 59.6402 29.99 70.6402C30.22 82.7502 40.25 92.3902 52.39 92.3902C53.87 92.3902 55.32 92.2402 56.72 91.9702C38.14 87.2502 33.73 77.6202 38.32 22.5702H38.33Z" fill="#6C1300"/>
</g>
<g style="mix-blend-mode:lighten" opacity="0.4">
<path d="M23.62 21.75V25.06C47.52 25.06 70.05 44.32 70.05 68.08V73.04C70.05 86.51 60.29 97.71 47.41 100.05C49.03 100.34 50.7 100.51 52.4 100.51C67.66 100.51 80.03 88.21 80.03 73.05L81.19 21.76H23.62V21.75Z" fill="white"/>
</g>
<g style="mix-blend-mode:lighten" opacity="0.1">
<path d="M63.54 48.8899V68.4499C63.54 74.8199 60.81 80.5399 56.45 84.5499H67.3C70.37 80.7799 72.22 75.9799 72.22 70.7499V48.8899H63.54Z" fill="white"/>
</g>
<g style="mix-blend-mode:multiply" opacity="0.2">
<path d="M52.26 88.5801C56.6948 88.5801 60.29 88.1951 60.29 87.7201C60.29 87.2451 56.6948 86.8601 52.26 86.8601C47.8251 86.8601 44.23 87.2451 44.23 87.7201C44.23 88.1951 47.8251 88.5801 52.26 88.5801Z" fill="#6C1300"/>
</g>
</svg>
