<svg width="131" height="83" viewBox="0 0 131 83" fill="none" xmlns="http://www.w3.org/2000/svg">
<g filter="url(#filter0_d_308_8104)">
<path d="M11.4496 75.2604C11.4496 75.2604 -13.4225 42.6215 30.2132 15.4519C69.8254 -9.22496 106.726 16.1409 115.41 26.959C128.644 43.4617 139.156 92.6412 106.157 73.5662C89.7815 64.1059 97.5559 49.7488 67.8016 47.5181C39.8409 45.4138 34.8257 54.6136 30.5855 65.7758C26.0818 77.6264 15.9505 83.6041 11.4303 75.26L11.4496 75.2604Z" fill="url(#paint0_linear_308_8104)"/>
<path d="M38.7646 54.6296C40.1123 53.7925 41.3614 53.0661 42.6088 52.4332C44.5963 51.458 46.0204 49.6108 46.2481 47.7229C51.1484 8.94145 21.5622 22.843 18.5417 24.3425C18.3852 24.4521 18.2484 24.5432 18.0922 24.634C-3.70117 43.2116 2.49367 59.2295 5.75097 64.8341C6.27501 65.7429 7.84612 65.3595 8.54334 64.1921C19.7385 45.4579 30.6061 54.1055 34.9608 58.8311C35.8793 57.1806 37.2021 55.5938 38.7646 54.6296Z" fill="#D1762A"/>
<path d="M50.6524 47.6349C52.1022 47.5491 52.5413 47.8194 55.0704 47.8469C57.522 47.8918 61.3003 45.0761 62.4214 42.9048C77.054 14.661 54.2567 6.86272 51.2691 6.56449C51.0568 6.5606 50.8638 6.55706 50.6308 6.62773C45.1588 8.08239 39.488 10.9009 36.0942 12.7496C34.9433 13.3842 34.9007 14.6572 36.0176 14.8275C57.8341 18.1868 53.6052 38.2288 50.3818 47.6487C50.459 47.6501 50.5558 47.6331 50.633 47.6346L50.6524 47.6349Z" fill="#D1762A"/>
<path d="M99.5839 64.4912C104.597 60.6677 119.623 49.9652 126.963 54.0523C128.053 54.653 129.42 53.7976 129.306 52.6528C128.698 46.8531 126.529 36.6413 118.648 33.6121C117.939 33.3369 117.085 33.5835 116.706 34.1948C114.259 38.1214 104.567 52.818 94.3877 56.1535C93.3971 56.4725 92.9136 57.5689 93.4789 58.3286C94.6663 59.9239 96.3986 62.3347 97.3316 64.1127C97.7418 64.907 98.8201 65.0766 99.6032 64.4915L99.5839 64.4912Z" fill="#D1762A"/>
<path d="M91.8855 10.3615C92.4717 16.3106 93.4573 38.415 78.9685 49.3146C77.872 50.1376 77.5563 50.5064 78.8252 50.8107C81.0172 51.3191 83.0442 52.4053 85.4207 53.3855C86.0339 53.6402 86.7695 53.5413 87.3186 53.083C92.1023 49.143 112.234 33.7758 112.374 22.988C112.378 22.7821 112.323 22.5937 112.23 22.4047C111.295 20.7203 100.681 10.9159 93.8236 8.91704C92.8825 8.63755 91.8041 9.53572 91.8855 10.3615Z" fill="#D1762A"/>
<path d="M61.5405 2.42525C65.0471 1.79632 68.277 1.51826 73.7599 2.63024C75.0681 2.89772 76.7527 3.69662 78.3391 4.58739C81.8367 6.56221 84.3309 9.54897 85.3847 13.165C87.056 18.9092 87.3494 26.0894 81.0376 30.17C68.5898 38.2222 71.4537 22.0705 68.9858 13.4268C67.5527 8.38005 63.5274 5.70245 60.6931 4.41417C59.7355 3.98451 60.3007 2.64608 61.5405 2.42525Z" fill="#D1762A"/>
<path d="M33.4005 59.6829C29.7145 55.3443 18.2507 44.4565 6.34141 64.2267C5.64419 65.3941 4.05377 65.7771 3.54903 64.8687C0.964166 58.3959 -3.12588 39.2133 16.1016 24.7287C16.2388 24.6188 16.3953 24.5093 16.5514 24.4184C19.6887 22.8648 50.8129 8.27961 43.4354 51.5866C43.3499 52.0347 43.0711 52.4979 42.6406 52.8085C41.467 53.63 38.9002 55.6623 35.976 59.2805C35.2647 60.1667 34.0058 60.3684 33.4198 59.6833L33.4005 59.6829Z" fill="#FFB963"/>
<path d="M55.1016 49.3085C53.6048 48.794 51.0461 48.2788 48.3061 49.2215C47.0625 49.6483 46.0345 48.8427 46.4608 47.7078C49.7291 39.0005 55.4515 17.5435 32.961 14.0782C31.8441 13.9079 31.9061 12.6352 33.057 12.0006C36.4311 10.1703 42.1015 7.37054 47.5349 5.91517C47.7483 5.86288 47.9613 5.82931 48.154 5.85157C51.2574 6.15192 77.0281 9.75219 57.3214 48.3C56.9013 49.0979 55.8886 49.5664 55.0823 49.3081L55.1016 49.3085Z" fill="#FFB963"/>
<path d="M96.4738 63.4981C101.936 59.4018 118.308 47.9934 126.28 52.373C127.465 53.0129 128.969 52.1038 128.836 50.8837C128.158 44.6707 125.77 33.7805 117.217 30.5516C116.45 30.2566 115.519 30.5205 115.101 31.1686C112.456 35.3538 101.917 50.9903 90.8643 54.5346C89.7765 54.8893 89.2533 56.0412 89.8563 56.8578C91.1381 58.5672 93.0021 61.1678 94.0102 63.0596C94.4581 63.9107 95.6325 64.1008 96.4742 63.4793L96.4738 63.4981Z" fill="#FFB963"/>
<path d="M88.3657 9.60379C88.8757 15.4953 89.5945 37.4075 75.1267 48.2139C74.0302 49.0368 74.1579 50.5003 75.4075 50.8042C77.5802 51.3123 80.5006 52.1151 82.8581 53.0762C83.4714 53.3309 84.207 53.232 84.756 52.7737C89.5587 48.8528 110.918 30.7917 111.092 20.2107C111.096 20.0047 111.042 19.8164 110.948 19.6461C110.032 17.9995 104.795 9.81093 90.3035 8.17809C89.3014 8.06608 88.3032 8.79712 88.3657 9.60379Z" fill="#FFB963"/>
<path d="M59.4247 1.97422C62.912 1.34494 68.3093 0.806837 73.7926 1.90009C77.198 2.58063 79.7879 4.55756 81.0319 7.2779C83.6698 12.9649 87.1558 24.0063 78.597 29.5257C66.1692 37.5408 69.1283 21.4657 66.7555 12.8987C65.3607 7.87143 61.3926 5.23234 58.5776 3.94442C57.62 3.51476 58.2045 2.17667 59.444 1.97457L59.4247 1.97422Z" fill="#FFB963"/>
<g style="mix-blend-mode:multiply" opacity="0.55">
<path d="M90.9346 43.3144C88.7625 41.7198 86.3511 40.5329 83.8782 39.5509C67.1053 32.8184 50.6289 33.0975 33.9489 45.5493C24.3347 51.7613 21.7461 63.4221 28.3172 70.4924C29.174 69.0469 29.9363 67.4872 30.5852 65.7944C31.4168 63.6179 32.2659 61.5353 33.3057 59.5874C33.8507 60.4029 35.2054 60.2403 35.9564 59.2987C38.8805 55.6805 41.4663 53.6672 42.6209 52.8267C42.9146 52.6072 43.1128 52.3299 43.2537 52.014C44.4457 51.249 45.3918 50.1986 45.877 49.0085C46.0907 48.9375 46.3041 48.8852 46.5178 48.8142C46.8374 49.2884 47.5095 49.488 48.2868 49.2212C51.0268 48.2786 53.5662 48.7934 55.0823 49.3082C55.8882 49.5852 56.9009 49.1167 57.3214 48.3001C57.502 47.9288 57.6626 47.5945 57.8432 47.2232C60.7797 47.1458 64.0609 47.2246 67.802 47.4992C70.4631 47.6978 72.8133 48.0031 74.9112 48.3787C74.0654 49.2249 74.2351 50.5019 75.3889 50.7665C77.5616 51.2746 80.482 52.0774 82.8395 53.0385C83.3376 53.2537 83.9371 53.2085 84.4444 52.918C84.7702 53.0551 85.0766 53.1919 85.4024 53.329C85.9967 53.5646 86.7126 53.4841 87.2417 53.0629C88.2135 53.7738 89.0881 54.5204 89.8462 55.3024C89.6073 55.6914 89.4243 56.1938 89.6884 56.5359C92.8004 60.583 93.9885 63.1899 94.4077 63.4973C94.8269 63.8047 95.4243 63.8719 95.9682 63.6945C97.5093 66.0081 99.3012 68.3264 101.887 70.5093C103.721 61.0639 100.615 50.3667 90.9356 43.2582L90.9346 43.3144Z" fill="#E9AC63"/>
</g>
<path d="M20.9793 26.2043C18.4548 26.9823 16.0089 28.7359 14.3494 30.7849C12.6891 32.8714 12.0231 35.5005 13.1318 37.1693C14.3343 38.9897 17.225 39.3049 20.0129 38.9064C24.3499 38.2739 28.8881 36.1465 32.3813 33.082C33.4805 32.1093 34.5242 31.0044 34.9904 29.7953C35.4756 28.6053 34.6129 21.9392 20.9603 26.1852L20.9793 26.2043Z" fill="#FAD59A"/>
<path d="M54.7697 10.4876C52.0412 8.69546 47.6207 8.61452 43.8246 10.2872C42.7733 10.755 41.6004 11.5391 41.5067 12.4365C41.4148 13.2404 42.2362 13.7237 42.9826 14.0933C44.6858 14.93 46.4084 15.7671 48.1499 16.6233C49.5277 17.3041 51.1565 17.9896 52.9444 17.3667C54.0909 16.9756 55.0339 16.0936 55.6877 15.1877C56.3415 14.2817 56.804 13.2786 56.6857 12.3585C56.567 11.4572 55.8086 10.6939 54.689 10.6735L54.789 10.4879L54.7697 10.4876Z" fill="#FAD59A"/>
<path d="M67.214 8.95465C67.96 10.392 69.1332 11.7061 70.8582 12.4121C71.6248 12.7258 72.5093 12.9294 73.4562 12.8905C75.6403 12.7806 77.8896 11.2108 78.3858 9.42146C78.8207 7.81838 77.8829 6.30256 76.372 5.50684C74.8801 4.7302 72.8942 4.56271 70.9605 4.71463C69.5293 4.83829 67.822 5.27536 67.1069 6.36752C66.5506 7.21906 66.8233 8.14198 67.2147 8.9172L67.214 8.95465Z" fill="#FAD59A"/>
<path d="M92.2028 12.0159C90.5131 12.547 89.5757 14.1783 89.5303 15.6012C89.4489 17.9414 91.1884 19.9589 93.4822 21.2373C95.7953 22.516 98.6226 23.1298 101.431 23.7245C102.412 23.9298 103.412 24.1541 104.456 24.0983C105.5 24.0425 106.607 23.6881 107.257 22.9694C108.065 22.085 107.991 20.866 107.409 19.9562C106.846 19.0654 105.854 18.4103 104.919 17.7937C102.323 16.1164 99.7269 14.4953 97.0505 13.0226C95.655 12.2477 93.9311 11.4856 92.2025 12.0346L92.2028 12.0159Z" fill="#FAD59A"/>
<path d="M125.966 48.4145C125.871 44.0855 123.843 39.927 120.478 37.0367C119.736 36.4049 118.936 35.8283 117.976 35.511C117.016 35.1937 115.878 35.1541 114.943 35.5679C113.366 36.2883 112.832 38.0582 113.017 39.5602C113.338 42.0389 115.152 44.2077 117.421 45.7666C119.729 47.345 122.491 48.3696 125.272 49.3947C125.678 48.2969 125.983 49.5763 125.966 48.4145Z" fill="#FAD59A"/>
</g>
<defs>
<filter id="filter0_d_308_8104" x="1.21036" y="1.27173" width="128.202" height="80.976" filterUnits="userSpaceOnUse" color-interpolation-filters="sRGB">
<feFlood flood-opacity="0" result="BackgroundImageFix"/>
<feColorMatrix in="SourceAlpha" type="matrix" values="0 0 0 0 0 0 0 0 0 0 0 0 0 0 0 0 0 0 127 0" result="hardAlpha"/>
<feOffset dy="3"/>
<feGaussianBlur stdDeviation="0.05"/>
<feComposite in2="hardAlpha" operator="out"/>
<feColorMatrix type="matrix" values="0 0 0 0 0 0 0 0 0 0 0 0 0 0 0 0 0 0 0.25 0"/>
<feBlend mode="normal" in2="BackgroundImageFix" result="effect1_dropShadow_308_8104"/>
<feBlend mode="normal" in="SourceGraphic" in2="effect1_dropShadow_308_8104" result="shape"/>
</filter>
<linearGradient id="paint0_linear_308_8104" x1="67.1935" y1="6.86626" x2="66.2018" y2="61.4993" gradientUnits="userSpaceOnUse">
<stop offset="0.06" stop-color="#F8A649"/>
<stop offset="1" stop-color="#E68E30"/>
</linearGradient>
</defs>
</svg>
