<svg width="104" height="122" viewBox="0 0 104 122" fill="none" xmlns="http://www.w3.org/2000/svg">
<g clip-path="url(#clip0_599_4725)">
<path d="M52.64 104.071C48.86 104.081 45.26 103.341 41.98 101.981L42.02 115.451L63.32 115.391L63.28 101.921C60.01 103.291 56.41 104.061 52.63 104.071H52.64Z" fill="#E6E6E6"/>
<path d="M52.56 104.671C37.03 104.671 24.38 92.1409 24.33 76.6909L23 24.8109L81.8 24.6309L80.79 76.5309C80.84 91.9909 68.21 104.621 52.64 104.661H52.55L52.56 104.671ZM24.23 26.0009L25.53 76.6709C25.58 91.4709 37.69 103.471 52.56 103.471H52.64C67.54 103.431 79.63 91.3409 79.59 76.5209L80.58 25.8209L24.24 25.9909L24.23 26.0009Z" fill="#E6E6E6"/>
<path opacity="0.5" d="M41.98 101.981L42.02 115.451L49.16 115.431L49.12 103.851C46.62 103.541 44.22 102.911 41.98 101.981Z" fill="#A2BDCD"/>
<path d="M80.32 121.201L25.06 121.371C25.04 116.251 29.2 112.091 34.35 112.081L70.97 111.971C76.12 111.951 80.3 116.091 80.32 121.211V121.201Z" fill="#E6E6E6"/>
<path opacity="0.5" d="M57.14 112.001L34.36 112.071C29.21 112.091 25.05 116.251 25.07 121.361L47.85 121.291C47.83 116.171 51.99 112.011 57.14 112.001Z" fill="#A2BDCD"/>
<path d="M103.44 60.8709C103.4 48.9309 93.6 39.2409 81.59 39.2809H80.92L80.77 46.9309H81.62C89.39 46.9009 95.73 53.1709 95.76 60.9009V61.3009C95.78 69.0309 89.48 75.3309 81.71 75.3509H80.22L80.2 76.5309C80.2 78.7609 79.94 80.9209 79.44 83.0009H81.73C93.74 82.9609 103.48 73.2109 103.45 61.2709V60.8709H103.44Z" fill="#E6E6E6"/>
<path d="M52.56 104.671C37.03 104.671 24.38 92.1409 24.33 76.6909L23 24.8109L81.8 24.6309L80.79 76.5309C80.84 91.9909 68.21 104.621 52.64 104.661H52.55L52.56 104.671ZM24.23 26.0009L25.53 76.6709C25.58 91.4709 37.69 103.471 52.56 103.471H52.64C67.54 103.431 79.63 91.3409 79.59 76.5209L80.58 25.8209L24.24 25.9909L24.23 26.0009Z" fill="#E6E6E6"/>
<path d="M58.39 57.071L54.1 55.261L76.26 3.49097L96.89 7.67097L95.96 12.211L79.06 8.79097L58.39 57.071Z" fill="#6C1300"/>
<g style="mix-blend-mode:multiply" opacity="0.2">
<path d="M58.39 57.071L79.06 8.79103L95.96 12.211L96.32 10.461L78.27 6.80103L56.99 56.491L58.39 57.071Z" fill="#6C1300"/>
</g>
<path d="M29.39 34.001C29.64 47.431 29.89 60.851 30.15 74.281C30.41 86.391 40.47 96.001 52.62 95.961C64.77 95.921 74.77 86.251 74.96 74.141C75.13 60.711 75.3 47.291 75.47 33.861C60.11 33.671 44.75 33.711 29.4 34.001H29.39Z" fill="#6C1300"/>
<path d="M29.39 34.0009C28.62 19.4609 29.64 16.7709 39.47 12.6709C45.24 10.2709 43.97 -0.109132 50.71 0.00086779C56.43 0.380868 76.55 13.3209 75.47 33.8609C60.11 33.6709 44.75 33.7109 29.4 34.0009H29.39Z" fill="white"/>
<g style="mix-blend-mode:multiply" opacity="0.2">
<path d="M50.71 0.000867792C43.98 -0.109132 45.25 10.2709 39.47 12.6609C29.64 16.7609 28.62 19.4509 29.39 33.9909C29.64 47.4209 29.89 60.8409 30.15 74.2709C30.37 85.0109 38.34 93.7809 48.59 95.6009C37.68 88.6609 30.66 45.2109 33.59 28.1809C36.96 9.13087 47.47 18.2409 50.71 0.000867792Z" fill="#6C1300"/>
</g>
<g style="mix-blend-mode:lighten" opacity="0.4">
<path d="M23.76 25.401V28.711H23.77C47.67 28.641 70.11 47.831 70.18 71.591L70.2 76.551C70.24 90.021 60.51 101.251 47.65 103.631C49.27 103.921 50.94 104.081 52.64 104.071C67.9 104.021 80.23 91.691 80.19 76.521L81.19 25.231L23.76 25.401Z" fill="white"/>
</g>
<path d="M45.65 29.0809C44.86 29.2109 43.14 27.5809 44.15 26.8909C44.99 26.3209 46.48 28.5109 45.65 29.0809Z" fill="#6C1300"/>
<path d="M38.98 24.4708C38.19 24.6008 36.47 22.9708 37.48 22.2808C38.32 21.7108 39.81 23.9008 38.98 24.4708Z" fill="#6C1300"/>
<path d="M61.46 27.4809C61.4 28.2709 59.38 29.5409 58.96 28.3909C58.61 27.4509 61.11 26.5309 61.46 27.4809Z" fill="#6C1300"/>
<path d="M65.83 17.771C66.07 18.531 64.68 20.451 63.86 19.551C63.18 18.811 65.15 17.031 65.83 17.771Z" fill="#6C1300"/>
<path d="M54.69 21.3409C54.77 22.1309 53 23.7309 52.39 22.6709C51.88 21.8009 54.18 20.4709 54.69 21.3409Z" fill="#6C1300"/>
<path d="M52.41 14.3908C51.65 14.6308 49.71 13.2508 50.62 12.4308C51.37 11.7508 53.16 13.7108 52.41 14.3908Z" fill="#6C1300"/>
<path d="M53.9701 4.80086C54.0501 5.59086 52.2801 7.19086 51.6701 6.13086C51.1601 5.26086 53.4601 3.93086 53.9701 4.80086Z" fill="#6C1300"/>
<path d="M44.86 16.5708C44.62 17.3308 42.38 18.1208 42.22 16.9108C42.09 15.9108 44.73 15.5708 44.86 16.5708Z" fill="#6C1300"/>
<path d="M62.02 12.6408C61.4 13.1408 59.09 12.5608 59.63 11.4608C60.08 10.5608 62.47 11.7408 62.02 12.6408Z" fill="#6C1300"/>
<g style="mix-blend-mode:lighten" opacity="0.1">
<path d="M64.04 52.3008L64.1 71.8608C64.12 78.2308 61.41 83.9608 57.06 87.9808L67.91 87.9508C70.97 84.1708 72.8 79.3708 72.79 74.1408L72.72 52.2808L64.04 52.3108V52.3008Z" fill="white"/>
</g>
<g style="mix-blend-mode:multiply" opacity="0.2">
<path d="M60.91 92.2909C60.91 92.7709 57.32 93.1609 52.88 93.1809C48.45 93.1909 44.85 92.8209 44.85 92.3409C44.85 91.8609 48.44 91.4709 52.88 91.4509C57.31 91.4409 60.91 91.8109 60.91 92.2909Z" fill="#6C1300"/>
</g>
</g>
<defs>
<clipPath id="clip0_599_4725">
<rect width="103.45" height="121.371" fill="white"/>
</clipPath>
</defs>
</svg>
