<svg width="72" height="104" viewBox="0 0 72 104" fill="none" xmlns="http://www.w3.org/2000/svg">
<g clip-path="url(#clip0_303_2106)">
<path d="M56.41 103.97L14.78 103.96L6.47 19.6499L64.75 19.6599L56.41 103.97Z" fill="#E6E6E6"/>
<path d="M7.13 32.21L12.01 81.74L12.06 82.26H59.14L64.09 32.21H7.13Z" fill="#6C1300"/>
<path d="M26.61 62.2C29.79 62.04 32.94 60.3 34.81 57.32C35.25 56.62 35.63 55.87 36.02 55.07C36.6 53.91 37.2 52.7 38.05 51.57C38.92 50.41 39.99 49.48 41.21 48.8C38.06 47.52 33.59 48.74 30.21 52.1C27.12 55.17 25.82 59.15 26.61 62.21V62.2Z" fill="#FF9557"/>
<path d="M44.07 51.3501C42.92 51.7401 41.79 52.4501 40.88 53.6701C40.22 54.5501 39.72 55.5601 39.18 56.6301C38.76 57.4701 38.33 58.3401 37.8 59.1801C35.7 62.5401 32.35 64.7201 28.77 65.4501C31.88 67.7301 37.16 66.6701 41.01 62.8401C44.6 59.2801 45.77 54.4901 44.06 51.3501H44.07Z" fill="#FF9557"/>
<g style="mix-blend-mode:multiply" opacity="0.5">
<path d="M64.75 19.6599H6.47L6.88 23.8199L57.14 27.0299L53.18 63.9999C51.06 83.7799 34.28 98.7799 14.27 98.7799L14.78 103.96H56.41L58.56 82.2499H59.14L64.09 32.2099H63.51L64.75 19.6599Z" fill="#A2BDCD"/>
</g>
<path d="M60.58 0H10.63V9.31H60.58V0Z" fill="#E6E6E6"/>
<path d="M65.79 8.28003H5.42999V17.59H65.79V8.28003Z" fill="#E6E6E6"/>
<path opacity="0.5" d="M65.79 8.28003H5.42999V17.59H65.79V8.28003Z" fill="#A2BDCD"/>
<path opacity="0.5" d="M65.79 13.23H5.42999V17.59H65.79V13.23Z" fill="#A2BDCD"/>
<path d="M67.05 23.8H4.16C1.86 23.79 0 21.94 0 19.65C0 17.37 1.86 15.52 4.16 15.52H67.05C69.35 15.53 71.21 17.38 71.21 19.67C71.21 21.96 69.35 23.81 67.05 23.81V23.8Z" fill="#E6E6E6"/>
<path opacity="0.5" d="M29.51 19.65C29.51 17.4 31.32 15.57 33.58 15.52H4.16C1.86 15.52 0 17.37 0 19.65C0 21.94 1.86 23.79 4.16 23.79H33.67C31.37 23.79 29.51 21.94 29.51 19.65Z" fill="#A2BDCD"/>
</g>
<defs>
<clipPath id="clip0_303_2106">
<rect width="71.22" height="103.97" fill="white"/>
</clipPath>
</defs>
</svg>
