<svg width="60" height="140" viewBox="0 0 60 140" fill="none" xmlns="http://www.w3.org/2000/svg">
<g clip-path="url(#clip0_599_5163)">
<path d="M53.9605 31.6037C53.9605 33.9659 43.2205 35.8839 29.9705 35.8839C16.7205 35.8839 5.98047 33.9659 5.98047 31.6037C5.98047 31.3211 6.14047 31.0384 6.44047 30.7659C8.63047 28.7974 18.3305 27.3135 29.9705 27.3135C41.6105 27.3135 51.3105 28.7974 53.5005 30.7659C53.8005 31.0384 53.9605 31.311 53.9605 31.6037Z" fill="#E6E6E6"/>
<path d="M6.46044 32.4718C3.44044 29.5746 15.0504 27.8484 16.6904 27.6365C25.1604 26.5563 33.7404 26.5462 42.2204 27.5153C45.3904 27.9393 48.5904 28.4339 51.5904 29.6049C52.4504 30.0289 53.8604 30.5034 53.9504 31.6037C53.9104 31.0283 53.3604 30.7456 52.9504 30.4731C52.6004 30.2914 51.8704 29.9885 51.5004 29.8674C44.3404 27.9595 36.8204 27.8989 29.4604 27.8484C27.1204 27.7576 2.91044 28.2522 6.46044 32.4617V32.4718Z" fill="#FCFCFC"/>
<path d="M11.0905 32.4415C4.19049 30.786 17.3005 29.08 18.7705 29.0699C26.8605 28.3835 35.0105 28.3936 43.1005 29.2213C45.6005 29.6251 48.3005 29.6756 50.5805 30.9475C50.6905 31.0384 50.8205 31.1494 50.8705 31.3614C50.9105 31.5835 50.7805 31.7652 50.6705 31.8661C49.5705 32.6031 48.2005 32.6333 46.9505 32.8251C48.1305 32.5122 49.4605 32.3507 50.4405 31.6239C51.4905 28.7469 -0.239509 28.8983 11.0905 32.4415Z" fill="white"/>
<path d="M58.4405 113.714C58.0705 115.289 57.4405 116.834 56.6505 118.287C52.7205 125.606 44.9805 130.007 36.7305 130.007H23.2105C14.7405 130.007 6.81046 125.354 2.98046 117.722C2.34046 116.44 1.82046 115.097 1.50046 113.724C-0.569541 104.962 -0.429541 68.6312 1.50046 61.1208C3.43046 53.6103 7.43046 47.0689 7.15046 42.1225C7.15046 42.1225 5.64046 42.3244 4.95046 41.2846C4.25046 40.2348 4.25046 37.9433 5.98046 37.5193V31.6038C5.98046 33.9659 16.7205 35.8839 29.9705 35.8839C43.2205 35.8839 53.9605 33.9659 53.9605 31.6038V37.5193C55.6805 37.9332 55.6805 40.2348 54.9905 41.2846C54.3005 42.3244 52.7905 42.1225 52.7905 42.1225C52.5105 47.0588 56.5105 53.6002 58.4405 61.1208C60.3705 68.6312 60.5105 104.962 58.4405 113.724V113.714Z" fill="#E6E6E6"/>
<path d="M27.9805 35.8838C28.3105 35.8838 28.6405 35.8838 28.9705 35.8838C16.1805 35.793 5.97046 33.9154 5.97046 31.6138V33.3198C9.67046 34.834 18.1205 35.8939 27.9705 35.8939L27.9805 35.8838Z" fill="#BCE2EF"/>
<path opacity="0.5" d="M58.4405 61.1108C56.5005 53.6003 52.5105 47.0589 52.7905 42.1125C52.7905 42.1125 54.3005 42.3144 54.9905 41.2746C55.6805 40.2247 55.6805 37.9332 53.9605 37.5093V31.5938C53.9605 32.1994 53.2505 32.7748 51.9705 33.2998V37.5093C53.6905 37.9231 53.6905 40.2247 53.0005 41.2746C52.3105 42.3144 50.8005 42.1125 50.8005 42.1125C50.5205 47.0488 54.5205 53.5902 56.4505 61.1108C58.3805 68.6212 58.5205 104.952 56.4505 113.714C56.0805 115.289 55.4505 116.834 54.6605 118.287C50.7305 125.606 42.9905 130.007 34.7405 130.007H36.7305C44.9805 130.007 52.7205 125.606 56.6505 118.287C57.4405 116.834 58.0705 115.299 58.4405 113.714C60.5105 104.952 60.3705 68.6212 58.4405 61.1108Z" fill="#A2BDCD"/>
<path d="M56.0705 113.149C55.7705 114.411 55.2405 115.754 54.5105 117.116C51.0505 123.547 44.2405 127.554 36.7205 127.554H23.2005C15.5605 127.554 8.47048 123.264 5.14048 116.602C4.55048 115.42 4.11048 114.26 3.85048 113.149C2.35048 106.8 2.07048 83.9451 2.86048 70.4888C3.72048 72.7298 15.5205 74.5065 29.9505 74.5065C44.3805 74.5065 56.1805 72.7298 57.0405 70.4888C57.8305 83.9451 57.5505 106.8 56.0505 113.149H56.0705Z" fill="#A7CF74"/>
<path d="M57.0605 70.4888C56.6805 71.468 54.2205 72.3563 50.3505 73.0528C50.6905 86.1962 50.2805 102.61 49.0405 107.839C48.7405 109.101 48.2105 110.444 47.4805 111.807C44.0205 118.237 37.2105 122.244 29.6905 122.244H16.1705C13.1705 122.244 10.2605 121.578 7.62048 120.367C11.3905 124.839 17.1205 127.564 23.2005 127.564H36.7205C44.2405 127.564 51.0505 123.567 54.5105 117.126C55.2405 115.764 55.7705 114.421 56.0705 113.159C57.5705 106.81 57.8505 83.9551 57.0605 70.4989V70.4888Z" fill="#92C252"/>
<path d="M54.0104 31.6037C53.9304 32.7545 52.6404 33.2491 51.7704 33.6832C46.9704 35.6618 41.7104 35.793 36.6004 35.8839C27.5304 36.328 17.9004 36.9438 9.15042 34.0062C8.22042 33.6226 7.04042 33.2289 6.43042 32.4315C7.31042 32.8756 8.29042 33.2895 9.31042 33.4914C16.2604 34.9551 23.3904 35.1873 30.4804 35.5911C36.5904 35.9444 42.6504 34.8441 48.6504 33.875C50.1204 33.5823 51.6204 33.2895 52.9604 32.6233C53.3804 32.3911 53.8304 32.0983 53.9104 31.6138C53.9104 31.5532 54.0204 31.5532 54.0104 31.6138V31.6037Z" fill="white"/>
<path d="M57.0605 70.4888C56.2005 72.7298 44.4005 74.5065 29.9705 74.5065C15.5405 74.5065 3.74049 72.7298 2.88049 70.4888C2.90049 70.2869 2.90049 70.085 2.92049 69.8831C3.00049 69.7216 3.15049 69.56 3.35049 69.3884C4.09049 68.8029 5.57049 68.2578 7.64049 67.7834C12.5405 66.6629 20.7105 65.936 29.9705 65.936C39.2305 65.936 47.4005 66.6629 52.3005 67.7834C54.3705 68.2578 55.8605 68.7928 56.5905 69.3884C56.7905 69.5499 56.9405 69.7115 57.0205 69.8831C57.0405 70.0749 57.0405 70.2869 57.0605 70.4888Z" fill="#CAEBA0"/>
<path d="M12.1205 39.9521C16.3305 40.366 20.5605 40.5881 24.7805 40.6083C29.0405 40.4973 33.1905 40.3862 37.4505 41.0626C37.5405 41.0727 37.5605 41.214 37.4605 41.2443C33.3005 42.5162 28.9805 42.5263 24.7205 42.0418C20.4705 41.6884 16.2505 41.0525 12.0905 40.1339C11.9905 40.1137 12.0105 39.9421 12.1205 39.9622V39.9521Z" fill="white"/>
<path d="M5.98047 37.5193C19.8305 39.8714 34.0605 40.3256 47.9805 38.3975C49.7105 38.1754 52.2505 37.7818 53.9605 37.5193C38.3505 41.6884 21.5905 41.6783 5.98047 37.5193Z" fill="white"/>
<path d="M52.7905 42.1123C37.9105 45.8877 22.0405 45.8272 7.16052 42.1123C8.78052 42.3243 11.2005 42.6574 12.8505 42.8492C26.1005 44.4947 39.6005 44.1313 52.7905 42.1123Z" fill="white"/>
<path d="M7.18048 34.3999C15.4705 36.6712 23.8105 35.7425 32.1205 37.1659C32.2105 37.176 32.2205 37.3173 32.1205 37.3476C27.9505 38.4984 23.6405 38.3368 19.4405 37.61C15.2405 36.9942 11.0805 36.0857 7.11048 34.5816C7.01048 34.5412 7.06048 34.3797 7.17048 34.41L7.18048 34.3999Z" fill="white"/>
<path opacity="0.5" d="M8.2505 45.1205C8.5005 43.9091 9.6705 42.617 10.8905 42.7987C16.1805 43.6063 29.3705 45.706 42.0905 44.1413C42.0905 44.1413 18.8605 46.3016 13.2105 47.0688C7.5605 47.836 3.9005 61.5446 3.9005 61.5446C3.9005 61.5446 3.1005 56.9515 5.9805 51.2076C7.3405 48.4921 7.9705 46.4833 8.2505 45.1205Z" fill="#A2BDCD"/>
<path d="M8.60046 123.627C11.3305 125.081 14.0805 126.222 17.0005 127.07C21.8905 128.291 27.0005 128.231 32.0105 128.937C24.0105 130.643 14.4505 130.108 8.60046 123.627Z" fill="white"/>
<path d="M11.9805 110.272C12.0405 111.069 11.4205 111.756 10.6105 111.827C9.80047 111.897 9.08047 111.312 9.01047 110.514C8.94047 109.717 9.55047 109.02 10.3805 108.95C11.2105 108.879 11.9205 109.474 11.9805 110.272Z" fill="#92C252"/>
<path d="M20.3105 112.715C20.3105 113.018 20.0805 113.28 19.7705 113.29C19.4605 113.3 19.2005 113.058 19.1905 112.755C19.1805 112.452 19.4205 112.19 19.7305 112.18C20.0405 112.17 20.3005 112.412 20.3105 112.715Z" fill="#92C252"/>
<path d="M7.57048 98.4207C7.60048 98.7236 7.35048 98.9961 7.02048 99.0264C6.69048 99.0567 6.40048 98.8346 6.37048 98.5318C6.34048 98.2289 6.59048 97.9564 6.92048 97.9261C7.25048 97.8958 7.55048 98.1179 7.57048 98.4207Z" fill="#92C252"/>
<path d="M15.2805 103.438C15.3105 104.023 14.8405 104.518 14.2205 104.558C13.6105 104.599 13.0805 104.155 13.0405 103.579C13.0005 103.004 13.4705 102.489 14.1005 102.459C14.7205 102.418 15.2505 102.862 15.2805 103.448V103.438Z" fill="#92C252"/>
<path d="M14.5804 116.944C14.6204 117.53 14.1804 118.025 13.6004 118.065C13.0204 118.105 12.5204 117.671 12.4804 117.086C12.4404 116.5 12.8804 115.996 13.4604 115.955C14.0404 115.915 14.5504 116.359 14.5804 116.934V116.944Z" fill="#92C252"/>
<path d="M26.2505 90.5064C26.2505 91.3039 25.5305 91.9499 24.6405 91.96C23.7505 91.96 23.0205 91.3342 23.0005 90.5367C22.9805 89.7392 23.7005 89.073 24.6105 89.0629C25.5105 89.0528 26.2505 89.6988 26.2505 90.4963V90.5064Z" fill="#92C252"/>
<path d="M48.2904 95.8465C48.2604 96.1493 47.9704 96.3714 47.6304 96.3411C47.2904 96.3108 47.0404 96.0383 47.0704 95.7354C47.1004 95.4326 47.3904 95.2105 47.7304 95.2408C48.0704 95.2711 48.3204 95.5436 48.2904 95.8465Z" fill="#92C252"/>
<path d="M36.4904 79.9675C36.4804 80.2704 36.1804 80.5127 35.8204 80.5026C35.4604 80.4925 35.1804 80.23 35.1904 79.9272C35.1904 79.6243 35.5004 79.3821 35.8604 79.3922C36.2204 79.4022 36.5104 79.6647 36.4904 79.9675Z" fill="#92C252"/>
<path d="M44.0805 85.9536C44.0405 86.5391 43.4605 86.9631 42.8005 86.9227C42.1305 86.8823 41.6205 86.3675 41.6605 85.7921C41.7005 85.2066 42.2705 84.7725 42.9405 84.8129C43.6105 84.8634 44.1205 85.3681 44.0805 85.9536Z" fill="#92C252"/>
<path d="M36.5905 106.143C36.5605 106.729 36.0505 107.173 35.4405 107.153C34.8305 107.133 34.3605 106.638 34.3705 106.052C34.3905 105.467 34.9005 105.013 35.5205 105.043C36.1305 105.063 36.6105 105.558 36.5905 106.143Z" fill="#92C252"/>
<g style="mix-blend-mode:screen" opacity="0.41">
<path d="M14.1604 43.354C14.1604 43.354 14.4704 51.0765 9.24044 60.2627C4.01044 69.4489 8.47044 113.411 9.24044 115.955C9.41044 116.511 10.0004 116.924 10.8204 117.227C15.0504 118.812 19.4904 115.36 19.2904 110.807C18.6704 96.7047 17.6004 66.5921 19.6404 62.3725C23.0104 55.3768 23.0104 44.1818 23.0104 44.1818L14.1604 43.354Z" fill="white"/>
</g>
<g style="mix-blend-mode:screen" opacity="0.22">
<path d="M48.7305 51.46L46.6205 51.7527C44.6305 52.0253 43.4605 54.236 44.4305 56.0127C44.4305 56.0228 44.4405 56.0329 44.4505 56.043C46.1505 59.1521 46.5105 81.9562 46.5905 92.6465C46.6105 96.0989 50.1005 98.5317 53.2405 97.1689C53.8505 96.9065 54.2805 96.5733 54.3905 96.1393C54.8705 94.191 56.5405 60.7774 52.2305 54.0341C52.0705 53.7918 51.9205 53.4789 51.7705 53.1357C51.2505 51.9546 50.0005 51.2682 48.7305 51.4499V51.46Z" fill="white"/>
</g>
<path d="M31.2704 71.1144C31.2704 71.9927 28.8804 72.6993 25.9204 72.6993C22.9604 72.6993 20.5704 71.9927 20.5704 71.1144C20.5704 70.2362 22.9604 69.5295 25.9204 69.5295C28.8804 69.5295 31.2704 70.2362 31.2704 71.1144Z" fill="#A7CF74"/>
<path opacity="0.65" d="M10.5005 60.7775C10.5005 60.7775 8.57046 64.9063 7.96046 67.6621C7.36046 70.418 7.36046 92.9797 8.41046 97.8454C8.41046 97.8454 10.7805 95.7356 10.8005 92.4952C10.8205 89.2649 10.2305 74.254 11.2605 68.5202C12.2905 62.7864 14.1705 53.3579 14.1705 53.3579L10.4905 60.7775H10.5005Z" fill="white"/>
<path opacity="0.41" d="M53.1105 57.9711C53.1105 57.9711 54.8205 61.6355 55.3605 64.0683C55.9005 66.5112 55.8905 86.4988 54.9605 90.8194C54.9605 90.8194 52.8605 88.9518 52.8405 86.0849C52.8205 83.218 53.3505 69.9132 52.4405 64.8355C51.5305 59.7579 49.8605 51.3994 49.8605 51.3994L53.1205 57.9711H53.1105Z" fill="white"/>
<path d="M23.0105 70.2262C24.7105 71.8515 26.5405 72.3159 28.5205 71.3165L35.3305 36.3281H29.6105L23.0205 70.2161L23.0105 70.2262Z" fill="#C5D9AC"/>
<path d="M36.6105 0.289795L29.6005 36.328H35.3205L42.1205 1.38003L36.6105 0.289795Z" fill="#DAEBC5"/>
<path d="M42.1205 1.38006C42.0505 1.73338 40.7605 1.76366 39.2405 1.47091C37.7205 1.16807 36.5405 0.643145 36.6105 0.289829C36.6805 -0.0634864 37.9705 -0.0937706 39.4905 0.198977C41.0105 0.501819 42.1905 1.02675 42.1205 1.38006Z" fill="#C5D9AC"/>
<g style="mix-blend-mode:screen" opacity="0.41">
<path d="M38.3705 5.95293C38.4705 5.428 38.1305 4.92326 37.6205 4.82232C37.1005 4.72137 36.6005 5.06459 36.5005 5.57942L30.5205 36.328H32.4705L38.3805 5.95293H38.3705Z" fill="white"/>
</g>
<g style="mix-blend-mode:screen" opacity="0.41">
<path d="M30.5105 36.3281L25.6105 61.5246C25.5105 62.0495 25.8505 62.5542 26.3605 62.6552C26.8705 62.7561 27.3805 62.4129 27.4805 61.8981L32.4505 36.3281H30.5005H30.5105Z" fill="white"/>
</g>
</g>
<defs>
<clipPath id="clip0_599_5163">
<rect width="59.9409" height="140.007" fill="white"/>
</clipPath>
</defs>
</svg>
