<svg width="93" height="143" viewBox="0 0 93 143" fill="none" xmlns="http://www.w3.org/2000/svg">
<path d="M21.975 50.9022C21.975 50.9022 10.255 48.99 4.50502 55.3541C-1.24498 61.7181 0.675018 96.088 4.50502 102.671C8.33502 109.244 21.975 108.617 21.975 108.617L20.905 98.4285C20.905 98.4285 13.655 100.978 11.425 97.3628C9.19502 93.7575 8.44502 83.3599 8.76502 74.765C9.08502 66.17 8.63502 62.1763 10.685 59.9653C12.525 57.9834 21.015 59.3777 21.015 59.3777C21.015 59.3777 22.935 52.3762 21.975 50.8923V50.9022Z" fill="#E6E6E6"/>
<path opacity="0.5" d="M20.605 51.7389C21.335 52.8742 20.385 57.2464 19.905 59.2283C20.595 59.318 21.025 59.3877 21.025 59.3877C21.025 59.3877 22.945 52.3862 21.985 50.9023C21.985 50.9023 12.605 49.3785 6.51501 53.6112C12.545 50.4242 20.615 51.7289 20.615 51.7289L20.605 51.7389Z" fill="#A2BDCD"/>
<path d="M11.425 97.3729C9.19504 93.7676 8.44504 83.37 8.76504 74.775C9.07504 66.3593 8.66504 62.3557 10.565 60.1248C10.025 60.2841 9.59504 60.5132 9.30504 60.812C7.26504 63.0229 7.70504 67.0167 7.38504 75.6116C7.06504 84.2066 7.81504 94.6042 10.045 98.2095C12.275 101.815 19.525 99.2751 19.525 99.2751L20.505 108.637C21.415 108.647 21.965 108.627 21.965 108.627L20.895 98.4386C20.895 98.4386 13.645 100.988 11.415 97.3729H11.425Z" fill="white"/>
<path d="M70.545 31.4019C70.545 33.7125 59.915 35.5749 46.795 35.5749C33.675 35.5749 23.045 33.7026 23.045 31.4019C23.045 31.1231 23.205 30.8542 23.505 30.5853C25.665 28.6631 35.275 27.219 46.795 27.219C58.315 27.219 67.925 28.6631 70.085 30.5853C70.385 30.8442 70.545 31.1231 70.545 31.4019Z" fill="#E6E6E6"/>
<path d="M23.525 32.2484C20.535 29.4199 32.025 27.7268 33.655 27.5276C42.035 26.4619 50.535 26.4619 58.925 27.4181C62.065 27.8363 65.235 28.3144 68.205 29.4597C69.055 29.8681 70.445 30.3362 70.545 31.4118C70.505 30.854 69.965 30.5752 69.555 30.3063C69.205 30.127 68.495 29.8382 68.115 29.7187C61.035 27.8563 53.585 27.7965 46.295 27.7467C43.985 27.6571 20.015 28.1351 23.525 32.2484Z" fill="white"/>
<path d="M28.115 32.2186C21.305 30.6151 34.145 28.942 35.715 28.9221C43.725 28.2548 51.795 28.2647 59.795 29.0714C62.275 29.4599 64.945 29.5196 67.205 30.7546C67.315 30.8442 67.445 30.9538 67.495 31.1629C67.535 31.382 67.405 31.5613 67.295 31.6509C66.205 32.368 64.845 32.3979 63.605 32.5871C64.775 32.2784 66.085 32.129 67.055 31.4119C68.075 28.6133 16.895 28.7527 28.105 32.2186H28.115Z" fill="white"/>
<path d="M12.275 53.9301C7.945 54.209 4.695 57.0872 4.235 61.2602C3.505 65.3336 3.185 69.4568 2.915 73.5899C2.755 76.3587 2.615 79.1274 2.555 81.9359C1.885 79.1971 1.635 76.3786 1.535 73.57C1.405 69.3472 1.695 65.0747 2.595 60.9315C3.345 56.3004 7.565 53.0039 12.265 53.9301H12.275Z" fill="white"/>
<path d="M6.50504 94.913C7.30504 98.1498 8.54504 100.54 11.345 102.094C11.975 102.502 12.655 102.781 13.325 103.189C8.67504 104.175 4.52504 99.2553 6.51504 94.9031L6.50504 94.913Z" fill="white"/>
<path d="M17.345 107.9C5.59501 108.109 2.94501 101.267 2.38501 90.9292C2.38501 90.8694 2.47501 90.8495 2.48501 90.9192C4.25501 102.831 5.84501 105.012 17.345 107.9Z" fill="white"/>
<path d="M74.975 111.595C74.605 113.139 73.985 114.632 73.205 116.057C69.315 123.208 61.655 127.5 53.485 127.5H40.105C31.715 127.5 23.865 122.959 20.075 115.499C19.445 114.244 18.925 112.939 18.605 111.595C16.565 103.03 16.695 67.5544 18.605 60.2143C20.515 52.8743 24.475 46.4903 24.205 41.66C24.205 41.66 22.705 41.8592 22.025 40.8433C21.335 39.8175 21.335 37.5766 23.045 37.1683V31.3918C23.045 33.7024 33.675 35.5648 46.795 35.5648C59.915 35.5648 70.545 33.6925 70.545 31.3918V37.1683C72.245 37.5766 72.245 39.8175 71.565 40.8433C70.885 41.8592 69.385 41.66 69.385 41.66C69.115 46.4803 73.065 52.8743 74.985 60.2143C76.895 67.5544 77.025 103.03 74.985 111.595H74.975Z" fill="#E6E6E6"/>
<path d="M44.825 35.5748C45.155 35.5748 45.485 35.5748 45.805 35.5748C33.145 35.4852 23.035 33.6527 23.035 31.4019V33.0651C26.695 34.5391 35.065 35.5748 44.815 35.5748H44.825Z" fill="white"/>
<path opacity="0.5" d="M74.975 60.2143C73.055 52.8743 69.105 46.4903 69.375 41.66C69.375 41.66 70.875 41.8592 71.555 40.8433C72.235 39.8175 72.235 37.5766 70.535 37.1683V31.3918C70.535 31.9795 69.835 32.5471 68.565 33.0551V37.1583C70.265 37.5667 70.265 39.8075 69.585 40.8334C68.905 41.8492 67.405 41.65 67.405 41.65C67.135 46.4704 71.085 52.8643 73.005 60.2044C74.915 67.5445 75.045 103.02 73.005 111.585C72.635 113.129 72.015 114.623 71.235 116.047C67.345 123.198 59.685 127.49 51.515 127.49H53.485C61.645 127.49 69.315 123.198 73.205 116.047C73.985 114.623 74.605 113.129 74.975 111.585C77.015 103.02 76.885 67.5445 74.975 60.2044V60.2143Z" fill="#A2BDCD"/>
<path d="M72.635 111.037C72.335 112.262 71.815 113.577 71.095 114.912C67.675 121.196 60.925 125.1 53.485 125.1H40.105C32.545 125.1 25.525 120.907 22.225 114.404C21.635 113.248 21.205 112.113 20.955 111.037C19.475 104.833 19.195 82.5136 19.975 69.3672C20.825 71.5583 32.505 73.2912 46.795 73.2912C61.085 73.2912 72.765 71.5583 73.615 69.3672C74.405 82.5136 74.125 104.833 72.635 111.037Z" fill="#FCE148"/>
<path d="M73.615 69.377C73.245 70.3331 70.795 71.1995 66.975 71.8768C67.305 84.7144 66.905 100.739 65.685 105.848C65.385 107.073 64.865 108.388 64.145 109.722C60.725 116.007 53.975 119.911 46.535 119.911H33.155C30.185 119.911 27.305 119.254 24.695 118.078C28.425 122.441 34.095 125.11 40.115 125.11H53.495C60.935 125.11 67.675 121.206 71.105 114.921C71.825 113.587 72.345 112.282 72.645 111.047C74.125 104.842 74.405 82.5234 73.625 69.377H73.615Z" fill="#FCC719"/>
<path d="M70.595 31.4019C70.515 32.5274 69.235 33.0054 68.375 33.4337C63.625 35.3757 58.415 35.4953 53.355 35.5749C44.375 36.0131 34.835 36.6107 26.185 33.7424C25.265 33.3739 24.095 32.9855 23.485 32.2087C24.365 32.6369 25.335 33.0452 26.335 33.2444C33.215 34.6686 40.275 34.8977 47.295 35.2861C53.335 35.6347 59.345 34.5591 65.285 33.603C66.745 33.3142 68.225 33.0353 69.555 32.378C69.975 32.1489 70.415 31.87 70.495 31.392C70.495 31.3322 70.605 31.3322 70.595 31.392V31.4019Z" fill="white"/>
<path d="M73.615 69.377C72.765 71.5681 61.085 73.301 46.795 73.301C32.505 73.301 20.825 71.5681 19.975 69.377C19.995 69.1778 19.995 68.9786 20.015 68.7894C20.095 68.63 20.235 68.4707 20.435 68.3113C21.165 67.7337 22.635 67.2058 24.685 66.7477C29.535 65.6522 37.625 64.9451 46.795 64.9451C55.965 64.9451 64.055 65.6522 68.905 66.7477C70.955 67.2158 72.425 67.7337 73.155 68.3113C73.355 68.4707 73.495 68.63 73.575 68.7894C73.595 68.9786 73.595 69.1778 73.615 69.377Z" fill="#FCE981"/>
<path d="M29.135 39.5487C33.305 39.9471 37.485 40.1662 41.665 40.1861C45.885 40.0766 49.995 39.967 54.205 40.6343C54.295 40.6443 54.315 40.7837 54.215 40.8136C50.095 42.0685 45.825 42.0784 41.595 41.5904C37.385 41.2418 33.215 40.6244 29.095 39.7181C28.995 39.6981 29.015 39.5288 29.125 39.5487H29.135Z" fill="white"/>
<path d="M23.045 37.1782C36.755 39.4689 50.835 39.9171 64.625 38.0347C66.335 37.8156 68.855 37.4372 70.545 37.1782C55.095 41.2516 38.505 41.2516 23.045 37.1782Z" fill="white"/>
<path d="M69.385 41.6599C54.655 45.3548 38.945 45.2951 24.215 41.6599C25.815 41.8691 28.215 42.1977 29.855 42.377C42.975 43.9805 56.335 43.6319 69.395 41.6599H69.385Z" fill="white"/>
<path d="M24.235 34.1307C28.265 35.0868 32.395 35.5947 36.525 35.8636C40.685 35.9931 44.815 36.0429 48.925 36.8297C49.015 36.8396 49.025 36.979 48.925 37.0089C44.805 38.1443 40.535 37.9849 36.375 37.2679C32.225 36.6504 28.095 35.7939 24.175 34.3C24.075 34.2601 24.125 34.1008 24.235 34.1307Z" fill="white"/>
<path opacity="0.5" d="M25.295 44.5981C25.545 43.413 26.705 42.1481 27.905 42.3274C33.145 43.1142 46.195 45.1658 58.785 43.642C58.785 43.642 35.785 45.7534 30.195 46.5004C24.595 47.2473 20.985 60.6327 20.985 60.6327C20.985 60.6327 20.195 56.151 23.045 50.5439C24.395 47.8947 25.015 45.9327 25.295 44.5981Z" fill="#A2BDCD"/>
<path d="M25.645 121.275C28.355 122.69 31.075 123.805 33.965 124.632C38.805 125.817 43.855 125.767 48.825 126.464C40.905 128.147 31.435 127.62 25.645 121.275Z" fill="#B1D4E0"/>
<path d="M28.995 108.229C29.055 109.005 28.445 109.683 27.635 109.742C26.825 109.802 26.125 109.234 26.055 108.458C25.985 107.681 26.595 106.994 27.415 106.934C28.235 106.864 28.945 107.452 28.995 108.229Z" fill="#FCC719"/>
<path d="M37.235 110.619C37.235 110.918 37.005 111.167 36.695 111.176C36.385 111.186 36.125 110.957 36.115 110.659C36.105 110.36 36.345 110.111 36.655 110.091C36.965 110.081 37.225 110.31 37.235 110.619Z" fill="#FCC719"/>
<path d="M24.625 96.6558C24.655 96.9546 24.405 97.2235 24.075 97.2533C23.745 97.2832 23.455 97.0641 23.425 96.7653C23.395 96.4665 23.645 96.1976 23.975 96.1678C24.305 96.1379 24.595 96.357 24.625 96.6558Z" fill="#FCC719"/>
<path d="M32.255 101.556C32.285 102.123 31.815 102.611 31.205 102.651C30.595 102.691 30.075 102.263 30.035 101.695C29.995 101.128 30.465 100.63 31.085 100.6C31.705 100.56 32.225 100.998 32.255 101.566V101.556Z" fill="#FCC719"/>
<path d="M31.555 114.752C31.595 115.32 31.155 115.808 30.585 115.848C30.015 115.887 29.515 115.459 29.475 114.892C29.435 114.324 29.865 113.826 30.445 113.786C31.025 113.746 31.515 114.174 31.555 114.752Z" fill="#FCC719"/>
<path d="M43.115 88.9274C43.115 89.7042 42.405 90.3416 41.525 90.3516C40.645 90.3516 39.915 89.7441 39.905 88.9672C39.885 88.1904 40.605 87.543 41.495 87.5331C42.385 87.5231 43.115 88.1506 43.115 88.9274Z" fill="#FCC719"/>
<path d="M64.935 94.1459C64.905 94.4447 64.615 94.6638 64.285 94.634C63.955 94.6041 63.705 94.3352 63.735 94.0364C63.765 93.7376 64.055 93.5185 64.385 93.5484C64.715 93.5783 64.965 93.8472 64.935 94.1459Z" fill="#FCC719"/>
<path d="M53.245 78.6293C53.235 78.9281 52.935 79.1571 52.575 79.1472C52.215 79.1372 51.935 78.8783 51.945 78.5795C51.945 78.2807 52.255 78.0516 52.615 78.0616C52.975 78.0716 53.255 78.3305 53.245 78.6293Z" fill="#FCC719"/>
<path d="M60.765 84.4854C60.725 85.0531 60.155 85.4714 59.495 85.4316C58.835 85.3918 58.335 84.8938 58.365 84.3261C58.395 83.7584 58.965 83.3302 59.635 83.37C60.305 83.4098 60.805 83.9178 60.765 84.4854Z" fill="#FCC719"/>
<path d="M53.345 104.195C53.315 104.763 52.815 105.201 52.205 105.181C51.605 105.161 51.135 104.683 51.145 104.115C51.165 103.548 51.675 103.099 52.285 103.129C52.895 103.149 53.365 103.637 53.335 104.205L53.345 104.195Z" fill="#FCC719"/>
<g style="mix-blend-mode:screen" opacity="0.41">
<path d="M31.145 42.8752C31.145 42.8752 31.455 50.4145 26.275 59.3879C21.095 68.3613 25.515 111.296 26.275 113.776C26.445 114.314 27.025 114.722 27.845 115.021C32.035 116.565 36.425 113.198 36.235 108.747C35.615 94.9728 34.565 65.5627 36.575 61.4395C39.905 54.6074 39.905 43.6719 39.905 43.6719L31.145 42.8652V42.8752Z" fill="white"/>
</g>
<g style="mix-blend-mode:screen" opacity="0.22">
<path d="M65.365 50.7929L63.275 51.0817C61.305 51.3506 60.155 53.5018 61.105 55.2447C61.105 55.2547 61.115 55.2646 61.125 55.2746C62.805 58.3122 63.165 80.5814 63.245 91.0288C63.265 94.3951 66.725 96.7754 69.835 95.4408C70.435 95.1819 70.865 94.8532 70.965 94.4349C71.445 92.5327 73.095 59.8958 68.835 53.3126C68.685 53.0736 68.535 52.7648 68.385 52.4362C67.875 51.2809 66.635 50.6136 65.375 50.7829L65.365 50.7929Z" fill="white"/>
</g>
<path d="M42.795 71.5482C45.7166 71.5482 48.085 70.8526 48.085 69.9946C48.085 69.1365 45.7166 68.4409 42.795 68.4409C39.8734 68.4409 37.505 69.1365 37.505 69.9946C37.505 70.8526 39.8734 71.5482 42.795 71.5482Z" fill="#FCC719"/>
<path opacity="0.65" d="M27.525 59.8957C27.525 59.8957 25.615 63.9293 25.015 66.6183C24.415 69.3073 24.425 91.3375 25.465 96.0981C25.465 96.0981 27.805 94.0365 27.835 90.8794C27.855 87.7223 27.265 73.062 28.285 67.4549C29.305 61.8577 31.175 52.6453 31.175 52.6453L27.535 59.8857L27.525 59.8957Z" fill="white"/>
<path opacity="0.41" d="M69.705 57.1569C69.705 57.1569 71.405 60.7323 71.935 63.1126C72.465 65.4929 72.465 85.0233 71.535 89.2361C71.535 89.2361 69.455 87.4136 69.435 84.605C69.415 81.7965 69.935 68.8194 69.035 63.8496C68.135 58.8899 66.475 50.7231 66.475 50.7231L69.695 57.137L69.705 57.1569Z" fill="white"/>
<path opacity="0.72" d="M39.905 69.118C41.595 70.7015 43.395 71.1597 45.365 70.1836L52.105 36.0129H46.435L39.905 69.118Z" fill="#FE9487"/>
<path d="M53.375 0.81665L46.435 36.0132H52.105L58.835 1.88231L53.375 0.81665Z" fill="#FEE5E1"/>
<path opacity="0.72" d="M58.825 1.88221C58.755 2.22083 57.485 2.26067 55.975 1.96188C54.465 1.6631 53.305 1.15517 53.365 0.806595C53.435 0.467975 54.705 0.428138 56.215 0.726919C57.725 1.0257 58.885 1.53363 58.825 1.88221Z" fill="#FE9487"/>
<mask id="mask0_599_5030" style="mask-type:luminance" maskUnits="userSpaceOnUse" x="39" y="0" width="20" height="71">
<path d="M45.355 70.1838C43.395 71.1599 41.585 70.7017 39.895 69.1182L53.375 0.81665L58.835 1.88231L45.365 70.1838H45.355Z" fill="white"/>
</mask>
<g mask="url(#mask0_599_5030)">
<path d="M48.615 -1.43408C48.615 -1.43408 51.105 5.02957 62.815 7.99747" stroke="#FCE148" stroke-width="2.15" stroke-linecap="round" stroke-linejoin="round"/>
<path d="M47.265 5.42798C47.265 5.42798 49.755 11.8916 61.465 14.8595" stroke="#FCE148" stroke-width="2.15" stroke-linecap="round" stroke-linejoin="round"/>
<path d="M45.915 12.29C45.915 12.29 48.405 18.7537 60.115 21.7216" stroke="#FCE148" stroke-width="2.15" stroke-linecap="round" stroke-linejoin="round"/>
<path d="M44.555 19.1521C44.555 19.1521 47.045 25.6157 58.755 28.5836" stroke="#FCE148" stroke-width="2.15" stroke-linecap="round" stroke-linejoin="round"/>
<path d="M43.205 26.0139C43.205 26.0139 45.695 32.4776 57.405 35.4455" stroke="#FCE148" stroke-width="2.15" stroke-linecap="round" stroke-linejoin="round"/>
<path d="M41.855 32.876C41.855 32.876 44.345 39.3496 56.055 42.3075" stroke="#FCC719" stroke-width="2.15" stroke-linecap="round" stroke-linejoin="round"/>
<path d="M40.495 39.738C40.495 39.738 42.985 46.2017 54.695 49.1696" stroke="#FCC719" stroke-width="2.15" stroke-linecap="round" stroke-linejoin="round"/>
<path d="M39.145 46.6001C39.145 46.6001 41.635 53.0637 53.345 56.0316" stroke="#FCC719" stroke-width="2.15" stroke-linecap="round" stroke-linejoin="round"/>
<path d="M37.795 53.4622C37.795 53.4622 40.285 59.9258 51.995 62.8937" stroke="#FCC719" stroke-width="2.15" stroke-linecap="round" stroke-linejoin="round"/>
<path d="M36.435 60.3242C36.435 60.3242 38.925 66.7978 50.635 69.7558" stroke="#FCC719" stroke-width="2.15" stroke-linecap="round" stroke-linejoin="round"/>
</g>
<g style="mix-blend-mode:screen" opacity="0.41">
<path d="M55.115 6.34396C55.215 5.83603 54.885 5.33806 54.365 5.23847C53.855 5.13888 53.355 5.46754 53.255 5.98542L47.335 36.013H49.265L55.115 6.34396Z" fill="white"/>
</g>
<g style="mix-blend-mode:screen" opacity="0.41">
<path d="M47.335 36.0131L42.485 60.6228C42.385 61.1307 42.715 61.6287 43.235 61.7283C43.745 61.8279 44.245 61.4992 44.345 60.9813L49.265 36.0032H47.335V36.0131Z" fill="white"/>
</g>
</svg>
