<svg width="92" height="142" viewBox="0 0 92 142" fill="none" xmlns="http://www.w3.org/2000/svg">
<path d="M21.0979 50.3766C21.0979 50.3766 9.37788 48.4644 3.62788 54.8285C-2.12212 61.1925 -0.202118 95.5624 3.62788 102.146C7.45788 108.719 21.0979 108.091 21.0979 108.091L20.0279 97.9028C20.0279 97.9028 12.7779 100.452 10.5479 96.8372C8.31788 93.2319 7.56788 82.8343 7.88788 74.2393C8.20788 65.6444 7.75788 61.6506 9.80788 59.4397C11.6479 57.4577 20.1379 58.8521 20.1379 58.8521C20.1379 58.8521 22.0579 51.8506 21.0979 50.3666V50.3766Z" fill="#E6E6E6"/>
<path opacity="0.5" d="M19.7279 51.2132C20.4579 52.3486 19.5079 56.7208 19.0279 58.7027C19.7179 58.7923 20.1479 58.862 20.1479 58.862C20.1479 58.862 22.0679 51.8606 21.1079 50.3766C21.1079 50.3766 11.7279 48.8528 5.63794 53.0856C11.6679 49.8986 19.7379 51.2033 19.7379 51.2033L19.7279 51.2132Z" fill="#A2BDCD"/>
<path d="M10.548 96.8473C8.31796 93.242 7.56796 82.8443 7.88796 74.2494C8.19796 65.8337 7.78796 61.83 9.68796 59.5991C9.14796 59.7585 8.71796 59.9875 8.42796 60.2863C6.38796 62.4973 6.82796 66.491 6.50796 75.086C6.18796 83.6809 6.93796 94.0786 9.16796 97.6839C11.398 101.289 18.648 98.7495 18.648 98.7495L19.628 108.111C20.538 108.121 21.088 108.101 21.088 108.101L20.018 97.9129C20.018 97.9129 12.768 100.463 10.538 96.8473H10.548Z" fill="white"/>
<path d="M69.6678 30.8763C69.6678 33.1869 59.0378 35.0493 45.9178 35.0493C32.7978 35.0493 22.1678 33.1769 22.1678 30.8763C22.1678 30.5974 22.3278 30.3285 22.6278 30.0596C24.7878 28.1375 34.3978 26.6934 45.9178 26.6934C57.4378 26.6934 67.0478 28.1375 69.2078 30.0596C69.5078 30.3186 69.6678 30.5974 69.6678 30.8763Z" fill="#E6E6E6"/>
<path d="M22.6479 31.7227C19.6579 28.8943 31.1479 27.2012 32.7779 27.002C41.1579 25.9363 49.6579 25.9363 58.0479 26.8924C61.1879 27.3107 64.3579 27.7888 67.3279 28.9341C68.1779 29.3424 69.5679 29.8105 69.6679 30.8861C69.6279 30.3284 69.0879 30.0495 68.6779 29.7806C68.3279 29.6014 67.6179 29.3125 67.2379 29.193C60.1579 27.3306 52.7079 27.2709 45.4179 27.2211C43.1079 27.1314 19.1379 27.6095 22.6479 31.7227Z" fill="white"/>
<path d="M27.2379 31.693C20.4279 30.0895 33.2679 28.4163 34.8379 28.3964C42.8479 27.7291 50.9179 27.7391 58.9179 28.5458C61.3979 28.9342 64.0679 28.994 66.3279 30.2289C66.4379 30.3186 66.5679 30.4281 66.6179 30.6373C66.6579 30.8564 66.5279 31.0357 66.4179 31.1253C65.3279 31.8424 63.9679 31.8722 62.7279 32.0615C63.8979 31.7527 65.2079 31.6033 66.1779 30.8863C67.1979 28.0877 16.0179 28.2271 27.2279 31.693H27.2379Z" fill="white"/>
<path d="M16.4679 107.374C4.71793 107.583 2.06793 100.741 1.50793 90.4035C1.50793 90.3438 1.59793 90.3239 1.60793 90.3936C3.37793 102.305 4.96793 104.486 16.4679 107.374Z" fill="white"/>
<path d="M74.0979 111.069C73.7279 112.613 73.1079 114.107 72.3279 115.531C68.4379 122.682 60.7779 126.974 52.6079 126.974H39.2279C30.8379 126.974 22.9879 122.433 19.1979 114.973C18.5679 113.718 18.0479 112.414 17.7279 111.069C15.6879 102.504 15.8179 67.0288 17.7279 59.6887C19.6379 52.3486 23.5979 45.9647 23.3279 41.1344C23.3279 41.1344 21.8279 41.3335 21.1479 40.3177C20.4579 39.2919 20.4579 37.051 22.1679 36.6427V30.8662C22.1679 33.1768 32.7979 35.0392 45.9179 35.0392C59.0379 35.0392 69.6679 33.1668 69.6679 30.8662V36.6427C71.3679 37.051 71.3679 39.2919 70.6879 40.3177C70.0079 41.3335 68.5079 41.1344 68.5079 41.1344C68.2379 45.9547 72.1879 52.3486 74.1079 59.6887C76.0179 67.0288 76.1479 102.504 74.1079 111.069H74.0979Z" fill="#E6E6E6"/>
<path d="M43.9478 35.0492C44.2778 35.0492 44.6078 35.0492 44.9278 35.0492C32.2678 34.9596 22.1578 33.127 22.1578 30.8762V32.5394C25.8178 34.0134 34.1878 35.0492 43.9378 35.0492H43.9478Z" fill="white"/>
<path opacity="0.5" d="M74.0978 59.6887C72.1778 52.3486 68.2278 45.9647 68.4978 41.1343C68.4978 41.1343 69.9978 41.3335 70.6778 40.3177C71.3578 39.2919 71.3578 37.051 69.6578 36.6427V30.8662C69.6578 31.4538 68.9578 32.0215 67.6878 32.5294V36.6327C69.3878 37.041 69.3878 39.2819 68.7078 40.3077C68.0278 41.3236 66.5278 41.1244 66.5278 41.1244C66.2578 45.9447 70.2078 52.3387 72.1278 59.6787C74.0378 67.0188 74.1678 102.494 72.1278 111.059C71.7578 112.603 71.1378 114.097 70.3578 115.521C66.4678 122.672 58.8078 126.964 50.6378 126.964H52.6078C60.7678 126.964 68.4378 122.672 72.3278 115.521C73.1078 114.097 73.7278 112.603 74.0978 111.059C76.1378 102.494 76.0078 67.0188 74.0978 59.6787V59.6887Z" fill="#A2BDCD"/>
<path d="M71.7579 110.512C71.4579 111.737 70.9379 113.051 70.2179 114.386C66.7979 120.67 60.0479 124.574 52.6079 124.574H39.2279C31.6679 124.574 24.6479 120.381 21.3479 113.878C20.7579 112.723 20.3279 111.587 20.0779 110.512C18.5979 104.307 18.3179 81.988 19.0979 68.8416C19.9479 71.0326 31.6279 72.7655 45.9179 72.7655C60.2079 72.7655 71.8879 71.0326 72.7379 68.8416C73.5279 81.988 73.2479 104.307 71.7579 110.512Z" fill="#EC5E5D"/>
<path d="M72.7379 68.8513C72.3679 69.8074 69.9179 70.6739 66.0979 71.3511C66.4279 84.1888 66.0279 100.213 64.8079 105.323C64.5079 106.548 63.9879 107.862 63.2679 109.197C59.8479 115.481 53.0979 119.385 45.6579 119.385H32.2779C29.3079 119.385 26.4279 118.728 23.8179 117.553C27.5479 121.915 33.2179 124.584 39.2379 124.584H52.6179C60.0579 124.584 66.7979 120.68 70.2279 114.396C70.9479 113.061 71.4679 111.756 71.7679 110.521C73.2479 104.317 73.5279 81.9977 72.7479 68.8513H72.7379Z" fill="#DB4847"/>
<path d="M69.7179 30.8763C69.6379 32.0017 68.3579 32.4798 67.4979 32.908C62.7479 34.8501 57.5379 34.9696 52.4779 35.0493C43.4979 35.4875 33.9579 36.0851 25.3079 33.2168C24.3879 32.8483 23.2179 32.4599 22.6079 31.683C23.4879 32.1113 24.4579 32.5196 25.4579 32.7188C32.3379 34.143 39.3979 34.3721 46.4179 34.7605C52.4579 35.1091 58.4679 34.0334 64.4079 33.0773C65.8679 32.7885 67.3479 32.5097 68.6779 31.8523C69.0979 31.6233 69.5379 31.3444 69.6179 30.8664C69.6179 30.8066 69.7279 30.8066 69.7179 30.8664V30.8763Z" fill="white"/>
<path d="M72.7379 68.8514C71.8879 71.0424 60.2079 72.7754 45.9179 72.7754C31.6279 72.7754 19.9479 71.0424 19.0979 68.8514C19.1179 68.6522 19.1179 68.453 19.1379 68.2638C19.2179 68.1044 19.3579 67.9451 19.5579 67.7857C20.2879 67.2081 21.7579 66.6802 23.8079 66.2221C28.6579 65.1265 36.7479 64.4194 45.9179 64.4194C55.0879 64.4194 63.1779 65.1265 68.0279 66.2221C70.0779 66.6902 71.5479 67.2081 72.2779 67.7857C72.4779 67.9451 72.6179 68.1044 72.6979 68.2638C72.7179 68.453 72.7179 68.6522 72.7379 68.8514Z" fill="#F07978"/>
<path d="M28.2579 39.0231C32.4279 39.4215 36.6079 39.6406 40.7879 39.6605C45.0079 39.551 49.1179 39.4414 53.3279 40.1087C53.4179 40.1186 53.4379 40.2581 53.3379 40.288C49.2179 41.5428 44.9479 41.5528 40.7179 41.0648C36.5079 40.7162 32.3379 40.0987 28.2179 39.1924C28.1179 39.1725 28.1379 39.0032 28.2479 39.0231H28.2579Z" fill="white"/>
<path d="M22.1678 36.6526C35.8778 38.9432 49.9578 39.3914 63.7478 37.5091C65.4578 37.29 67.9778 36.9115 69.6678 36.6526C54.2178 40.726 37.6278 40.726 22.1678 36.6526Z" fill="white"/>
<path d="M68.5079 41.1343C53.7779 44.8292 38.0679 44.7695 23.3379 41.1343C24.9379 41.3434 27.3379 41.6721 28.9779 41.8514C42.0979 43.4548 55.4579 43.1062 68.5179 41.1343H68.5079Z" fill="white"/>
<path d="M23.3579 33.605C27.3879 34.5611 31.5179 35.0691 35.6479 35.338C39.8079 35.4674 43.9379 35.5172 48.0479 36.304C48.1379 36.314 48.1479 36.4534 48.0479 36.4833C43.9279 37.6187 39.6579 37.4593 35.4979 36.7422C31.3479 36.1248 27.2179 35.2682 23.2979 33.7743C23.1979 33.7345 23.2479 33.5751 23.3579 33.605Z" fill="white"/>
<path opacity="0.5" d="M24.4179 44.0725C24.6679 42.8873 25.8279 41.6225 27.0279 41.8017C32.2679 42.5885 45.3179 44.6402 57.9079 43.1164C57.9079 43.1164 34.9079 45.2278 29.3179 45.9747C23.7179 46.7217 20.1079 60.1071 20.1079 60.1071C20.1079 60.1071 19.3179 55.6254 22.1679 50.0182C23.5179 47.369 24.1379 45.407 24.4179 44.0725Z" fill="#A2BDCD"/>
<path d="M24.7678 120.75C27.4778 122.164 30.1978 123.279 33.0878 124.106C37.9278 125.291 42.9778 125.241 47.9478 125.939C40.0278 127.622 30.5578 127.094 24.7678 120.75Z" fill="#B1D4E0"/>
<path d="M28.1178 107.703C28.1778 108.48 27.5678 109.157 26.7578 109.217C25.9478 109.277 25.2478 108.709 25.1778 107.932C25.1078 107.155 25.7178 106.468 26.5378 106.408C27.3578 106.338 28.0678 106.926 28.1178 107.703Z" fill="#DB4847"/>
<path d="M36.3578 110.093C36.3578 110.392 36.1278 110.641 35.8178 110.651C35.5078 110.661 35.2479 110.432 35.2379 110.133C35.2279 109.834 35.4678 109.585 35.7778 109.565C36.0878 109.555 36.3478 109.784 36.3578 110.093Z" fill="#DB4847"/>
<path d="M23.7479 96.1301C23.7779 96.4289 23.5279 96.6978 23.1979 96.7277C22.8679 96.7576 22.5779 96.5385 22.5479 96.2397C22.5179 95.9409 22.7679 95.672 23.0979 95.6421C23.4279 95.6123 23.7179 95.8314 23.7479 96.1301Z" fill="#DB4847"/>
<path d="M31.3779 101.03C31.4079 101.598 30.9379 102.086 30.3279 102.126C29.7179 102.166 29.1979 101.737 29.1579 101.17C29.1179 100.602 29.5879 100.104 30.2079 100.074C30.8279 100.034 31.3479 100.472 31.3779 101.04V101.03Z" fill="#DB4847"/>
<path d="M30.6778 114.226C30.7178 114.794 30.2778 115.282 29.7078 115.322C29.1378 115.362 28.6378 114.934 28.5978 114.366C28.5578 113.798 28.9878 113.3 29.5678 113.26C30.1478 113.221 30.6378 113.649 30.6778 114.226Z" fill="#DB4847"/>
<path d="M42.2379 88.4018C42.2379 89.1786 41.5279 89.816 40.6479 89.826C39.7679 89.826 39.0379 89.2184 39.0279 88.4416C39.0079 87.6648 39.7279 87.0174 40.6179 87.0074C41.5079 86.9975 42.2379 87.6249 42.2379 88.4018Z" fill="#DB4847"/>
<path d="M64.0578 93.6203C64.0278 93.9191 63.7378 94.1382 63.4078 94.1083C63.0778 94.0784 62.8279 93.8095 62.8579 93.5108C62.8879 93.212 63.1778 92.9929 63.5078 93.0227C63.8378 93.0526 64.0878 93.3215 64.0578 93.6203Z" fill="#DB4847"/>
<path d="M52.3678 78.1036C52.3578 78.4024 52.0578 78.6315 51.6978 78.6215C51.3378 78.6116 51.0578 78.3526 51.0678 78.0539C51.0678 77.7551 51.3778 77.526 51.7378 77.536C52.0978 77.5459 52.3778 77.8049 52.3678 78.1036Z" fill="#DB4847"/>
<path d="M59.8879 83.9598C59.8479 84.5275 59.2779 84.9458 58.6179 84.906C57.9579 84.8661 57.4579 84.3682 57.4879 83.8005C57.5179 83.2328 58.0879 82.8045 58.7579 82.8444C59.4279 82.8842 59.9279 83.3921 59.8879 83.9598Z" fill="#DB4847"/>
<path d="M52.4679 103.669C52.4379 104.237 51.9379 104.675 51.3279 104.655C50.7279 104.635 50.2579 104.157 50.2679 103.59C50.2879 103.022 50.7979 102.574 51.4079 102.604C52.0179 102.624 52.4879 103.112 52.4579 103.679L52.4679 103.669Z" fill="#DB4847"/>
<g style="mix-blend-mode:screen" opacity="0.41">
<path d="M30.2678 42.3496C30.2678 42.3496 30.5778 49.8888 25.3978 58.8622C20.2178 67.8357 24.6378 110.771 25.3978 113.251C25.5678 113.788 26.1478 114.197 26.9678 114.495C31.1578 116.039 35.5478 112.673 35.3578 108.221C34.7378 94.4472 33.6878 65.0371 35.6978 60.9139C39.0278 54.0817 39.0278 43.1463 39.0278 43.1463L30.2678 42.3396V42.3496Z" fill="white"/>
</g>
<g style="mix-blend-mode:screen" opacity="0.22">
<path d="M64.4879 50.2672L62.3979 50.5561C60.4279 50.825 59.2779 52.9762 60.2279 54.7191C60.2279 54.729 60.2379 54.739 60.2479 54.749C61.9279 57.7866 62.2879 80.0558 62.3679 90.5032C62.3879 93.8695 65.8479 96.2498 68.9579 94.9152C69.5579 94.6563 69.9879 94.3276 70.0879 93.9093C70.5679 92.0071 72.2179 59.3701 67.9579 52.787C67.8079 52.5479 67.6579 52.2392 67.5079 51.9105C66.9979 50.7552 65.7579 50.088 64.4979 50.2573L64.4879 50.2672Z" fill="white"/>
</g>
<path d="M41.9179 71.0226C44.8395 71.0226 47.2079 70.327 47.2079 69.4689C47.2079 68.6109 44.8395 67.9153 41.9179 67.9153C38.9963 67.9153 36.6279 68.6109 36.6279 69.4689C36.6279 70.327 38.9963 71.0226 41.9179 71.0226Z" fill="#DB4847"/>
<path opacity="0.65" d="M26.6478 59.3701C26.6478 59.3701 24.7378 63.4036 24.1378 66.0927C23.5378 68.7817 23.5478 90.8119 24.5878 95.5725C24.5878 95.5725 26.9278 93.5109 26.9578 90.3538C26.9778 87.1966 26.3878 72.5364 27.4078 66.9292C28.4278 61.3321 30.2978 52.1196 30.2978 52.1196L26.6578 59.3601L26.6478 59.3701Z" fill="white"/>
<path opacity="0.41" d="M68.8279 56.6313C68.8279 56.6313 70.5279 60.2067 71.0579 62.587C71.5879 64.9673 71.5879 84.4977 70.6579 88.7105C70.6579 88.7105 68.5779 86.8879 68.5579 84.0794C68.5379 81.2708 69.0579 68.2937 68.1579 63.324C67.2579 58.3642 65.5979 50.1975 65.5979 50.1975L68.8179 56.6114L68.8279 56.6313Z" fill="white"/>
<path opacity="0.72" d="M39.0279 68.5923C40.7179 70.1759 42.5179 70.634 44.4879 69.658L51.2279 35.4873H45.5579L39.0279 68.5923Z" fill="#FE9487"/>
<path d="M52.4979 0.291016L45.5579 35.4875H51.2279L57.9579 1.35667L52.4979 0.291016Z" fill="#FEE5E1"/>
<path opacity="0.72" d="M57.9479 1.35657C57.8779 1.69519 56.6079 1.73503 55.0979 1.43625C53.5879 1.13747 52.4279 0.629539 52.4879 0.28096C52.5579 -0.0576597 53.8279 -0.0974972 55.3379 0.201285C56.8479 0.500067 58.0079 1.008 57.9479 1.35657Z" fill="#FE9487"/>
<mask id="mask0_604_6450" style="mask-type:luminance" maskUnits="userSpaceOnUse" x="39" y="0" width="19" height="71">
<path d="M44.4779 69.6582C42.5179 70.6342 40.7079 70.1761 39.0179 68.5926L52.4979 0.291016L57.9579 1.35667L44.4879 69.6582H44.4779Z" fill="white"/>
</mask>
<g mask="url(#mask0_604_6450)">
<path d="M47.7379 -1.95972C47.7379 -1.95972 50.2279 4.50393 61.9379 7.47183" stroke="#FCE148" stroke-width="2.15" stroke-linecap="round" stroke-linejoin="round"/>
<path d="M46.3879 4.90234C46.3879 4.90234 48.8779 11.366 60.5879 14.3339" stroke="#FCE148" stroke-width="2.15" stroke-linecap="round" stroke-linejoin="round"/>
<path d="M45.0378 11.7644C45.0378 11.7644 47.5278 18.2281 59.2378 21.196" stroke="#FCE148" stroke-width="2.15" stroke-linecap="round" stroke-linejoin="round"/>
<path d="M43.6779 18.6265C43.6779 18.6265 46.1679 25.0901 57.8779 28.058" stroke="#FCE148" stroke-width="2.15" stroke-linecap="round" stroke-linejoin="round"/>
<path d="M42.3279 25.4883C42.3279 25.4883 44.8179 31.9519 56.5279 34.9198" stroke="#FCE148" stroke-width="2.15" stroke-linecap="round" stroke-linejoin="round"/>
<path d="M40.9778 32.3503C40.9778 32.3503 43.4678 38.824 55.1778 41.7819" stroke="#FCC719" stroke-width="2.15" stroke-linecap="round" stroke-linejoin="round"/>
<path d="M39.6179 39.2124C39.6179 39.2124 42.1079 45.6761 53.8179 48.644" stroke="#FCC719" stroke-width="2.15" stroke-linecap="round" stroke-linejoin="round"/>
<path d="M38.2679 46.0745C38.2679 46.0745 40.7579 52.5381 52.4679 55.506" stroke="#FCC719" stroke-width="2.15" stroke-linecap="round" stroke-linejoin="round"/>
<path d="M36.9178 52.9365C36.9178 52.9365 39.4078 59.4002 51.1178 62.3681" stroke="#FCC719" stroke-width="2.15" stroke-linecap="round" stroke-linejoin="round"/>
<path d="M35.5579 59.7986C35.5579 59.7986 38.0479 66.2722 49.7579 69.2301" stroke="#FCC719" stroke-width="2.15" stroke-linecap="round" stroke-linejoin="round"/>
</g>
<g style="mix-blend-mode:screen" opacity="0.41">
<path d="M54.2379 5.81833C54.3379 5.3104 54.0079 4.81243 53.4879 4.71283C52.9779 4.61324 52.4779 4.9419 52.3779 5.45979L46.4579 35.4874H48.3879L54.2379 5.81833Z" fill="white"/>
</g>
<g style="mix-blend-mode:screen" opacity="0.41">
<path d="M46.4579 35.4875L41.6079 60.0972C41.5079 60.6051 41.8379 61.1031 42.3579 61.2027C42.8679 61.3023 43.3679 60.9736 43.4679 60.4557L48.3879 35.4775H46.4579V35.4875Z" fill="white"/>
</g>
</svg>
