<svg width="93" height="56" viewBox="0 0 93 56" fill="none" xmlns="http://www.w3.org/2000/svg">
<g clip-path="url(#clip0_303_2053)">
<path d="M44.2916 54.3529C26.0307 54.3529 11.1714 39.5772 11.1714 21.4237V0H77.4237V21.4237C77.4237 39.5772 62.5644 54.3529 44.3035 54.3529H44.2916ZM12.6036 1.43223V21.4237C12.6036 38.7894 26.8184 52.9207 44.2916 52.9207C61.7647 52.9207 75.9795 38.7894 75.9795 21.4237V1.43223H12.6036Z" fill="#E6E6E6"/>
<g style="mix-blend-mode:lighten" opacity="0.4">
<path d="M70.9071 0.716064H17.6761V5.45434L70.9071 6.24207V0.716064Z" fill="white"/>
</g>
<path d="M44.2916 48.8985C29.5993 48.8985 17.688 37.0588 17.688 22.4501V5.45435L70.8952 6.24207V22.4501C70.8952 37.0588 58.9838 48.8985 44.2916 48.8985Z" fill="#AABC44"/>
<g style="mix-blend-mode:multiply" opacity="0.2">
<path d="M25.9113 23.381V5.45435H17.688V22.4501C17.688 36.462 28.6445 47.9079 42.5013 48.8269C32.7264 44.4705 25.9113 34.7195 25.9113 23.381Z" fill="#6C1300"/>
</g>
<g style="mix-blend-mode:lighten" opacity="0.4">
<path d="M62.3973 0.716064V21.4237C62.3973 36.7723 51.5959 49.6027 37.1424 52.8371C39.4459 53.3503 41.8329 53.6368 44.2916 53.6368C62.1944 53.6368 76.6956 39.219 76.6956 21.4237V0.716064H62.3973Z" fill="white"/>
</g>
<g style="mix-blend-mode:lighten" opacity="0.1">
<path d="M57.7306 18.7502V22.3308C57.7306 27.7017 55.8448 32.619 52.682 36.486H62.6718C65.8227 32.619 67.7204 27.6897 67.7204 22.3308V18.7502H57.7306Z" fill="white"/>
</g>
<path d="M70.5132 56H18.0699C16.3154 56 14.8951 54.5797 14.8951 52.8372H73.6999C73.6999 54.5797 72.2796 56 70.5252 56H70.5132Z" fill="#D9D9D9"/>
<path d="M0 46.5234C1.83802 50.7008 6.03922 53.6368 10.9207 53.6368H77.6624C82.5439 53.6368 86.7451 50.7127 88.5831 46.5234H0Z" fill="#E6E6E6"/>
<path opacity="0.5" d="M28.6087 46.5234H0C1.83802 50.7008 6.03922 53.6368 10.9207 53.6368H39.5294C34.6479 53.6368 30.4467 50.7127 28.6087 46.5234Z" fill="#A2BDCD"/>
<path d="M80.6462 9.79883H76.6957V15.3248H80.6462C84.0477 15.3248 86.8048 18.0699 86.8048 21.4476C86.8048 24.8253 84.0477 27.5704 80.6462 27.5704H76.0989C75.7289 29.48 75.1799 31.3299 74.4876 33.0964H80.6343C87.0912 33.0964 92.3546 27.8687 92.3546 21.4476C92.3546 15.0264 87.0912 9.79883 80.6343 9.79883H80.6462Z" fill="#E6E6E6"/>
</g>
<defs>
<clipPath id="clip0_303_2053">
<rect width="92.3666" height="56" fill="white"/>
</clipPath>
</defs>
</svg>
