<svg width="138" height="137" viewBox="0 0 138 137" fill="none" xmlns="http://www.w3.org/2000/svg">
<g style="mix-blend-mode:difference" filter="url(#filter0_f_609_4857)">
<ellipse cx="71.3291" cy="121.908" rx="40.2098" ry="10.4384" transform="rotate(-0.669682 71.3291 121.908)" fill="#303030"/>
</g>
<g clip-path="url(#clip0_609_4857)">
<path d="M69.0059 60.1786C106.464 60.1786 136.83 52.8334 136.83 43.7726C136.83 34.7119 106.464 27.3667 69.0059 27.3667C31.5477 27.3667 1.18188 34.7119 1.18188 43.7726C1.18188 52.8334 31.5477 60.1786 69.0059 60.1786Z" fill="#BD9B97"/>
<path d="M69.0059 32.2838C103 32.2838 131.166 38.3392 136.069 46.237C136.572 45.439 136.83 44.6176 136.83 43.7726C136.83 34.713 106.463 27.3667 69.0059 27.3667C31.5482 27.3667 1.18188 34.713 1.18188 43.7726C1.18188 44.6058 1.43933 45.4273 1.94251 46.237C6.84558 38.3392 35.0003 32.2838 69.0059 32.2838Z" fill="#E6E6E6"/>
<path d="M6.13177 50.3443C6.13177 50.3443 -0.409566 44.7701 21.6367 41.0617C21.6367 41.0617 22.842 29.7958 46.2106 28.8922C46.2106 28.8922 51.336 21.1117 64.3368 21.6985C64.3368 21.6985 75.9919 16.6758 78.5663 14.54C81.1407 12.4041 82.5683 26.463 90.3617 27.0967C90.3617 27.0967 105.96 27.66 108.628 36.0742C108.628 36.0742 130.628 36.4263 132.559 47.5983C132.559 47.5983 138.737 61.8332 76.378 62.3847C14.0188 62.9363 6.13177 50.3443 6.13177 50.3443Z" fill="white"/>
<path d="M19.3081 41.4842C18.9219 41.5546 18.5357 41.6367 18.173 41.7071C17.974 41.7423 17.7868 41.7893 17.5879 41.8245C17.2368 41.8949 16.8975 41.977 16.5698 42.0475C16.406 42.0827 16.2188 42.1296 16.0549 42.1648C15.622 42.2704 15.2124 42.376 14.8028 42.4699C14.5805 42.5286 14.3699 42.5873 14.1475 42.646C13.9603 42.6929 13.7731 42.7516 13.5858 42.7985C13.3518 42.8689 13.1295 42.9276 12.9188 42.998C12.7784 43.045 12.638 43.0802 12.4976 43.1271C10.871 43.6434 9.59551 44.1598 8.60085 44.6644C8.57745 44.6644 8.56575 44.6879 8.54234 44.6996C8.22639 44.8639 7.93385 45.0282 7.67641 45.1925C7.6413 45.216 7.6179 45.2277 7.58279 45.2512C7.33705 45.4037 7.10302 45.568 6.90408 45.7206C6.88068 45.7441 6.85728 45.7675 6.82217 45.7793C6.62324 45.9318 6.44771 46.0844 6.29559 46.2369C6.27218 46.2604 6.26048 46.2722 6.23708 46.2956C4.03713 48.5136 6.23708 50.9663 8.69447 52.5036C9.85295 53.2312 11.0933 53.8766 12.3572 54.4634C12.5444 54.5455 12.7433 54.6394 12.9422 54.7216C13.1412 54.8154 13.3518 54.8976 13.5624 54.9797C14.1241 55.2144 14.7326 55.4491 15.3762 55.6839C15.8092 55.8364 16.2656 56.0007 16.7336 56.165C16.839 56.2002 16.956 56.2354 17.073 56.2706C17.5645 56.4349 18.0677 56.5875 18.5942 56.7518C19.5187 57.0334 20.5016 57.3151 21.5665 57.585C22.9005 57.9253 24.2462 58.2304 25.6037 58.5355C36.1236 60.7887 52.1084 62.5607 76.3663 62.3495C129.528 61.8801 132.875 51.4709 132.711 48.408C132.711 48.2672 132.687 48.1381 132.664 48.009C132.664 47.9972 132.664 47.9738 132.664 47.962C132.641 47.8564 132.617 47.7625 132.605 47.6921C124.859 52.5505 112.502 57.5263 93.0649 59.7208C83.0715 60.8474 72.9494 60.554 63.2953 59.4157C53.77 57.6789 36.4981 52.3862 46.8191 54.0527C49.452 54.4986 52.1435 54.8741 54.87 55.144C87.3778 58.3712 117.171 48.2672 113.274 48.3024C109.377 48.3376 91.2394 54.1231 61.3528 52.9847C60.873 52.9613 60.405 52.9495 59.9369 52.9143C53.3371 52.5388 47.0181 51.1306 42.3139 48.6192C39.8682 47.3166 37.8204 45.6971 37.3289 43.7491C36.6385 40.9678 39.131 37.4942 43.8117 35.9216C44.666 35.64 45.5436 35.4288 46.4447 35.2879C49.0659 34.8772 51.8626 35.0884 54.3083 35.7339C54.5423 35.7925 54.7764 35.8512 55.0104 35.9099C78.4258 41.7189 104.228 35.3935 101.268 35.0063C98.9041 34.7012 88.0565 36.9426 72.4813 35.8278C71.1707 35.7339 62.4411 34.8185 66.5367 25.3481C66.7708 24.7966 67.8825 24.5149 68.8186 24.7379C75.0557 26.287 80.4737 25.4186 79.7364 25.0313C79.0226 24.6675 75.3717 24.2685 70.7728 22.8955C69.5792 22.5434 69.8133 21.5694 71.1356 21.3816C73.1015 21.1 75.278 20.9944 77.3493 19.8326C79.3152 18.7294 80.2279 17.2273 80.5322 15.7135C80.4503 15.5727 80.3683 15.4318 80.2981 15.3145C80.2981 15.3027 80.2747 15.291 80.2747 15.2675C80.2045 15.1619 80.1343 15.0563 80.0641 14.9624C80.0524 14.9389 80.029 14.9155 80.0173 14.9037C79.9588 14.8216 79.8886 14.7512 79.8301 14.6808C79.8067 14.6573 79.7949 14.6338 79.7715 14.6221C79.713 14.5634 79.6545 14.5165 79.596 14.4695C79.5726 14.4461 79.5492 14.4343 79.5258 14.4109C79.4673 14.3757 79.4205 14.3522 79.362 14.317C79.3386 14.317 79.3152 14.2935 79.2918 14.2818C79.2333 14.27 79.1865 14.2583 79.1279 14.2583C79.1162 14.2583 79.1045 14.2583 79.0811 14.2583C79.0694 14.2583 79.0577 14.2583 79.046 14.2583C78.9875 14.2583 78.929 14.2818 78.8705 14.2935C78.8471 14.2935 78.8237 14.2935 78.8003 14.317C78.7184 14.3522 78.6365 14.3991 78.5546 14.4695C78.4375 14.5634 78.2971 14.669 78.1567 14.7747C78.1216 14.7981 78.0982 14.8216 78.0631 14.8451C78.0514 14.8451 78.0397 14.8568 78.028 14.8685C77.9695 14.9155 77.8993 14.9507 77.829 14.9976C77.7471 15.0563 77.6652 15.1032 77.5716 15.1619C77.5365 15.1854 77.5014 15.2089 77.4663 15.2206C77.4195 15.2441 77.3727 15.2793 77.3142 15.3145C77.2322 15.3614 77.1503 15.4201 77.0567 15.467C77.0216 15.4905 76.9865 15.514 76.9514 15.5257C76.9046 15.5492 76.8578 15.5844 76.811 15.6079C76.6823 15.6783 76.5535 15.7604 76.4248 15.8308C76.3546 15.866 76.2844 15.913 76.2142 15.9482C76.2142 15.9482 76.1908 15.9482 76.1791 15.9599C76.1206 15.9951 76.0504 16.0303 75.9801 16.0655C75.7929 16.1712 75.594 16.2768 75.3833 16.3824C75.3365 16.4059 75.2897 16.4411 75.2312 16.4645C74.9972 16.5936 74.7514 16.711 74.5057 16.8401C74.4238 16.887 74.3302 16.9339 74.2483 16.9692C74.2249 16.9692 74.2015 16.9926 74.1898 17.0044C74.0961 17.0513 74.0025 17.0982 73.9089 17.1452C73.7685 17.2156 73.6398 17.286 73.4994 17.3447C73.4291 17.3799 73.3589 17.4151 73.2887 17.4503C73.2068 17.4855 73.1366 17.5324 73.0547 17.5677C72.9611 17.6146 72.8674 17.6615 72.7738 17.7085C72.7387 17.7202 72.7036 17.7437 72.6685 17.7554C72.5749 17.8024 72.4813 17.8493 72.376 17.8962C72.177 17.9901 71.9781 18.084 71.7909 18.1779C71.7441 18.2014 71.6973 18.2248 71.6505 18.2483C71.6505 18.2483 71.6388 18.2483 71.6271 18.26C71.5334 18.307 71.4398 18.3539 71.3462 18.3891C71.1356 18.483 70.9366 18.5886 70.7377 18.6825C70.6558 18.7177 70.5739 18.7529 70.5037 18.7999C70.5037 18.7999 70.5037 18.7999 70.492 18.7999C70.4569 18.8116 70.4218 18.8351 70.3867 18.8468C70.1643 18.9524 69.9537 19.058 69.7314 19.1519C69.6494 19.1871 69.5792 19.2223 69.4973 19.2575C69.4622 19.2693 69.4271 19.2927 69.392 19.3045C69.2867 19.3514 69.1697 19.4101 69.0643 19.457C68.9473 19.5157 68.8303 19.5626 68.7016 19.6213C68.5846 19.68 68.4676 19.7269 68.3505 19.7856C68.2218 19.8443 68.1048 19.903 67.9761 19.9499C67.941 19.9616 67.9059 19.9851 67.8708 19.9969C67.8474 20.0086 67.8122 20.0203 67.7888 20.0321C67.7186 20.0673 67.6718 20.0907 67.6016 20.1142C67.2389 20.2785 66.8995 20.4311 66.5718 20.5719C66.5133 20.5954 66.4548 20.6306 66.3846 20.654C65.6123 21.0061 65.0155 21.2643 64.6644 21.4168C64.4538 21.5107 64.3017 21.5694 64.3017 21.5694C63.6932 21.5459 63.1198 21.5459 62.5464 21.5576C62.0432 21.5576 61.5635 21.5811 61.0837 21.6163C60.8028 21.6398 60.5103 21.6515 60.2411 21.675C59.7497 21.7219 59.2816 21.7806 58.8252 21.851C58.6029 21.8862 58.3688 21.9214 58.1465 21.9566C57.6433 22.0505 57.1636 22.1561 56.7072 22.2735C56.5551 22.3087 56.3795 22.3439 56.2274 22.3909C55.7125 22.5317 55.2211 22.6842 54.753 22.8485C54.6477 22.8837 54.5423 22.9072 54.4487 22.9424C54.3668 22.9776 54.2732 23.0011 54.1913 23.0363C53.77 23.2006 53.3605 23.3649 52.9743 23.5409C52.8924 23.5761 52.8105 23.6231 52.7169 23.6583C52.3424 23.8343 51.9913 24.0103 51.652 24.1981C51.5701 24.245 51.4882 24.2802 51.4179 24.3272C51.0903 24.5149 50.7743 24.691 50.4818 24.8787C50.4116 24.9257 50.3414 24.9726 50.2712 25.0078C49.9786 25.1956 49.7095 25.3834 49.4637 25.5711C49.4052 25.6181 49.3467 25.665 49.2882 25.7002C49.0425 25.888 48.8084 26.0757 48.5861 26.2518C48.5393 26.2987 48.4808 26.3339 48.434 26.3808C48.2233 26.5569 48.0244 26.7329 47.8489 26.8972C47.8138 26.9324 47.767 26.9676 47.7319 27.0028C47.5563 27.1671 47.3925 27.3314 47.2521 27.484C47.2287 27.5074 47.2053 27.5426 47.1702 27.5661C47.0298 27.7187 46.901 27.8595 46.784 27.9886C46.7723 28.0121 46.7489 28.0238 46.7372 28.0473C46.6319 28.1763 46.5383 28.282 46.4681 28.3758C46.4564 28.3993 46.433 28.4111 46.4213 28.4463C46.351 28.5284 46.2925 28.6106 46.2574 28.6575C46.2223 28.7162 46.1989 28.7396 46.1989 28.7396C45.6138 28.7631 45.0638 28.7983 44.5139 28.8335C44.0458 28.8687 43.5777 28.9039 43.1213 28.9391C43.0394 28.9391 42.9692 28.9509 42.8873 28.9626C42.4075 29.0096 41.9394 29.0565 41.4948 29.1034C41.4714 29.1034 41.448 29.1034 41.4363 29.1034C41.3075 29.1152 41.1905 29.1269 41.0735 29.1504C40.6756 29.1973 40.2895 29.2443 39.915 29.3029C39.7161 29.3264 39.5172 29.3616 39.3182 29.3968C39.3065 29.3968 39.2948 29.3968 39.2831 29.3968C32.2503 30.4999 28.0142 32.7179 25.4632 34.9241C25.042 35.2879 24.6792 35.64 24.3516 35.992C24.0239 36.3441 23.7314 36.6962 23.4739 37.0247C23.4505 37.0482 23.4388 37.0717 23.4154 37.0952C23.0878 37.5294 22.8186 37.9518 22.608 38.3391C22.5963 38.3626 22.5846 38.386 22.5729 38.3978C22.4793 38.5621 22.3973 38.7264 22.3271 38.8789C22.3154 38.9141 22.292 38.9493 22.2803 38.9845C22.1984 39.1488 22.1282 39.3131 22.0697 39.4657C22.0346 39.5596 21.9995 39.6417 21.9761 39.7121C21.9761 39.7356 21.9527 39.7591 21.9527 39.7825C21.9293 39.853 21.9059 39.9234 21.8825 39.9938C21.8825 40.0173 21.8825 40.029 21.8591 40.0759C21.8357 40.1463 21.824 40.205 21.8005 40.2637C21.8005 40.2872 21.7888 40.3106 21.7771 40.3341C21.7654 40.3928 21.7537 40.4397 21.742 40.4867C21.742 40.5101 21.742 40.5219 21.7303 40.5336C21.7303 40.5805 21.7069 40.6275 21.6952 40.6979C21.6952 40.7331 21.6835 40.7683 21.6718 40.8152C21.6718 40.8387 21.6718 40.8505 21.6718 40.8974C21.0516 41.003 20.4548 41.1086 19.8814 41.2142C19.6942 41.2495 19.5187 41.2847 19.3432 41.3199L19.3081 41.4842Z" fill="white"/>
<g style="mix-blend-mode:multiply">
<path d="M18.6177 56.7985C18.0911 56.6342 17.5762 56.4817 17.0964 56.3174C17.5879 56.4817 18.0911 56.6342 18.6177 56.7985Z" fill="#A98B87"/>
<path d="M16.7571 56.2001C16.289 56.0358 15.8326 55.8833 15.3997 55.719C15.8326 55.8716 16.289 56.0358 16.7571 56.2001Z" fill="#A98B87"/>
</g>
<path d="M89.2501 43.2797C98.7871 41.4138 101.081 40.8974 105.165 39.1371C105.516 38.9846 106.779 38.3626 108.57 38.0692C112.373 37.4472 116.773 38.5269 116.995 39.9586C117.288 41.8714 110.033 44.4649 107.283 45.4507C85.2129 53.3368 57.0817 50.9897 56.4849 46.0727C56.3093 44.641 57.9125 43.5261 58.7784 42.9745C62.9677 40.3576 66.0219 42.5286 72.3292 43.4205C75.7344 43.9016 82.9545 44.3241 89.2501 43.2679V43.2797Z" fill="#4E4F9F"/>
<path d="M76.144 28.0238C78.3088 28.5754 81.3513 28.7397 87.4363 29.0683C93.1819 29.3734 94.9138 28.5754 98.1669 30.1127C98.7286 30.3826 101.794 31.8261 101.572 32.9292C101.326 34.1731 97.1605 33.6333 83.5279 33.6568C77.2791 33.6568 73.5228 33.7859 72.2239 31.474C71.6505 30.4648 71.4632 28.8336 72.1888 28.059C73.043 27.1554 74.8685 27.707 76.1323 28.0238H76.144Z" fill="#4E4F9F"/>
<g style="mix-blend-mode:multiply" opacity="0.31">
<path d="M115.79 45.8967C115.989 43.2797 124.25 40.3224 126.485 42.9511C127.457 44.1012 127.152 46.1549 126.52 47.5044C123.934 53.0435 113.134 52.6797 113.017 52.1751C112.946 51.8582 117.229 51.2949 117.51 49.2882C117.709 47.8682 115.685 47.211 115.79 45.8849V45.8967Z" fill="#916932"/>
</g>
<path d="M76.0503 56.6462C76.0503 56.6462 70.4217 57.2095 69.8484 52.0108C69.8484 52.0108 74.8333 49.2999 76.0503 56.6462Z" fill="#F1D210"/>
<path d="M70.9951 52.6561C70.9951 52.6561 72.0717 52.6091 74.2015 55.2261L70.9951 52.6561Z" fill="#916932"/>
<path d="M15.189 44.5705C15.189 44.5705 19.3315 40.7214 22.9239 44.5119C22.9239 44.5119 20.5836 49.6989 15.189 44.5705Z" fill="#F1D210"/>
<path d="M21.625 44.7113C21.625 44.7113 20.7942 45.4037 17.5177 44.6057L21.625 44.7113Z" fill="#916932"/>
<path d="M30.3312 52.6091C30.3312 52.6091 24.7026 53.1724 24.1292 47.9737C24.1292 47.9737 29.1142 45.2628 30.3312 52.6091Z" fill="#F1D210"/>
<path d="M25.276 48.6075C25.276 48.6075 26.3526 48.5605 28.4823 51.1775L25.276 48.6075Z" fill="#916932"/>
<path d="M80.2982 56.8691C80.2982 56.8691 82.2641 51.5531 87.1788 53.3134C87.1788 53.3134 87.4246 58.9932 80.2982 56.8691Z" fill="#F1D210"/>
<path d="M86.0906 54.0645C86.0906 54.0645 85.6576 55.0502 82.3811 55.8247L86.0906 54.0645Z" fill="#916932"/>
<g style="mix-blend-mode:multiply" opacity="0.31">
<path d="M80.2396 56.0007C80.4737 57.7141 88.466 58.9345 98.0967 57.6202C107.716 56.2941 115.322 52.9378 115.088 51.2127C115.006 50.6377 114.795 49.0769 114.655 48.0442C114.678 47.9034 114.678 47.7625 114.655 47.6217C114.479 46.366 112.782 45.4272 110.091 44.8874C110.395 44.371 110.664 43.9016 110.817 43.6552C110.875 43.5613 110.898 43.4557 110.898 43.3266C110.922 42.0827 108.301 39.454 104.182 36.4497C104.275 36.3324 104.322 36.2033 104.334 36.0859C104.369 35.6165 104.474 34.5134 104.556 33.5511C101.584 29.3264 94.867 27.7304 90.7713 27.1319C90.5139 27.1202 90.3734 27.1084 90.3734 27.1084C90.0575 27.085 89.7532 27.0263 89.4607 26.9559C88.1969 26.8151 87.4012 26.7799 87.4012 26.7799C81.6087 26.3104 79.3386 18.4478 77.4897 15.291C73.6866 17.6615 64.3368 21.6985 64.3368 21.6985C51.336 21.1117 46.2106 28.8922 46.2106 28.8922C22.8303 29.7958 21.6367 41.0617 21.6367 41.0617C19.8932 41.3551 18.3368 41.6602 16.9326 41.9771C16.9677 42.0357 17.0028 42.0944 17.0379 42.1413C17.4943 42.7985 17.9858 43.397 18.5006 43.9251C18.4772 44.019 18.4538 44.1246 18.4304 44.2185C18.4187 44.2772 18.407 44.3476 18.3953 44.418C18.3602 44.594 18.3251 44.7818 18.3017 44.9695C18.29 45.0869 18.2783 45.2043 18.2666 45.3216C18.2666 45.4272 18.2549 45.5328 18.2549 45.6267C18.2549 45.7558 18.2549 45.8849 18.2549 46.0257C18.2549 46.1079 18.2549 46.1783 18.2549 46.2604C18.2549 46.4599 18.2783 46.6594 18.3017 46.8589C18.3017 46.9293 18.3251 46.9998 18.3368 47.0702C18.3602 47.2579 18.3953 47.4457 18.4421 47.6335C18.4421 47.6687 18.4421 47.6921 18.4655 47.7273C18.5123 47.9503 18.5825 48.1615 18.6528 48.3728C18.6762 48.4315 18.6879 48.4784 18.7113 48.5371C18.7932 48.76 18.8751 48.9713 18.9804 49.1942C19.2027 49.6754 19.4719 50.1331 19.7761 50.5438C20.3846 51.377 21.1453 52.0577 21.9995 52.574C22.8537 53.0904 23.8016 53.4424 24.7845 53.595C25.0069 53.6302 25.2292 53.6537 25.4515 53.6654C25.5217 53.6654 25.592 53.6654 25.6622 53.6654C25.826 53.6654 25.9898 53.6654 26.1537 53.6654C26.2239 53.6654 26.2941 53.6654 26.3643 53.6654C26.5866 53.6654 26.809 53.6419 27.0313 53.6067C27.0313 53.6067 27.043 53.6067 27.0547 53.6067C27.2302 53.5832 27.4057 53.548 27.5813 53.5128C27.944 54.3108 28.4004 55.0267 28.9387 55.6134C29.8514 56.6227 30.9865 57.3385 32.2737 57.8314C32.9173 58.0779 33.5843 58.2656 34.2864 58.4064C35.3396 58.6059 36.4396 58.6998 37.5747 58.6998C43.9873 58.6998 51.1371 55.7543 52.8573 54.0527C53.0562 53.8532 53.1849 53.6654 53.2317 53.5128C53.2551 53.4424 53.2668 53.3603 53.2668 53.2664V53.2429C53.2668 53.149 53.2668 53.0434 53.2668 52.9378C53.2668 52.9261 53.2668 52.9026 53.2668 52.8909C53.2668 52.7735 53.2668 52.6444 53.2434 52.5153C53.2434 52.5036 53.2434 52.4919 53.2434 52.4801C53.22 52.2572 53.1966 52.0107 53.1498 51.7291C53.1966 51.7291 53.2317 51.7173 53.2786 51.7056C54.0743 54.6277 55.1977 57.2329 56.1923 58.8407C56.8008 59.8382 57.3625 60.4719 57.7721 60.5657C57.8423 60.5775 57.9242 60.5892 58.0178 60.6009C58.0178 60.6009 58.0412 60.6009 58.0529 60.6009C58.1465 60.6009 58.2518 60.6009 58.3572 60.6009C58.3689 60.6009 58.3923 60.6009 58.404 60.6009C58.521 60.6009 58.6497 60.5892 58.7784 60.5657C58.7901 60.5657 58.8018 60.5657 58.8252 60.5657C61.4582 60.2724 67.5782 58.2774 72.1771 55.015C74.494 55.3435 77.244 55.5782 80.2279 55.6839C80.2396 55.7895 80.2513 55.8951 80.263 55.9655L80.2396 56.0007Z" fill="#916932"/>
</g>
<path d="M136.76 44.512C135.18 53.2313 105.445 60.1903 69.0059 60.1903C32.5663 60.1903 2.85525 53.2313 1.2521 44.5237C0.432969 48.5372 0 52.6797 0 56.9044C0 92.8496 30.8929 122 69.0059 122C107.119 122 138.012 92.8613 138.012 56.9044C138.012 52.668 137.579 48.5254 136.76 44.512Z" fill="#E6E6E6"/>
<path d="M69.0059 63.3119C40.664 63.3119 16.3943 59.1107 6.2488 53.1374C5.92115 55.3202 5.75732 57.5381 5.75732 59.7796C5.75732 89.2117 34.2631 113.081 69.4271 113.081C104.591 113.081 133.097 89.2234 133.097 59.7796C133.097 57.3621 132.898 54.9916 132.524 52.6562C122.893 58.876 98.085 63.3119 68.9942 63.3119H69.0059Z" fill="#E6E6E6"/>
<path d="M31.6301 63.5582C18.3134 61.6571 8.28491 58.7468 3.8031 55.3201C3.56906 57.2564 3.44034 59.2162 3.44034 61.2112C3.44034 92.2862 32.8588 117.482 69.1463 117.482C84.4991 117.482 98.6232 112.964 109.81 105.406C105.211 106.275 100.437 106.744 95.534 106.744C64.5123 106.744 38.5108 88.3197 31.6184 63.5582H31.6301Z" fill="#D9D9D9"/>
<path opacity="0.27" d="M81.562 67.5718C81.562 67.5718 111.659 66.9615 130.078 58.7468C130.078 58.7468 126.731 82.0531 112.642 93.5537C112.642 93.5537 88.0214 96.8043 81.562 67.56V67.5718Z" fill="#FFE2AF"/>
<path d="M101.163 29.3265C102.11 29.702 103.035 30.1362 103.901 30.6525C122.741 33.3751 135.285 38.2335 135.285 43.7843C135.285 52.3159 105.609 59.228 68.9941 59.228C32.379 59.228 2.71483 52.3041 2.71483 43.7726C2.71483 38.2101 15.3645 33.3282 34.3449 30.6056C37.481 29.7137 41.3661 29.08 46.2223 28.8805C46.2223 28.8805 46.3745 28.6458 46.7021 28.2585C20.1974 30.5117 1.18188 36.6023 1.18188 43.7726C1.18188 52.8322 31.5482 60.1785 69.0059 60.1785C106.463 60.1785 136.83 52.8322 136.83 43.7726C136.83 37.5294 122.401 32.096 101.163 29.3265Z" fill="white"/>
<path d="M43.3203 7.73367C43.3203 7.73367 52.7754 0.0353229 60.4752 6.61882C67.2272 12.3926 55.9349 25.8529 53.8871 26.5453C51.8392 27.2377 35.8545 15.7254 43.3203 7.7454V7.73367Z" fill="#FF4B40"/>
<path d="M53.9573 22.0624C50.1659 21.3466 47.451 15.7254 46.8191 11.1134C46.4798 8.68419 46.784 6.85348 47.0532 5.49219C44.8064 6.53663 43.332 7.73363 43.332 7.73363C35.8662 15.7136 51.8509 27.2259 53.8988 26.5336C54.8232 26.2167 57.6434 23.2829 59.8316 19.6332C58.1582 21.1353 56.1572 22.4731 53.9573 22.0507V22.0624Z" fill="#BF1B18"/>
<path d="M51.8041 6.73625C51.4414 6.8536 51.0552 6.84187 50.6925 6.73625C48.4691 6.14949 45.7543 7.83937 44.3618 9.36495C43.0043 10.8436 43.0863 12.8738 43.1331 13.6718C43.4256 19.1404 49.9318 23.0366 52.7637 24.48C53.4775 24.8438 54.3551 24.703 54.9168 24.1397C57.2806 21.7457 63.073 15.1974 60.8614 10.163C58.5912 4.98769 53.5009 6.17296 51.8041 6.73625Z" fill="#F54631"/>
<path d="M51.2073 9.95159C51.2073 9.95159 50.7276 15.4437 52.0967 15.9014C53.4658 16.3708 51.9329 9.48218 51.9329 9.48218" fill="#FF4B40"/>
<path d="M51.1722 6.18449C51.1722 6.18449 47.9425 4.08388 49.7329 0C49.7329 0 53.1147 2.14756 51.1722 6.18449Z" fill="#51CE87"/>
<path d="M51.219 6.20804C51.219 6.20804 47.6032 7.3581 46.7723 3.42678C46.7723 3.42678 49.7095 2.69919 51.219 6.20804Z" fill="#51CE87"/>
<path d="M51.1956 6.19626C51.1956 6.19626 50.5754 2.75782 54.402 1.53735C54.402 1.53735 54.7413 5.25744 51.1956 6.19626Z" fill="#51CE87"/>
<path d="M57.6434 13.8477C57.6902 15.9835 56.8594 17.732 55.8062 17.7555C54.7413 17.779 53.852 16.0656 53.8052 13.9298C53.7584 11.794 54.5892 10.0454 55.6424 10.022C56.7072 9.9985 57.5966 11.7118 57.6434 13.8477Z" fill="#FF6C5B"/>
<path d="M49.9786 14.3172C50.6808 16.3356 50.435 18.2485 49.4404 18.6005C48.434 18.9526 47.0532 17.603 46.3628 15.5846C45.6724 13.5661 45.9064 11.6533 46.9011 11.3012C47.9074 10.9491 49.2765 12.2987 49.9786 14.3172Z" fill="#FF6C5B"/>
<g style="mix-blend-mode:multiply" opacity="0.31">
<path d="M66.4315 20.3139C66.6538 20.0792 66.841 19.8327 67.0283 19.5628C67.04 19.5393 67.0634 19.5159 67.0751 19.4924C67.2389 19.2577 67.391 19.0113 67.5314 18.7531C67.5431 18.7296 67.5665 18.6944 67.5783 18.6709C68.6665 16.5938 68.8187 14.059 67.7538 11.7706C65.9517 7.87447 61.3412 6.18459 57.4561 7.99182C55.6424 8.83676 54.32 10.2919 53.5945 12.0053C53.5945 12.017 53.5828 12.0288 53.5711 12.0522C53.3956 12.4747 53.2552 12.8972 53.1616 13.3431C53.1499 13.4135 53.1382 13.4722 53.1148 13.5426C53.0797 13.7186 53.0445 13.9064 53.0211 14.0942C53.0094 14.2115 52.986 14.3289 52.986 14.4462C52.986 14.5518 52.9743 14.6575 52.9743 14.7513C52.9743 14.8804 52.9743 15.0095 52.9743 15.1503C52.9743 15.2325 52.9743 15.3029 52.9743 15.3851C52.9743 15.5845 52.9977 15.7841 53.0211 15.9953C53.0211 16.0657 53.0445 16.1361 53.0562 16.2065C53.0797 16.3943 53.1148 16.582 53.1616 16.7698C53.1616 16.805 53.1616 16.8285 53.185 16.8637C53.2318 17.0867 53.302 17.2979 53.3722 17.5091C53.3956 17.5678 53.4073 17.6148 53.4307 17.6734C53.5126 17.8964 53.5945 18.1076 53.6998 18.3306C53.8169 18.577 53.9339 18.8118 54.0743 19.0347C54.7413 20.1613 55.6658 21.0767 56.7306 21.7104C56.9413 21.8395 57.1636 21.9568 57.3859 22.0624C58.0529 22.3793 58.7785 22.614 59.5157 22.7313C60.9901 22.966 62.5465 22.7783 64.0092 22.1094C64.3017 21.9803 64.5709 21.816 64.84 21.6517C64.9102 21.6048 64.9921 21.5578 65.0624 21.4991C65.2496 21.37 65.4368 21.2292 65.624 21.0884C65.6943 21.0297 65.7528 20.9828 65.823 20.9241C66.0453 20.7246 66.2676 20.5251 66.4666 20.3139H66.4315Z" fill="#916932"/>
</g>
<path d="M40.6874 42.9745C40.6874 42.9745 27.1015 49.159 20.0219 38.961C13.8082 30.0188 31.361 17.5911 33.9939 17.4151C36.6268 17.239 52.0031 35.8512 40.6874 42.9745Z" fill="#FF4B40"/>
<path d="M32.5312 22.696C36.8024 24.7262 38.2768 32.2367 37.5981 37.8814C37.2353 40.8739 36.3226 42.9393 35.5854 44.4649C38.5693 43.9251 40.6874 42.9628 40.6874 42.9628C52.0031 35.8395 36.6268 17.2273 33.9939 17.4033C32.8003 17.4855 28.5526 20.079 24.8314 23.7287C27.277 22.473 30.0621 21.5107 32.5312 22.6842V22.696Z" fill="#BF1B18"/>
<path d="M39.9151 37.1184C39.9151 37.1184 40.6523 34.7597 40.0087 34.5484C39.3768 34.3372 39.2949 38.7262 39.9151 37.1184Z" fill="#543D1D"/>
<path d="M34.2396 36.2266C34.2396 36.2266 34.9769 33.8678 34.3333 33.6566C33.7014 33.4453 33.6194 37.8343 34.2396 36.2266Z" fill="#543D1D"/>
<path d="M32.9056 30.711C32.9056 30.711 33.6428 28.3522 32.9992 28.141C32.3673 27.9297 32.2854 32.3187 32.9056 30.711Z" fill="#543D1D"/>
<path d="M37.5162 31.2862C37.5162 31.2862 38.2534 28.9274 37.6098 28.7161C36.9779 28.5049 36.896 32.8939 37.5162 31.2862Z" fill="#543D1D"/>
<path d="M35.6087 25.5828C35.6087 25.5828 36.346 23.224 35.7024 23.0128C35.0705 22.8015 34.9885 27.1905 35.6087 25.5828Z" fill="#543D1D"/>
<path d="M30.8578 25.2659C30.8578 25.2659 31.595 22.9071 30.9514 22.6959C30.3195 22.4846 30.2376 26.8736 30.8578 25.2659Z" fill="#543D1D"/>
<path d="M29.5589 35.5577C29.5589 35.5577 30.2961 33.1989 29.6525 32.9876C29.0206 32.7764 28.9387 37.1654 29.5589 35.5577Z" fill="#543D1D"/>
<path d="M23.9069 35.4991C23.9069 35.4991 24.6441 33.1403 24.0005 32.929C23.3686 32.7178 23.2867 37.1068 23.9069 35.4991Z" fill="#543D1D"/>
<path d="M27.6047 30.2769C27.6047 30.2769 28.3419 27.9181 27.6983 27.7069C27.0664 27.4956 26.9845 31.8846 27.6047 30.2769Z" fill="#543D1D"/>
<g style="mix-blend-mode:multiply" opacity="0.31">
<path d="M44.4202 32.4363C42.7118 25.0313 35.6907 17.2978 33.9939 17.4151C33.6428 17.4386 33.0226 17.685 32.2386 18.1075C32.2152 18.2601 32.1801 18.4126 32.1684 18.5652C32.1567 18.6825 32.1333 18.7999 32.1333 18.9173C32.1333 19.0229 32.1216 19.1285 32.1216 19.2224C32.1216 19.3515 32.1216 19.4805 32.1216 19.6214C32.1216 19.7035 32.1216 19.7739 32.1216 19.8561C32.1216 20.0556 32.145 20.2551 32.1684 20.4663C32.1684 20.5367 32.1918 20.6071 32.2035 20.6775C32.2269 20.8653 32.262 21.0531 32.3088 21.2408C32.3088 21.276 32.3088 21.2995 32.3322 21.3347C32.379 21.5577 32.4492 21.7689 32.5195 21.9802C32.5429 22.0388 32.5546 22.0858 32.578 22.1445C32.6599 22.3674 32.7418 22.5787 32.8471 22.8016C32.9641 23.0481 33.0811 23.2828 33.2216 23.5057C33.2918 23.6231 33.3737 23.7405 33.4556 23.8461C31.7354 24.7027 30.4599 26.111 29.7578 27.7657C29.7578 27.7774 29.7461 27.8009 29.7344 27.8126C29.5589 28.2351 29.4185 28.6575 29.3248 29.1035C29.3131 29.1739 29.3014 29.2326 29.278 29.303C29.2429 29.479 29.2078 29.6668 29.1844 29.8428C29.1727 29.9602 29.1493 30.0775 29.1493 30.1949C29.1493 30.3005 29.1376 30.4061 29.1376 30.5C29.1376 30.6291 29.1376 30.7582 29.1376 30.899C29.1376 30.9811 29.1376 31.0515 29.1376 31.1337C29.1376 31.3332 29.161 31.5327 29.1844 31.7439C29.1844 31.8143 29.2078 31.8847 29.2195 31.9552C29.2429 32.1429 29.278 32.3307 29.3248 32.5184C29.3248 32.5537 29.3248 32.5771 29.3483 32.6123C29.3951 32.8353 29.4653 33.0465 29.5355 33.2578C29.5589 33.3164 29.5706 33.3634 29.594 33.4221C29.6759 33.645 29.7578 33.8563 29.8631 34.0792C29.9216 34.2201 30.0036 34.3491 30.0738 34.4782C29.7929 34.8068 29.5238 35.1354 29.278 35.4875C28.3068 33.2578 25.8962 32.4832 25.8962 32.4832C25.7909 33.6098 25.943 34.5252 26.2239 35.2762C24.7962 35.0767 23.2984 35.2762 21.9059 35.9217C20.9229 36.3794 20.0804 37.0248 19.4017 37.7876C19.5889 38.1866 19.7995 38.5739 20.0687 38.9611C27.16 49.1591 40.7342 42.9746 40.7342 42.9746C44.5841 40.5454 45.3447 36.7901 44.5607 32.894C44.5022 32.847 44.4553 32.7884 44.3968 32.7297C44.4202 32.6358 44.4436 32.5302 44.4554 32.4363H44.4202Z" fill="#916932"/>
</g>
<path d="M43.7063 27.0615C47.9911 27.0615 51.4647 23.578 51.4647 19.281C51.4647 14.9839 47.9911 11.5005 43.7063 11.5005C39.4215 11.5005 35.948 14.9839 35.948 19.281C35.948 23.578 39.4215 27.0615 43.7063 27.0615Z" fill="#4E4F9F"/>
<path d="M48.2234 22.8954C44.3383 24.7027 39.7278 23.0128 37.9257 19.1167C37.3055 17.7671 37.1066 16.3471 37.2587 14.9741C35.8077 17.1569 35.48 20.0086 36.6619 22.5668C38.464 26.463 43.0745 28.1528 46.9596 26.3456C49.4989 25.1603 51.0903 22.7663 51.3946 20.1611C50.6339 21.3112 49.5574 22.2735 48.2234 22.8954Z" fill="#591597"/>
<path d="M46.4213 14.223C46.9713 15.42 46.4564 16.8399 45.2628 17.4032C44.0692 17.9665 42.6533 17.4384 42.0916 16.2414C41.5416 15.0444 42.0565 13.6245 43.2501 13.0612C44.4437 12.5096 45.8596 13.026 46.4213 14.223Z" fill="#7580E1"/>
<path d="M61.5191 24.9986C61.6103 20.7026 58.2115 17.1457 53.9277 17.0542C49.6438 16.9628 46.0971 20.3712 46.0059 24.6673C45.9147 28.9634 49.3135 32.5202 53.5973 32.6117C57.8811 32.7032 61.4278 29.2947 61.5191 24.9986Z" fill="#4E4F9F"/>
<path d="M58.2987 28.4465C54.4136 30.2537 49.8031 28.5638 48.001 24.6677C47.3808 23.3181 47.1819 21.8982 47.334 20.5251C45.883 22.7079 45.5553 25.5596 46.7372 28.1179C48.5393 32.014 53.1498 33.7039 57.0349 31.8966C59.5742 30.7114 61.1773 28.3174 61.4699 25.7121C60.7092 26.8622 59.6327 27.8245 58.2987 28.4465Z" fill="#591597"/>
<path d="M56.4849 19.774C57.0349 20.971 56.52 22.391 55.3264 22.9543C54.1328 23.5175 52.7169 22.9895 52.1552 21.7925C51.6052 20.5955 52.1201 19.1755 53.3137 18.6122C54.5073 18.0606 55.9232 18.577 56.4849 19.774Z" fill="#7580E1"/>
<path d="M64.8924 21.5972C69.0823 20.6979 71.752 16.5626 70.8553 12.3607C69.9586 8.15878 65.8351 5.48148 61.6451 6.38075C57.4552 7.28003 54.7855 11.4153 55.6822 15.6172C56.5789 19.8191 60.7025 22.4964 64.8924 21.5972Z" fill="#4E4F9F"/>
<path d="M67.7889 17.5912C63.9039 19.3985 59.2933 17.7086 57.4913 13.8125C56.8711 12.4629 56.6721 11.0429 56.8242 9.66992C55.3732 11.8527 55.0456 14.7044 56.2275 17.2626C58.0295 21.1588 62.6401 22.8486 66.5251 21.0414C69.0644 19.8561 70.6675 17.4621 70.9601 14.8569C70.1995 16.007 69.1229 16.9693 67.7889 17.5912Z" fill="#591597"/>
<path d="M65.9868 8.91877C66.5368 10.1158 66.0219 11.5357 64.8283 12.099C63.6347 12.6506 62.2188 12.1342 61.6571 10.9372C61.1071 9.74024 61.622 8.32027 62.8156 7.75697C64.0092 7.20541 65.4251 7.72177 65.9868 8.91877Z" fill="#7580E1"/>
<path d="M48.8668 39.008C53.1517 39.008 56.6252 35.5246 56.6252 31.2275C56.6252 26.9305 53.1517 23.447 48.8668 23.447C44.582 23.447 41.1085 26.9305 41.1085 31.2275C41.1085 35.5246 44.582 39.008 48.8668 39.008Z" fill="#4E4F9F"/>
<path d="M53.3839 34.842C49.4989 36.6492 44.8883 34.9593 43.0863 31.0632C42.4661 29.7136 42.2671 28.2937 42.4192 26.9207C40.9682 29.1034 40.6406 31.9551 41.8225 34.5134C43.6245 38.4095 48.2351 40.0994 52.1201 38.2921C54.6594 37.1069 56.2625 34.7129 56.5551 32.1076C55.7945 33.2577 54.7179 34.22 53.3839 34.842Z" fill="#591597"/>
<path d="M51.5818 26.1695C52.1318 27.3665 51.6169 28.7865 50.4233 29.3498C49.2297 29.9131 47.8138 29.385 47.2521 28.188C46.7021 26.991 47.217 25.571 48.4106 25.0077C49.6042 24.4561 51.0201 24.9725 51.5818 26.1695Z" fill="#7580E1"/>
<path d="M34.0771 48.6031C37.3054 45.7777 37.6387 40.8627 34.8214 37.6251C32.0041 34.3875 27.1031 34.0533 23.8747 36.8787C20.6464 39.704 20.3131 44.619 23.1304 47.8566C25.9477 51.0942 30.8487 51.4284 34.0771 48.6031Z" fill="#4E4F9F"/>
<path d="M33.4907 46.3544C29.6057 48.1617 24.9952 46.4718 23.1931 42.5757C22.5729 41.2261 22.374 39.8061 22.5261 38.4331C21.0751 40.6159 20.7474 43.4675 21.9293 46.0258C23.7314 49.9219 28.3419 51.6118 32.2269 49.8046C34.7662 48.6193 36.3694 46.2253 36.6619 43.6201C35.9013 44.7702 34.8247 45.7325 33.4907 46.3544Z" fill="#591597"/>
<path d="M29.5238 41.0736C30.8422 41.0736 31.911 40.0018 31.911 38.6796C31.911 37.3575 30.8422 36.2856 29.5238 36.2856C28.2054 36.2856 27.1366 37.3575 27.1366 38.6796C27.1366 40.0018 28.2054 41.0736 29.5238 41.0736Z" fill="#7580E1"/>
<g style="mix-blend-mode:multiply" opacity="0.31">
<path d="M32.2386 49.793C36.1236 47.9858 37.8087 43.3621 36.0066 39.4659C34.9417 37.1658 32.8939 35.6402 30.6004 35.1474C30.5184 35.253 30.4365 35.3468 30.3663 35.4525C30.3078 35.3116 30.2376 35.1826 30.1791 35.0652C29.2312 34.9126 28.2483 34.9479 27.2887 35.1591C27.4526 35.605 27.6632 36.004 27.8972 36.3326C26.6919 35.9219 25.5803 36.0275 24.7143 36.2622C24.2345 36.5791 23.7899 36.9428 23.4037 37.3418C24.8079 38.6679 26.2122 39.1256 27.4058 39.1608C25.7441 40.2639 25.4749 41.9655 25.4749 41.9655C26.3292 42.1298 27.043 42.1064 27.6515 41.9773C27.5462 42.4702 27.4643 42.9396 27.3941 43.3973C27.0313 45.8382 27.1132 47.8215 27.16 48.4786C27.16 48.4786 27.16 48.4786 27.16 48.4904C27.16 48.5373 27.16 48.5725 27.16 48.6077V48.6312C27.16 48.6547 27.16 48.6781 27.16 48.6899C27.16 48.7133 27.16 48.7133 27.16 48.7133C27.2536 49.1241 27.3706 49.5113 27.5111 49.8751C27.5813 50.0629 27.6632 50.2272 27.7451 50.4032C29.2195 50.6379 30.7759 50.4502 32.2269 49.7812L32.2386 49.793Z" fill="#916932"/>
</g>
<path d="M48.2945 32.1412C49.1568 27.9321 46.4534 23.8188 42.2563 22.9541C38.0591 22.0893 33.9576 24.8004 33.0953 29.0096C32.233 33.2187 34.9364 37.3319 39.1336 38.1967C43.3307 39.0615 47.4322 36.3503 48.2945 32.1412Z" fill="#4E4F9F"/>
<path d="M45.216 34.185C41.331 35.9922 36.7204 34.3023 34.9183 30.4062C34.2981 29.0567 34.0992 27.6367 34.2513 26.2637C32.8003 28.4464 32.4727 31.2981 33.6545 33.8564C35.4566 37.7525 40.0672 39.4424 43.9522 37.6352C46.4915 36.4499 48.0946 34.0559 48.3872 31.4507C47.6266 32.6007 46.55 33.563 45.216 34.185Z" fill="#591597"/>
<path d="M43.4139 25.5125C43.9639 26.7095 43.449 28.1295 42.2554 28.6928C41.0618 29.2443 39.6459 28.728 39.0842 27.531C38.5225 26.334 39.0491 24.914 40.2427 24.3507C41.4363 23.7992 42.8522 24.3155 43.4139 25.5125Z" fill="#7580E1"/>
<g style="mix-blend-mode:multiply" opacity="0.31">
<path d="M54.8349 17.1336C53.2786 17.7556 51.9446 18.6592 50.8095 19.6919C51.1137 17.4035 49.6627 15.5376 49.6627 15.5376C48.551 16.8989 48.2 18.178 48.2234 19.2459C46.55 17.028 43.8469 17.0514 43.8469 17.0514C44.1979 19.2459 45.2043 20.5486 46.2575 21.3114C44.2564 21.2762 43.0746 22.5436 43.0746 22.5436C44.7362 24.21 46.2926 24.2569 47.451 23.8462C47.1702 24.3039 46.9245 24.7498 46.7021 25.184C45.567 27.3785 44.9937 29.2679 44.8298 29.9133C44.8298 29.9133 44.8298 29.9133 44.8298 29.9251C44.8298 29.972 44.8064 30.0072 44.8064 30.0307C44.8064 30.0424 44.8064 30.0541 44.8064 30.0659C44.8064 30.0893 44.8064 30.1011 44.7947 30.1128C44.7947 30.1363 44.7947 30.1363 44.7947 30.1363C44.5607 32.5186 45.1575 34.4431 46.2692 35.9922C46.3277 35.9335 46.3979 35.8748 46.4564 35.8162C46.6787 35.5815 46.866 35.335 47.0532 35.0651C47.0649 35.0416 47.0883 35.0182 47.1 34.9947C47.2638 34.76 47.4159 34.5136 47.5564 34.2554C47.5681 34.2319 47.5915 34.1967 47.6032 34.1732C48.2 33.0349 48.5159 31.7558 48.5042 30.4531C48.9138 30.8404 49.3467 31.1807 49.8148 31.4624C50.0255 31.5915 50.2478 31.7088 50.4701 31.8144C51.1371 32.1313 51.8626 32.366 52.5999 32.4833C54.0743 32.7181 55.6306 32.5303 57.0934 31.8614C57.3859 31.7323 57.6551 31.568 57.9242 31.4037C57.9944 31.3568 58.0763 31.3098 58.1465 31.2511C58.3338 31.1221 58.521 30.9812 58.7082 30.8404C58.7784 30.7817 58.837 30.7348 58.9072 30.6761C59.1295 30.4766 59.3518 30.2771 59.5508 30.0659C59.7731 29.8312 59.9603 29.5847 60.1476 29.3148C60.1593 29.2913 60.1827 29.2679 60.1944 29.2444C60.3582 29.0097 60.5103 28.7633 60.6507 28.5051C60.6624 28.4816 60.6858 28.4464 60.6975 28.4229C61.7858 26.3458 61.9379 23.811 60.8731 21.5226C59.7263 19.0347 57.421 17.4504 54.9051 17.0984L54.8349 17.1336Z" fill="#916932"/>
</g>
<path d="M47.8255 30.7112C47.8255 30.7112 51.2542 16.1595 63.6347 16.758C74.4824 17.286 73.5696 38.8203 72.0952 41.0148C70.6207 43.2093 46.5383 44.0425 47.8255 30.6995V30.7112Z" fill="#FF4B40"/>
<path d="M61.7273 17.814C62.4528 18.7293 61.2476 21.0177 59.0593 22.9071C56.8594 24.8082 54.4956 25.5945 53.7701 24.6791C53.0446 23.7638 54.2498 21.4754 56.4381 19.586C58.638 17.6849 61.0018 16.8986 61.7273 17.814Z" fill="#F54631"/>
<path d="M68.8187 36.6374C64.606 38.785 57.7721 35.37 53.735 31.38C51.5935 29.2676 50.5169 27.2844 49.768 25.7588C48.3638 28.4579 47.8372 30.7228 47.8372 30.7228C46.5383 44.0658 70.6324 43.2326 72.1069 41.0381C72.7739 40.0406 73.3239 35.0766 72.7154 29.9013C72.2122 32.6122 71.2643 35.4052 68.8304 36.6491L68.8187 36.6374Z" fill="#BF1B18"/>
<path d="M52.9158 33.6686C52.9158 33.6686 54.32 35.687 54.8817 35.3115C55.4434 34.936 52.0148 32.1899 52.9158 33.6686Z" fill="#543D1D"/>
<path d="M57.0934 29.7255C57.0934 29.7255 58.4976 31.7439 59.0593 31.3684C59.621 30.9929 56.1923 28.2468 57.0934 29.7255Z" fill="#543D1D"/>
<path d="M62.2656 32.0372C62.2656 32.0372 63.6698 34.0557 64.2315 33.6802C64.7932 33.3046 61.3646 30.5586 62.2656 32.0372Z" fill="#543D1D"/>
<path d="M58.9891 35.3465C58.9891 35.3465 60.3933 37.365 60.955 36.9895C61.5167 36.614 58.0881 33.8679 58.9891 35.3465Z" fill="#543D1D"/>
<path d="M64.6528 37.3182C64.6528 37.3182 66.057 39.3367 66.6187 38.9612C67.1804 38.5856 63.7517 35.8396 64.6528 37.3182Z" fill="#543D1D"/>
<path d="M67.8123 33.7389C67.8123 33.7389 69.2165 35.7573 69.7782 35.3818C70.3399 35.0063 66.9112 32.2602 67.8123 33.7389Z" fill="#543D1D"/>
<path d="M60.4752 26.4161C60.4752 26.4161 61.8794 28.4346 62.4411 28.0591C63.0028 27.6835 59.5742 24.9375 60.4752 26.4161Z" fill="#543D1D"/>
<path d="M63.9858 21.9684C63.9858 21.9684 65.39 23.9868 65.9517 23.6113C66.5134 23.2358 63.0847 20.4897 63.9858 21.9684Z" fill="#543D1D"/>
<path d="M65.8464 28.0941C65.8464 28.0941 67.2506 30.1126 67.8123 29.737C68.374 29.3615 64.9453 26.6155 65.8464 28.0941Z" fill="#543D1D"/>
<path d="M52.5062 23.0013C52.5062 23.0013 47.7904 23.0013 46.9128 17.6031C46.9128 17.6031 51.8158 17.5444 52.5062 23.0013Z" fill="#51CE87"/>
<path d="M52.5648 22.9894C52.5648 22.9894 49.6159 26.5804 46.1404 23.1067C46.1404 23.1067 48.6797 20.4076 52.5648 22.9894Z" fill="#51CE87"/>
<path d="M52.5296 23.0129C52.5296 23.0129 49.6159 19.8913 52.7286 16.0891C52.7286 16.0891 55.5487 19.6918 52.5296 23.0129Z" fill="#51CE87"/>
<g style="mix-blend-mode:multiply" opacity="0.31">
<path d="M72.8792 36.8722C73.2185 31.7908 72.5632 23.5409 68.8654 19.3631C70.9484 17.1804 71.6388 13.9062 70.4101 10.9724C68.3154 11.2071 66.4549 12.099 65.0974 13.9649C62.8975 16.9574 62.2773 20.0321 62.4879 22.8837C60.5571 20.7479 57.5263 21.3112 57.5263 21.3112C58.2167 22.9307 59.188 23.8225 60.1476 24.3037C57.4093 24.7614 56.1923 27.1906 56.1923 27.1906C58.2987 27.8947 59.9018 27.6013 61.072 27.0145C60.1241 28.7748 60.6975 30.4178 60.6975 30.4178C62.4762 29.8545 63.3187 28.8805 63.6815 27.9064C64.056 28.857 64.4772 29.7371 64.9219 30.5234C66.1155 32.6944 67.391 34.22 67.824 34.7012C67.8591 34.7364 67.8825 34.7716 67.9059 34.795C67.9059 34.795 67.9059 34.8068 67.9176 34.8185C67.941 34.842 67.9527 34.8537 67.9527 34.8654C67.9644 34.8772 67.9761 34.8889 67.9761 34.8889C69.4388 36.0742 70.9367 36.6962 72.4462 36.8604C72.5983 36.8722 72.7504 36.8722 72.9026 36.8839L72.8792 36.8722Z" fill="#916932"/>
</g>
<path d="M29.8865 48.5372C29.8865 48.5372 28.3887 33.6569 40.2895 30.1832C50.7158 27.132 56.8593 47.7861 56.1806 50.3562C55.5019 52.9145 32.9992 61.5751 29.8865 48.5489V48.5372Z" fill="#FF4B40"/>
<path d="M40.2193 32.1431C41.8809 33.1992 41.4831 37.0367 39.3299 40.7098C37.1768 44.383 34.0992 46.5188 32.4376 45.4626C30.7759 44.4064 31.1738 40.569 33.3269 36.8959C35.4683 33.211 38.5576 31.0869 40.2193 32.1431Z" fill="#F54631"/>
<path d="M51.652 47.2698C48.3638 50.6848 40.8044 49.6873 35.6789 47.2346C32.9758 45.9437 31.3025 44.4064 30.0972 43.2211C29.6525 46.2371 29.8748 48.5489 29.8748 48.5489C32.9875 61.5751 55.4902 52.9262 56.1689 50.3562C56.4731 49.1944 55.3849 44.3242 53.1264 39.6301C53.536 42.3527 53.5477 45.31 51.652 47.2815V47.2698Z" fill="#BF1B18"/>
<path d="M38.7214 49.746C38.7214 49.746 40.4299 51.0017 40.781 50.5323C41.132 50.0629 37.5747 48.7954 38.7214 49.746Z" fill="#543D1D"/>
<path d="M41.015 45.3571C41.015 45.3571 42.7235 46.6128 43.0745 46.1434C43.4256 45.6739 39.8682 44.4065 41.015 45.3571Z" fill="#543D1D"/>
<path d="M45.8713 45.7795C45.8713 45.7795 47.5798 47.0351 47.9308 46.5657C48.2819 46.0963 44.7245 44.8289 45.8713 45.7795Z" fill="#543D1D"/>
<path d="M44.1277 49.394C44.1277 49.394 45.8362 50.6496 46.1872 50.1802C46.5383 49.7108 42.9809 48.4434 44.1277 49.394Z" fill="#543D1D"/>
<path d="M49.2999 49.4057C49.2999 49.4057 51.0084 50.6614 51.3595 50.1919C51.7105 49.7225 48.1532 48.4551 49.2999 49.4057Z" fill="#543D1D"/>
<path d="M50.868 45.6034C50.868 45.6034 52.5764 46.8591 52.9275 46.3897C53.2785 45.9203 49.7212 44.6529 50.868 45.6034Z" fill="#543D1D"/>
<path d="M42.8405 41.7074C42.8405 41.7074 44.549 42.9631 44.9 42.4937C45.2511 42.0243 41.6937 40.7569 42.8405 41.7074Z" fill="#543D1D"/>
<path d="M44.4554 37.0954C44.4554 37.0954 46.1638 38.351 46.5149 37.8816C46.8659 37.4122 43.3086 36.1448 44.4554 37.0954Z" fill="#543D1D"/>
<path d="M47.6851 41.5548C47.6851 41.5548 49.3935 42.8105 49.7446 42.3411C50.0956 41.8717 46.5383 40.6043 47.6851 41.5548Z" fill="#543D1D"/>
<path d="M33.3971 38.1045C33.3971 38.1045 29.5004 40.7567 25.7441 36.7901C25.7441 36.7901 29.7695 33.9854 33.3971 38.1045Z" fill="#51CE87"/>
<path d="M33.4322 38.0693C33.4322 38.0693 33.0109 42.7048 28.1898 41.7777C28.1898 41.7777 28.7749 38.1163 33.4322 38.0693Z" fill="#51CE87"/>
<path d="M33.4205 38.0927C33.4205 38.0927 29.2663 37.1539 29.711 32.2485C29.711 32.2485 34.0641 33.6333 33.4205 38.0927Z" fill="#51CE87"/>
<path d="M66.6772 24.5384C66.6772 24.5384 64.5007 28.7279 59.3284 27.0146C59.3284 27.0146 61.5401 22.6256 66.6772 24.5384Z" fill="#51CE87"/>
<path d="M66.6889 24.4915C66.6889 24.4915 68.5027 28.7748 63.8219 30.2535C63.8219 30.2535 62.6049 26.7446 66.6889 24.4915Z" fill="#51CE87"/>
<path d="M66.6889 24.5266C66.6889 24.5266 62.5815 25.6767 60.6624 21.1469C60.6624 21.1469 65.156 20.3019 66.6889 24.5266Z" fill="#51CE87"/>
<path d="M71.1005 34.7246C71.1005 34.7246 60.8965 23.8226 68.2335 13.8124C74.6696 5.03437 92.0585 17.6967 93.0766 20.1377C94.0946 22.5786 81.4683 43.174 71.1005 34.7246Z" fill="#FF4B40"/>
<path d="M74.494 14.3639C74.7866 13.2374 77.3142 12.8031 80.1577 13.4016C83.0013 14.0001 85.0608 15.4084 84.7683 16.5467C84.4757 17.6733 81.9481 18.1075 79.1046 17.509C76.261 16.9105 74.2015 15.5023 74.494 14.3639Z" fill="#F54631"/>
<path d="M87.6118 20.4427C87.0735 25.1485 80.462 28.9742 74.9036 30.1478C71.9664 30.7697 69.7197 30.5702 68.0346 30.359C69.509 33.0229 71.0888 34.7128 71.0888 34.7128C81.4566 43.1622 94.0829 22.5668 93.0649 20.1258C92.6085 19.0227 88.782 15.819 84.1481 13.4602C86.1257 15.3731 87.9278 17.7084 87.6118 20.4427Z" fill="#BF1B18"/>
<path d="M72.5398 32.9996C72.5398 32.9996 74.9972 32.9409 74.9972 32.272C74.9972 31.6031 70.8196 32.9409 72.5398 32.9996Z" fill="#543D1D"/>
<path d="M71.5686 27.3314C71.5686 27.3314 74.026 27.2727 74.026 26.6038C74.026 25.9349 69.8484 27.2727 71.5686 27.3314Z" fill="#543D1D"/>
<path d="M76.3429 24.2801C76.3429 24.2801 78.8003 24.2215 78.8003 23.5526C78.8003 22.8836 74.6227 24.2215 76.3429 24.2801Z" fill="#543D1D"/>
<path d="M77.2791 28.8453C77.2791 28.8453 79.7365 28.7866 79.7365 28.1177C79.7365 27.4488 75.5589 28.7866 77.2791 28.8453Z" fill="#543D1D"/>
<path d="M82.0534 25.1957C82.0534 25.1957 84.5108 25.137 84.5108 24.4681C84.5108 23.7992 80.3333 25.137 82.0534 25.1957Z" fill="#543D1D"/>
<path d="M80.813 20.5836C80.813 20.5836 83.2704 20.5249 83.2704 19.856C83.2704 19.1871 79.0928 20.5249 80.813 20.5836Z" fill="#543D1D"/>
<path d="M70.6792 22.6725C70.6792 22.6725 73.1366 22.6138 73.1366 21.9449C73.1366 21.276 68.9591 22.6138 70.6792 22.6725Z" fill="#543D1D"/>
<path d="M68.9239 17.286C68.9239 17.286 71.3813 17.2273 71.3813 16.5584C71.3813 15.8895 67.2038 17.2273 68.9239 17.286Z" fill="#543D1D"/>
<path d="M75.044 19.1048C75.044 19.1048 77.5014 19.0462 77.5014 18.3773C77.5014 17.7083 73.3238 19.0462 75.044 19.1048Z" fill="#543D1D"/>
<path d="M57.9406 48.022C61.873 46.3154 63.6814 41.735 61.9797 37.7914C60.278 33.8477 55.7106 32.0342 51.7782 33.7408C47.8458 35.4474 46.0375 40.0278 47.7392 43.9714C49.4409 47.915 54.0082 49.7285 57.9406 48.022Z" fill="#4E4F9F"/>
<path d="M59.3752 44.5004C55.4902 46.3076 50.8797 44.6178 49.0776 40.7217C48.4574 39.3721 48.2585 37.9521 48.4106 36.5791C46.9595 38.7619 46.6319 41.6135 47.8138 44.1718C49.6159 48.0679 54.2264 49.7578 58.1114 47.9506C60.6507 46.7653 62.2539 44.3713 62.5464 41.7661C61.7858 42.9162 60.7092 43.8784 59.3752 44.5004Z" fill="#591597"/>
<path d="M57.5731 35.8279C58.1231 37.0249 57.6082 38.4449 56.4146 39.0082C55.221 39.5715 53.8051 39.0434 53.2434 37.8464C52.6934 36.6494 53.2083 35.2294 54.4019 34.6662C55.5955 34.1146 57.0114 34.6309 57.5731 35.8279Z" fill="#7580E1"/>
<g style="mix-blend-mode:multiply" opacity="0.31">
<path d="M61.8911 37.6234C60.7678 35.2059 58.5678 33.6334 56.1221 33.2227C55.853 33.3987 55.5955 33.5747 55.3615 33.7742C55.0924 33.9972 54.8583 34.2319 54.6243 34.4783C54.5073 34.6074 54.402 34.7248 54.2966 34.8656C53.7467 35.5462 53.3137 36.309 52.986 37.1422C52.869 37.4239 52.7754 37.7055 52.6818 38.0107C52.6233 38.1984 52.5765 38.3979 52.5297 38.5857C52.4594 38.8791 52.3892 39.1842 52.3424 39.501C52.2722 39.8766 52.2254 40.2521 52.1903 40.6276C52.1669 40.8036 52.1552 40.9914 52.1435 41.1792C51.9914 43.5262 52.3073 46.0493 52.869 48.4198C54.5541 48.8658 56.4147 48.7602 58.1231 47.9622C62.0082 46.1549 63.6932 41.5312 61.8911 37.6351V37.6234Z" fill="#916932"/>
</g>
<path d="M61.9145 31.0048C61.9145 31.0048 76.7174 29.1623 80.4503 41.0149C83.7268 51.4007 63.2836 58.0311 60.7092 57.4091C58.1465 56.7872 48.9957 34.4315 61.9145 31.0048Z" fill="#FF4B40"/>
<path d="M63.6815 52.8089C60.2061 49.5934 61.0252 41.9889 63.3539 36.8019C64.5826 34.0559 66.0687 32.3543 67.2272 31.1103C64.2198 30.7348 61.9145 31.0164 61.9145 31.0164C48.9957 34.4431 58.1465 56.7989 60.7092 57.4208C61.8677 57.7025 66.7006 56.4937 71.3345 54.1232C68.6314 54.5926 65.6825 54.6748 63.6698 52.8206L63.6815 52.8089Z" fill="#BF1B18"/>
<path d="M71.3696 35.4877C70.9133 35.382 70.5271 35.1121 70.1994 34.7718C68.2803 32.7181 64.3602 32.6947 61.9262 33.3753C59.5624 34.0325 58.3338 36.18 57.854 37.0367C54.6126 42.9043 58.8486 51.1895 60.8497 54.534C61.3528 55.379 62.3475 55.8014 63.307 55.5785C67.3091 54.6396 77.5716 51.6002 78.5312 44.9346C79.5258 38.0811 73.476 35.9923 71.3579 35.4759L71.3696 35.4877Z" fill="#F54631"/>
<path d="M68.6665 38.4331C68.6665 38.4331 64.6176 43.8196 65.7293 45.1926C66.8527 46.5657 69.7197 38.4214 69.7197 38.4214" fill="#FF4B40"/>
<path d="M71.0771 34.5135C71.0771 34.5135 69.0878 30.2302 73.5813 27.1555C73.5813 27.1555 75.711 31.5797 71.0771 34.5135Z" fill="#51CE87"/>
<path d="M71.1122 34.5604C71.1122 34.5604 66.6187 33.3986 68.292 28.7749C68.292 28.7749 71.8143 29.9367 71.1122 34.5604Z" fill="#51CE87"/>
<path d="M71.0771 34.5369C71.0771 34.5369 72.6568 30.5704 77.4195 31.7909C77.4195 31.7909 75.3599 35.8747 71.0771 34.5369Z" fill="#51CE87"/>
<path d="M72.8323 46.6831C71.4983 48.9245 69.509 50.2037 68.3973 49.5348C67.2857 48.8658 67.4612 46.5071 68.7952 44.2656C70.1292 42.0242 72.1185 40.745 73.2302 41.4139C74.3419 42.0828 74.1664 44.4416 72.8206 46.6831H72.8323Z" fill="#FF6C5B"/>
<path d="M64.5708 42.1766C63.9975 44.7232 62.4996 46.5656 61.2358 46.2722C59.972 45.9789 59.4103 43.6787 59.9837 41.1322C60.5571 38.5856 62.0549 36.7432 63.3187 37.0366C64.5825 37.3299 65.1442 39.6301 64.5708 42.1766Z" fill="#FF6C5B"/>
<path d="M117.634 35.9892C120.315 32.637 119.779 27.7402 116.436 25.0517C113.094 22.3632 108.211 22.9013 105.53 26.2534C102.849 29.6056 103.385 34.5024 106.728 37.1909C110.071 39.8793 114.954 39.3413 117.634 35.9892Z" fill="#4E4F9F"/>
<path d="M113.11 36.7078C108.909 35.8746 106.171 31.7908 107.002 27.5778C107.283 26.1226 107.961 24.8552 108.897 23.8342C106.452 24.7378 104.509 26.8619 103.971 29.6197C103.14 33.8327 105.878 37.9166 110.079 38.7498C112.829 39.2896 115.521 38.2921 117.288 36.3675C116.001 36.8487 114.561 36.9895 113.11 36.7078Z" fill="#591597"/>
<path d="M116.749 28.6223C116.492 29.9249 115.24 30.7581 113.953 30.5117C112.654 30.2535 111.823 28.9978 112.069 27.7069C112.326 26.4043 113.578 25.5711 114.865 25.8176C116.153 26.064 116.995 27.3314 116.749 28.6223Z" fill="#7580E1"/>
<path d="M99.4775 30.6174C103.762 30.6174 107.236 27.1339 107.236 22.8369C107.236 18.5398 103.762 15.0564 99.4775 15.0564C95.1927 15.0564 91.7192 18.5398 91.7192 22.8369C91.7192 27.1339 95.1927 30.6174 99.4775 30.6174Z" fill="#4E4F9F"/>
<path d="M101.701 28.1882C97.4297 27.8948 94.2 24.1747 94.4925 19.8913C94.5978 18.4127 95.1127 17.0631 95.9084 15.9365C93.5915 17.1453 91.9298 19.4923 91.7426 22.297C91.45 26.5804 94.668 30.2888 98.9509 30.5939C101.748 30.7817 104.299 29.4673 105.808 27.3197C104.591 27.9535 103.187 28.282 101.713 28.1764L101.701 28.1882Z" fill="#591597"/>
<path d="M104.299 19.7153C104.205 21.0296 103.07 22.0271 101.759 21.9332C100.449 21.8394 99.4541 20.701 99.5477 19.3867C99.6413 18.0723 100.776 17.0748 102.087 17.1687C103.398 17.2626 104.392 18.4009 104.299 19.7153Z" fill="#7580E1"/>
<path d="M20.9814 50.6845C20.9814 50.6845 15.3528 51.2478 14.7794 46.0491C14.7794 46.0491 19.7644 43.3383 20.9814 50.6845Z" fill="#F1D210"/>
<path d="M15.9379 46.6946C15.9379 46.6946 17.0145 46.6477 19.1442 49.2647L15.9379 46.6946Z" fill="#916932"/>
<path d="M63.74 54.5102C63.74 54.5102 67.8825 50.6611 71.4749 54.4516C71.4749 54.4516 69.1346 59.6386 63.74 54.5102Z" fill="#F1D210"/>
<path d="M70.176 54.6393C70.176 54.6393 69.3452 55.3317 66.0687 54.5337L70.176 54.6393Z" fill="#916932"/>
<path d="M41.2374 54.3694C41.2374 54.3694 45.3798 50.5202 48.9723 54.3107C48.9723 54.3107 46.6319 59.4977 41.2374 54.3694Z" fill="#F1D210"/>
<path d="M47.6734 54.4984C47.6734 54.4984 46.8426 55.1908 43.566 54.3928L47.6734 54.4984Z" fill="#916932"/>
<path d="M131.33 46.7182C131.33 46.7182 127.656 51.025 123.654 47.6687C123.654 47.6687 125.385 42.247 131.33 46.7182Z" fill="#F1D210"/>
<path d="M124.917 47.3401C124.917 47.3401 125.655 46.5656 129.001 46.9763L124.917 47.3401Z" fill="#916932"/>
<path d="M57.9008 30.7932C57.9008 30.7932 59.8667 25.4771 64.7815 27.2374C64.7815 27.2374 65.0272 32.9173 57.9008 30.7932Z" fill="#F1D210"/>
<path d="M63.7049 28.0002C63.7049 28.0002 63.2719 28.986 59.9954 29.7605L63.7049 28.0002Z" fill="#916932"/>
<path d="M46.3042 25.5359C46.3042 25.5359 47.0532 31.1571 41.8926 31.9081C41.8926 31.9081 39.0257 27.0028 46.3042 25.5359Z" fill="#F1D210"/>
<path d="M42.4894 30.7346C42.4894 30.7346 42.4075 29.6667 44.9468 27.437L42.4894 30.7346Z" fill="#916932"/>
<path d="M119.78 44.2302C119.78 44.2302 121.746 38.9141 126.661 40.6744C126.661 40.6744 126.907 46.3543 119.78 44.2302Z" fill="#F1D210"/>
<path d="M125.584 41.4373C125.584 41.4373 125.151 42.423 121.875 43.1975L125.584 41.4373Z" fill="#916932"/>
<path d="M117.381 49.3467C117.381 49.3467 119.347 44.0306 124.262 45.7909C124.262 45.7909 124.508 51.4708 117.381 49.3467Z" fill="#F1D210"/>
<path d="M123.185 46.542C123.185 46.542 122.753 47.5278 119.476 48.3023L123.185 46.542Z" fill="#916932"/>
<path d="M111.858 37.5294C111.858 37.5294 117.44 36.661 118.306 41.8245C118.306 41.8245 113.473 44.8053 111.858 37.5294Z" fill="#F1D210"/>
<path d="M117.112 41.2495C117.112 41.2495 116.047 41.3551 113.777 38.8555L117.112 41.2495Z" fill="#916932"/>
<path d="M54.3902 54.4516C54.3902 54.4516 48.7617 55.0149 48.1883 49.8162C48.1883 49.8162 53.1733 47.1053 54.3902 54.4516Z" fill="#F1D210"/>
<path d="M49.3351 50.45C49.3351 50.45 50.4116 50.4031 52.5414 53.02L49.3351 50.45Z" fill="#916932"/>
<path d="M17.2719 44.9811C17.2719 44.9811 16.0784 50.5202 10.9646 49.4757C10.9646 49.4757 9.92318 43.878 17.2719 44.9811Z" fill="#F1D210"/>
<path d="M11.9242 48.572C11.9242 48.572 12.205 47.5393 15.3528 46.3071L11.9242 48.572Z" fill="#916932"/>
<g style="mix-blend-mode:multiply" opacity="0.31">
<path d="M91.9532 23.8461C90.9 23.6936 89.8234 23.5762 88.7001 23.4823C87.3427 23.365 86.0203 23.2946 84.7565 23.2711C83.8321 23.0364 83.0832 22.9308 82.5449 22.9777C82.1587 23.0129 81.8896 23.1185 81.7258 23.2946C75.3951 23.541 70.8547 24.9845 70.6675 27.1085C70.6558 27.2611 70.6675 27.4019 70.7026 27.5545C70.609 28.5989 70.4803 30.1597 70.4335 30.723C70.3984 31.1924 70.9249 31.7557 71.9079 32.3425C71.8377 32.3659 71.7675 32.3894 71.6973 32.4129C71.6739 32.4129 71.6505 32.4364 71.6271 32.4481C71.5685 32.4716 71.5217 32.495 71.4749 32.5302C71.4515 32.542 71.4281 32.5537 71.4164 32.5772C71.3813 32.6124 71.3462 32.6359 71.3111 32.6711C71.2994 32.6828 71.276 32.7063 71.2643 32.718C71.2292 32.7649 71.1941 32.8236 71.1707 32.8823C71.1356 32.9644 71.1005 33.0701 71.0537 33.1991C71.0069 33.3282 70.9601 33.4691 70.9015 33.6216C70.8781 33.6803 70.8547 33.7507 70.8313 33.8094C70.4686 34.7951 69.9654 36.1564 69.7665 36.6728C69.3101 37.8933 72.9611 40.4516 78.5663 43.0803C73.5696 43.3032 69.4973 43.9252 67.4729 44.7701C67.3559 44.8171 67.2506 44.864 67.1569 44.911C66.958 45.0048 66.7825 45.1105 66.6421 45.2043C66.5719 45.2513 66.5016 45.31 66.4431 45.3569C66.3261 45.4625 66.2325 45.5681 66.174 45.6738C66.1155 45.7794 66.0804 45.885 66.0804 46.0023C66.0804 46.7651 66.0453 49.2765 66.0336 50.051C66.0336 51.1541 69.0761 52.1516 73.7217 52.7736C78.3205 49.9219 81.9832 45.885 80.4503 41.0148C79.8886 39.2428 79.0811 37.7876 78.1216 36.5789C84.0544 35.4171 89.5894 28.4112 91.9415 23.8579L91.9532 23.8461Z" fill="#916932"/>
</g>
<path d="M105.972 44.3476C106.581 42.6929 99.6998 38.5973 90.6075 35.1941C81.5035 31.7908 73.6281 30.3826 73.0196 32.0255C72.7505 32.7414 71.8845 35.1002 71.6154 35.816C71.0069 37.4707 77.8876 41.5663 86.9799 44.9696C96.084 48.3728 103.959 49.781 104.568 48.1381C104.837 47.4222 105.703 45.0634 105.972 44.3476Z" fill="#F1D210"/>
<path d="M105.972 44.3478C105.364 46.0025 97.4765 44.5825 88.3842 41.1793C79.2801 37.7761 72.3994 33.6805 73.0196 32.0258C73.6281 30.3711 81.5152 31.7911 90.6075 35.1943C99.7116 38.5975 106.592 42.6932 105.972 44.3478Z" fill="#FFF688"/>
<path d="M84.4757 34.6192C82.9077 34.1381 81.1758 35.0065 81.1758 35.3234C81.1758 35.5698 82.112 35.4172 83.3172 36.0861C84.23 36.579 84.4289 37.0602 85.1076 37.6469C86.3597 38.7149 87.0618 38.2572 89.0278 39.0552C91.3681 39.994 90.9118 40.8507 93.0181 41.4961C93.7085 41.7073 95.2883 42.1768 97.184 41.4961C97.769 41.2849 98.6701 41.0971 98.7286 40.7098C98.752 40.5573 98.6584 40.2052 95.3936 39.0317C92.8075 38.1046 92.7372 38.2806 91.9181 37.7643C90.6543 36.9546 90.5373 36.3561 89.4607 36.1214C88.3724 35.8866 88.1267 36.4265 87.0501 36.1918C85.7278 35.8984 85.7161 35.0065 84.464 34.6192H84.4757Z" fill="#F1D210"/>
<path d="M87.0384 37.3773C87.0384 37.3773 88.8171 37.7293 89.0043 37.0839C89.2033 36.4384 85.8214 37.0252 87.0384 37.3773Z" fill="#916932"/>
<path d="M89.7182 38.4098C89.7182 38.4098 90.3384 40.2992 90.8883 40.0528C91.4383 39.8063 89.3671 37.0485 89.7182 38.4098Z" fill="#916932"/>
<path d="M85.997 35.4174C85.997 35.4174 84.1715 35.9102 84.2066 36.5557C84.2417 37.2011 87.2842 35.1709 85.997 35.4174Z" fill="#916932"/>
<path d="M94.6563 39.8297C94.6563 39.8297 92.8308 40.3226 92.8659 40.968C92.9011 41.6135 95.9435 39.5833 94.6563 39.8297Z" fill="#916932"/>
<path d="M91.9181 38.6094C91.9181 38.6094 93.5681 39.337 93.8606 38.7267C94.1532 38.1165 90.8064 38.0109 91.9181 38.6094Z" fill="#916932"/>
<path d="M113.789 40.4633C114.678 38.9494 108.628 33.7038 100.262 28.7515C91.8947 23.7992 84.3938 21.0179 83.4928 22.5435C83.1066 23.2007 81.8311 25.3717 81.4449 26.0289C80.5556 27.5427 86.6055 32.7884 94.9723 37.7407C103.339 42.693 110.84 45.4743 111.741 43.9487C112.127 43.2915 113.403 41.1205 113.789 40.4633Z" fill="#F1D210"/>
<path d="M113.786 40.452C114.679 38.9336 108.622 33.6901 100.256 28.7401C91.8896 23.7902 84.3835 21.0084 83.4902 22.5267C82.597 24.045 88.6549 29.2886 97.0209 34.2385C105.387 39.1884 112.893 41.9703 113.786 40.452Z" fill="#FFF688"/>
<path d="M94.3287 27.0968C92.866 26.3457 91.0171 26.8973 90.9469 27.2141C90.9 27.4488 91.8479 27.4723 92.9245 28.3407C93.7319 28.9862 93.8489 29.5025 94.4106 30.1949C95.4521 31.474 96.2244 31.1455 98.0265 32.272C100.156 33.6099 99.5594 34.3727 101.525 35.3819C102.157 35.7105 103.643 36.4498 105.633 36.1212C106.241 36.0156 107.166 35.9921 107.283 35.6166C107.329 35.464 107.306 35.1002 104.287 33.3752C101.9 32.0021 101.806 32.1664 101.092 31.5092C99.9924 30.5 99.9807 29.878 98.9626 29.4556C97.9329 29.0331 97.6052 29.526 96.5754 29.1035C95.335 28.5872 95.4755 27.707 94.3053 27.1085L94.3287 27.0968Z" fill="#F1D210"/>
<path d="M96.3648 30.2656C96.3648 30.2656 98.0499 30.9228 98.3541 30.3243C98.6584 29.7258 95.2297 29.7141 96.3648 30.2656Z" fill="#916932"/>
<path d="M98.8222 31.7559C98.8222 31.7559 99.0913 33.7274 99.6881 33.5866C100.285 33.4458 98.7169 30.3594 98.8222 31.7559Z" fill="#916932"/>
<path d="M95.6861 28.1531C95.6861 28.1531 93.8021 28.3174 93.7202 28.9629C93.65 29.6083 96.9967 28.1414 95.6861 28.1531Z" fill="#916932"/>
<path d="M103.433 34.0208C103.433 34.0208 101.549 34.1851 101.467 34.8306C101.397 35.476 104.743 34.0091 103.433 34.0208Z" fill="#916932"/>
<path d="M100.964 32.3426C100.964 32.3426 102.461 33.3401 102.859 32.8003C103.257 32.2605 99.9807 31.5564 100.964 32.3426Z" fill="#916932"/>
<path d="M103.093 45.5213C103.117 43.761 95.2531 42.2472 85.5406 42.1415C75.828 42.0359 67.941 43.3855 67.9176 45.1458C67.9176 45.9086 67.8825 48.4199 67.8708 49.1944C67.8474 50.9547 75.711 52.4686 85.4236 52.5742C95.1361 52.6798 103.023 51.3303 103.047 49.57C103.047 48.8072 103.082 46.2958 103.093 45.5213Z" fill="#F1D210"/>
<path d="M103.093 45.5213C103.07 47.2816 95.1829 48.6312 85.4704 48.5255C75.7578 48.4199 67.8942 46.9061 67.9176 45.1458C67.941 43.3855 75.828 42.0359 85.5406 42.1415C95.2531 42.2472 103.117 43.761 103.093 45.5213Z" fill="#FFF688"/>
<path d="M79.5843 43.6788C77.9461 43.7609 76.6121 45.1574 76.7174 45.4743C76.7993 45.6973 77.6301 45.2513 78.9875 45.4626C80.0173 45.6151 80.3684 46.0024 81.1992 46.3192C82.7438 46.906 83.247 46.2371 85.3651 46.3075C87.881 46.3896 87.7405 47.3519 89.9405 47.2463C90.6543 47.2111 92.3043 47.1055 93.8723 45.8381C94.3521 45.4391 95.1361 44.9579 95.0542 44.5707C95.0191 44.4181 94.8202 44.113 91.3447 44.1247C88.5948 44.1247 88.5948 44.3242 87.6469 44.113C86.1842 43.7844 85.8682 43.2563 84.78 43.3971C83.68 43.5497 83.6332 44.1365 82.5449 44.2773C81.2109 44.4533 80.895 43.6201 79.5843 43.6788Z" fill="#F1D210"/>
<path d="M82.9194 45.4157C82.9194 45.4157 84.7097 45.1458 84.6746 44.4652C84.6395 43.7845 81.6673 45.4979 82.9194 45.4157Z" fill="#916932"/>
<path d="M85.7863 45.4744C85.7863 45.4744 87.0033 47.047 87.448 46.6245C87.8927 46.202 85.0023 44.3126 85.7863 45.4744Z" fill="#916932"/>
<path d="M81.2694 43.9253C81.2694 43.9253 79.713 45.0167 79.9705 45.6152C80.2279 46.2137 82.3928 43.2682 81.2694 43.9253Z" fill="#916932"/>
<path d="M90.9117 45.1224C90.9117 45.1224 89.3554 46.2137 89.6128 46.8122C89.8703 47.4107 92.0351 44.4652 90.9117 45.1224Z" fill="#916932"/>
<path d="M87.9278 44.9111C87.9278 44.9111 89.7298 45.0284 89.8001 44.3595C89.8703 43.6906 86.6757 44.7233 87.9278 44.9111Z" fill="#916932"/>
<g style="mix-blend-mode:multiply" opacity="0.31">
<path d="M103.164 30.5354C99.9222 31.5446 95.2531 32.1431 90.0692 32.0962C88.8054 32.0845 87.5767 32.0258 86.3831 31.9436C87.8107 33.0585 89.4841 34.2555 91.3447 35.476C91.099 35.3821 90.8532 35.2882 90.5958 35.1943C89.1681 34.6662 87.7756 34.1851 86.4416 33.7509C85.4002 33.4223 84.3938 33.1172 83.4342 32.8473C83.1534 32.7651 82.8842 32.6947 82.6034 32.6243C82.3577 32.5656 82.1236 32.4952 81.8896 32.4365C81.6322 32.3661 81.3864 32.3074 81.129 32.2488C76.577 31.1574 73.3823 31.0048 72.9962 32.0258C72.926 32.2253 72.7973 32.5656 72.6568 32.9529C74.4823 35.2412 81.4449 37.0133 89.7884 37.1072C98.2605 37.201 105.364 35.5229 107.084 33.211C105.89 32.3426 104.556 31.439 103.152 30.5354H103.164Z" fill="#916932"/>
</g>
<path d="M107.657 28.9393C107.809 27.2143 100.074 25.1371 90.3969 24.3039C80.7194 23.4707 72.7505 24.1983 72.6101 25.9234C72.5515 26.6744 72.3409 29.1271 72.2707 29.8782C72.1186 31.6033 79.6546 34.5605 89.332 35.3937C99.0094 36.227 107.166 34.6192 107.318 32.8941C107.376 32.1431 107.587 29.6904 107.657 28.9393Z" fill="#F1D210"/>
<path d="M107.699 29.2822C107.941 26.4409 100.261 23.4603 90.5448 22.6249C80.8282 21.7895 72.7543 23.4156 72.5115 26.257C72.2686 29.0983 79.9486 32.0788 89.6652 32.9142C99.3819 33.7496 107.456 32.1235 107.699 29.2822Z" fill="#FFF688"/>
<path d="M104.006 26.4631C103.901 26.9678 101.443 26.8621 98.518 26.2284C95.5925 25.5947 93.3223 24.6559 93.4277 24.1513C93.533 23.6467 95.9904 23.7523 98.9158 24.386C101.841 25.0197 104.111 25.9585 104.006 26.4631Z" fill="#FFF85E"/>
<path d="M104.474 31.1572C104.521 31.6736 102.146 32.3073 99.1616 32.5772C96.1776 32.8471 93.7319 32.6359 93.6851 32.1195C93.6383 31.6032 96.0138 30.9695 98.9977 30.6996C101.982 30.4297 104.427 30.6409 104.474 31.1572Z" fill="#FFF85E"/>
<path d="M96.5287 29.925C98.1669 29.878 99.5243 27.707 99.419 27.2141C99.3488 26.8386 98.5063 27.531 97.1488 27.1203C96.1191 26.8151 95.7797 26.1814 94.9489 25.6299C93.416 24.6206 92.9011 25.6651 90.783 25.4304C88.2671 25.1605 88.4193 23.6231 86.2076 23.6818C85.4938 23.6935 83.8438 23.7757 82.2641 25.7355C81.7726 26.3457 80.9886 27.0733 81.0588 27.6953C81.0939 27.9417 81.2928 28.4346 84.7683 28.6106C87.5182 28.7397 87.5182 28.4346 88.4661 28.8219C89.9171 29.4204 90.2331 30.2888 91.3213 30.1127C92.433 29.9367 92.4798 28.9862 93.5798 28.8101C94.9255 28.5989 95.218 29.9602 96.5287 29.925Z" fill="#F1D210"/>
<path d="M86.6405 26.0994C86.6405 26.0994 88.4426 25.9586 88.466 25.2897C88.4894 24.6208 85.3885 26.0877 86.6405 26.0994Z" fill="#916932"/>
<path d="M89.4958 26.3693C89.4958 26.3693 90.5958 28.024 91.0639 27.6367C91.5319 27.2495 88.8054 25.1489 89.4958 26.3693Z" fill="#916932"/>
<path d="M87.9863 27.2611C87.9863 27.2611 86.5937 28.6693 87.0618 29.0566C87.5299 29.4439 89.0277 26.334 87.9863 27.2611Z" fill="#916932"/>
<path d="M85.1193 24.4917C85.1193 24.4917 83.4928 25.4657 83.7034 26.076C83.914 26.6862 86.3012 23.9167 85.1193 24.4917Z" fill="#916932"/>
<path d="M94.6329 26.4163C94.6329 26.4163 93.0064 27.3903 93.217 28.0005C93.4276 28.6108 95.8148 25.8412 94.6329 26.4163Z" fill="#916932"/>
<path d="M97.3478 28.4582C97.3478 28.4582 97.1137 27.0031 96.4701 26.9092C95.8265 26.8153 97.4063 29.4675 97.3478 28.4582Z" fill="#916932"/>
<path d="M91.684 25.9702C91.684 25.9702 93.4744 26.2167 93.5915 25.5595C93.7085 24.9023 90.4554 25.6886 91.684 25.9702Z" fill="#916932"/>
<path d="M117.522 44.0897C117.288 42.3763 109.295 42.0595 99.6764 43.3738C90.0575 44.6999 82.4396 47.1643 82.6736 48.8777C82.779 49.6287 83.1066 52.0697 83.2119 52.809C83.446 54.5223 91.4383 55.7428 101.069 54.4285C110.7 53.1141 118.294 49.7461 118.06 48.021C117.955 47.2699 117.627 44.829 117.522 44.0897Z" fill="#F1D210"/>
<path d="M117.627 44.4183C118.013 47.2465 110.501 50.6145 100.835 51.9406C91.1809 53.2667 83.0364 52.0579 82.6502 49.2297C82.2641 46.4015 89.7767 43.0335 99.4424 41.7074C109.096 40.3813 117.241 41.59 117.627 44.4183Z" fill="#FFF688"/>
<path d="M113.414 42.482C113.414 42.9983 111.004 43.4443 108.008 43.4677C105.024 43.4912 102.59 43.0805 102.59 42.5641C102.59 42.0478 105.001 41.6018 107.996 41.5784C110.98 41.5549 113.414 41.9656 113.414 42.482Z" fill="#FFF85E"/>
<path d="M114.901 46.953C115.064 47.4459 112.876 48.596 110.033 49.4996C107.189 50.4149 104.755 50.7553 104.591 50.2506C104.427 49.7578 106.616 48.6077 109.459 47.7041C112.303 46.7887 114.737 46.4484 114.901 46.953Z" fill="#FFF85E"/>
<path d="M106.885 47.5046C108.476 47.1056 109.319 44.6881 109.108 44.2187C108.956 43.8784 108.277 44.7233 106.873 44.6295C105.808 44.5591 105.328 44.0192 104.404 43.6672C102.684 43.0217 102.415 44.1483 100.297 44.3948C97.7807 44.6764 97.5935 43.1626 95.4521 43.6906C94.7616 43.8667 93.1585 44.3009 92.0585 46.5658C91.7192 47.2582 91.099 48.1618 91.3096 48.7368C91.3915 48.9715 91.6958 49.4057 95.1244 48.8072C97.8392 48.3261 97.769 48.0327 98.7754 48.2087C100.332 48.4786 100.823 49.2532 101.853 48.8424C102.894 48.42 102.731 47.4929 103.76 47.0821C105.024 46.5775 105.609 47.8449 106.885 47.5163V47.5046Z" fill="#F1D210"/>
<path d="M96.3999 45.9557C96.3999 45.9557 98.1318 45.4158 98.0031 44.7587C97.8743 44.1015 95.1712 46.2256 96.3999 45.9557Z" fill="#916932"/>
<path d="M99.2434 45.5918C99.2434 45.5918 100.671 46.9648 101.057 46.4837C101.432 46.0025 98.3073 44.5591 99.2434 45.5918Z" fill="#916932"/>
<path d="M97.9562 46.8005C97.9562 46.8005 96.9031 48.4903 97.4531 48.7603C98.003 49.0302 98.7754 45.6621 97.9562 46.8005Z" fill="#916932"/>
<path d="M94.551 44.7233C94.551 44.7233 93.1702 46.0259 93.5095 46.5775C93.8489 47.129 95.5691 43.8901 94.551 44.7233Z" fill="#916932"/>
<path d="M104.264 44.4887C104.264 44.4887 102.883 45.7913 103.222 46.3429C103.561 46.8944 105.282 43.6555 104.264 44.4887Z" fill="#916932"/>
<path d="M107.353 45.8968C107.353 45.8968 106.803 44.5238 106.159 44.5708C105.516 44.6177 107.634 46.8591 107.353 45.8968Z" fill="#916932"/>
<path d="M101.28 44.7234C101.28 44.7234 103.082 44.5708 103.047 43.9019C103.011 43.233 100.016 44.7234 101.28 44.7234Z" fill="#916932"/>
<path d="M119.289 43.5967C119.289 43.5967 121.758 44.5238 123.115 44.1835C123.115 44.1835 122.87 45.2162 122.94 45.756C122.94 45.756 119.359 45.1458 118.61 44.2656C118.61 44.2656 119.148 44.1952 119.289 43.585V43.5967Z" fill="#E6E6E6"/>
<path d="M112.385 50.72C112.385 50.72 115.825 50.9547 117.381 50.0159C117.381 50.0159 117.463 51.3889 117.756 52.0461C117.756 52.0461 113.063 52.6328 111.8 51.8231C111.8 51.8231 112.443 51.5297 112.385 50.72Z" fill="#E6E6E6"/>
<path d="M75.711 54.0176C75.711 54.0176 78.3089 56.2825 80.1109 56.482C80.1109 56.482 79.3503 57.632 79.1865 58.3244C79.1865 58.3244 75.0908 55.9539 74.576 54.5339C74.576 54.5339 75.2664 54.6982 75.711 54.0176Z" fill="#E6E6E6"/>
<path d="M55.9583 56.3296C55.9583 56.3296 53.77 55.6137 52.7286 55.9423C52.7286 55.9423 52.7286 55.0739 52.5764 54.6162C52.5764 54.6162 55.6189 55.0269 56.3912 55.7428C56.3912 55.7428 55.9583 55.8132 55.97 56.3296H55.9583Z" fill="#E6E6E6"/>
<path d="M51.8392 55.2615C51.8392 55.2615 53.1732 56.1768 54.1796 55.7778C54.1796 55.7778 54.2381 56.6462 54.437 57.0922C54.437 57.0922 51.3712 56.9279 50.552 56.2707C50.552 56.2707 51.886 55.7896 51.8392 55.2732V55.2615Z" fill="#E6E6E6"/>
<path d="M78.0163 55.191C78.0163 55.191 79.6312 55.0267 80.1343 54.0645C80.1343 54.0645 80.7428 54.6864 81.1758 54.8977C81.1758 54.8977 78.7301 56.7518 77.6769 56.787C77.6769 56.787 78.3791 55.5548 78.0163 55.191Z" fill="#E6E6E6"/>
<path d="M78.0163 44.2421C78.0163 44.2421 79.6312 44.0778 80.1343 43.1155C80.1343 43.1155 80.7428 43.7374 81.1758 43.9487C81.1758 43.9487 78.7301 45.8029 77.6769 45.8381C77.6769 45.8381 78.3791 44.6059 78.0163 44.2421Z" fill="#E6E6E6"/>
<path d="M109.81 51.4475C109.81 51.4475 110.384 52.9614 111.448 53.2078C111.448 53.2078 111.004 53.9589 110.91 54.4283C110.91 54.4283 108.488 52.5389 108.184 51.5297C108.184 51.5297 109.553 51.8935 109.81 51.4475Z" fill="#E6E6E6"/>
<path d="M115.451 42.0945C115.451 42.0945 117.054 42.341 117.791 41.5312C117.791 41.5312 118.224 42.294 118.587 42.5992C118.587 42.5992 115.755 43.7844 114.725 43.5497C114.725 43.5497 115.708 42.5288 115.451 42.0828V42.0945Z" fill="#E6E6E6"/>
<path d="M74.9387 29.573C74.9387 29.573 76.5536 29.5848 77.1738 28.6929C77.1738 28.6929 77.7121 29.3853 78.1099 29.6434C78.1099 29.6434 75.477 31.216 74.4238 31.1338C74.4238 31.1338 75.2547 29.9838 74.9387 29.5848V29.573Z" fill="#E6E6E6"/>
<path d="M88.7118 55.7662C88.7118 55.7662 90.3267 55.6019 90.8298 54.6396C90.8298 54.6396 91.4383 55.2616 91.8713 55.4729C91.8713 55.4729 89.4256 57.327 88.3724 57.3622C88.3724 57.3622 89.0745 56.13 88.7118 55.7662Z" fill="#E6E6E6"/>
<path d="M16.8975 49.875C16.8975 49.875 14.7092 49.1591 13.6678 49.4877C13.6678 49.4877 13.6678 48.6193 13.5157 48.1616C13.5157 48.1616 16.5581 48.5724 17.3305 49.2882C17.3305 49.2882 16.8975 49.3586 16.9092 49.875H16.8975Z" fill="#E6E6E6"/>
<path d="M56.5317 56.6814C56.5317 56.6814 59.2816 57.3855 60.5337 56.9044C60.5337 56.9044 60.5922 57.984 60.8146 58.5239C60.8146 58.5239 57.0466 58.2539 56.0519 57.4325C56.0519 57.4325 56.5785 57.3151 56.5317 56.6697V56.6814Z" fill="#E6E6E6"/>
<path d="M26.2707 53.6187C26.2707 53.6187 29.0206 54.3228 30.2727 53.8416C30.2727 53.8416 30.3312 54.9213 30.5535 55.4611C30.5535 55.4611 26.7856 55.1912 25.7909 54.3697C25.7909 54.3697 26.3175 54.2524 26.2707 53.6069V53.6187Z" fill="#E6E6E6"/>
<path d="M26.9494 53.7241C26.9494 53.7241 23.5441 53.196 21.9176 53.9823C21.9176 53.9823 21.9527 52.6093 21.7187 51.9286C21.7187 51.9286 26.4462 51.7526 27.6281 52.6679C27.6281 52.6679 26.9611 52.9027 26.9494 53.7124V53.7241Z" fill="#E6E6E6"/>
</g>
<defs>
<filter id="filter0_f_609_4857" x="27.1218" y="107.459" width="88.4145" height="28.897" filterUnits="userSpaceOnUse" color-interpolation-filters="sRGB">
<feFlood flood-opacity="0" result="BackgroundImageFix"/>
<feBlend mode="normal" in="SourceGraphic" in2="BackgroundImageFix" result="shape"/>
<feGaussianBlur stdDeviation="2" result="effect1_foregroundBlur_609_4857"/>
</filter>
<clipPath id="clip0_609_4857">
<rect width="138" height="122" fill="white"/>
</clipPath>
</defs>
</svg>
