<svg width="80" height="80" viewBox="0 0 80 80" fill="none" xmlns="http://www.w3.org/2000/svg">
<mask id="mask0_34_634" style="mask-type:alpha" maskUnits="userSpaceOnUse" x="0" y="0" width="80" height="80">
<rect width="80" height="80" fill="#D9D9D9"/>
</mask>
<g mask="url(#mask0_34_634)">
<path d="M14.1025 70V34.1025H10V19.3592H27.1408C26.4786 18.7736 26.0203 18.0789 25.7658 17.275C25.5119 16.4717 25.385 15.6278 25.385 14.7433C25.385 12.5356 26.1578 10.6589 27.7033 9.11333C29.2489 7.56778 31.1256 6.795 33.3333 6.795C34.6111 6.795 35.7842 7.09528 36.8525 7.69583C37.9208 8.29583 38.8417 9.07667 39.615 10.0383C40.3889 9.06389 41.31 8.27972 42.3783 7.68583C43.4467 7.09194 44.6197 6.795 45.8975 6.795C48.1053 6.795 49.9819 7.56778 51.5275 9.11333C53.0731 10.6589 53.8458 12.5356 53.8458 14.7433C53.8458 15.6111 53.7156 16.4478 53.455 17.2533C53.1944 18.0589 52.7394 18.7608 52.09 19.3592H70V34.1025H65.8975V70H14.1025ZM45.8975 10.1283C44.5897 10.1283 43.4936 10.5706 42.6092 11.455C41.7242 12.3394 41.2817 13.4356 41.2817 14.7433C41.2817 16.0511 41.7242 17.1472 42.6092 18.0317C43.4936 18.9167 44.5897 19.3592 45.8975 19.3592C47.2053 19.3592 48.3014 18.9167 49.1858 18.0317C50.0703 17.1472 50.5125 16.0511 50.5125 14.7433C50.5125 13.4356 50.0703 12.3394 49.1858 11.455C48.3014 10.5706 47.2053 10.1283 45.8975 10.1283ZM28.7183 14.7433C28.7183 16.0511 29.1606 17.1472 30.045 18.0317C30.9294 18.9167 32.0256 19.3592 33.3333 19.3592C34.6411 19.3592 35.7372 18.9167 36.6217 18.0317C37.5061 17.1472 37.9483 16.0511 37.9483 14.7433C37.9483 13.4356 37.5061 12.3394 36.6217 11.455C35.7372 10.5706 34.6411 10.1283 33.3333 10.1283C32.0256 10.1283 30.9294 10.5706 30.045 11.455C29.1606 12.3394 28.7183 13.4356 28.7183 14.7433ZM13.3333 22.6925V30.7692H38.3333V22.6925H13.3333ZM38.3333 66.6667V34.1025H17.4358V66.6667H38.3333ZM41.6667 66.6667H62.5642V34.1025H41.6667V66.6667ZM66.6667 30.7692V22.6925H41.6667V30.7692H66.6667Z" fill="#1C1B1F"/>
</g>
</svg>
