<svg width="80" height="80" viewBox="0 0 80 80" fill="none" xmlns="http://www.w3.org/2000/svg">
<mask id="mask0_34_635" style="mask-type:alpha" maskUnits="userSpaceOnUse" x="0" y="0" width="80" height="80">
<rect width="80" height="80" fill="#D9D9D9"/>
</mask>
<g mask="url(#mask0_34_635)">
<path d="M18.9592 63.7183C16.5336 63.7183 14.4767 62.8706 12.7883 61.175C11.1006 59.48 10.2567 57.4217 10.2567 55H5.64084V22.0517C5.64084 20.5172 6.15473 19.2361 7.18251 18.2083C8.21028 17.1806 9.49139 16.6667 11.0258 16.6667H55.1283V28.7183H62.8208L74.3592 44.2308V55H68.9742C68.9742 57.4217 68.1253 59.48 66.4275 61.175C64.7292 62.8706 62.6672 63.7183 60.2417 63.7183C57.8156 63.7183 55.7586 62.8706 54.0708 61.175C52.3825 59.48 51.5383 57.4217 51.5383 55H27.6925C27.6925 57.4361 26.8433 59.4981 25.145 61.1858C23.4472 62.8742 21.3853 63.7183 18.9592 63.7183ZM18.9742 60.385C20.4742 60.385 21.7467 59.8625 22.7917 58.8175C23.8367 57.7725 24.3592 56.5 24.3592 55C24.3592 53.5 23.8367 52.2275 22.7917 51.1825C21.7467 50.1375 20.4742 49.615 18.9742 49.615C17.4742 49.615 16.2017 50.1375 15.1567 51.1825C14.1122 52.2275 13.59 53.5 13.59 55C13.59 56.5 14.1122 57.7725 15.1567 58.8175C16.2017 59.8625 17.4742 60.385 18.9742 60.385ZM8.97417 51.6667H11.1283C11.6028 50.1967 12.5686 48.9317 14.0258 47.8717C15.4831 46.8117 17.1325 46.2817 18.9742 46.2817C20.7308 46.2817 22.3592 46.8011 23.8592 47.84C25.3592 48.8783 26.3464 50.1539 26.8208 51.6667H51.795V20H11.0258C10.5131 20 10.0428 20.2136 9.615 20.6408C9.18778 21.0681 8.97417 21.5383 8.97417 22.0517V51.6667ZM60.2567 60.385C61.7567 60.385 63.0289 59.8625 64.0733 58.8175C65.1183 57.7725 65.6408 56.5 65.6408 55C65.6408 53.5 65.1183 52.2275 64.0733 51.1825C63.0289 50.1375 61.7567 49.615 60.2567 49.615C58.7567 49.615 57.4842 50.1375 56.4392 51.1825C55.3942 52.2275 54.8717 53.5 54.8717 55C54.8717 56.5 55.3942 57.7725 56.4392 58.8175C57.4842 59.8625 58.7567 60.385 60.2567 60.385ZM55.1283 45H70.8333L61.0258 32.0517H55.1283V45Z" fill="#1C1B1F"/>
</g>
</svg>
