<svg width="80" height="80" viewBox="0 0 80 80" fill="none" xmlns="http://www.w3.org/2000/svg">
<mask id="mask0_34_636" style="mask-type:alpha" maskUnits="userSpaceOnUse" x="0" y="0" width="80" height="80">
<rect width="80" height="80" fill="#D9D9D9"/>
</mask>
<g mask="url(#mask0_34_636)">
<path d="M38.3333 68.3333V42.0067C35.205 42.0067 32.2156 41.4222 29.365 40.2533C26.515 39.0844 23.9894 37.3994 21.7883 35.1983C19.5878 32.9978 17.9169 30.4594 16.7758 27.5833C15.6347 24.7072 15.0642 21.7094 15.0642 18.59V15.2567H18.3975C21.4569 15.2567 24.4189 15.8536 27.2833 17.0475C30.1483 18.2414 32.6736 19.935 34.8592 22.1283C36.6242 23.8933 38.0547 25.8997 39.1508 28.1475C40.2469 30.3953 40.9722 32.7714 41.3267 35.2758C41.8183 34.3314 42.3697 33.4436 42.9808 32.6125C43.5919 31.7808 44.2842 30.9783 45.0575 30.205C47.2525 28.0122 49.7892 26.3186 52.6675 25.1242C55.5453 23.9303 58.545 23.3333 61.6667 23.3333H65V26.6667C65 29.79 64.4022 32.7911 63.2067 35.67C62.0117 38.5494 60.3161 41.0872 58.12 43.2833C55.9244 45.4789 53.4156 47.1472 50.5933 48.2883C47.7705 49.4294 44.795 50 41.6667 50V68.3333H38.3333ZM38.3975 38.59C38.3975 35.9233 37.8836 33.3817 36.8558 30.965C35.8281 28.5483 34.3697 26.3956 32.4808 24.5067C30.5919 22.6178 28.4392 21.1594 26.0225 20.1317C23.6058 19.1039 21.0642 18.59 18.3975 18.59C18.3975 21.2567 18.8975 23.8122 19.8975 26.2567C20.8975 28.7011 22.3419 30.8678 24.2308 32.7567C26.1197 34.6456 28.2864 36.09 30.7308 37.09C33.1753 38.09 35.7308 38.59 38.3975 38.59ZM41.6667 46.6667C44.3333 46.6667 46.875 46.1667 49.2917 45.1667C51.7083 44.1667 53.8611 42.7222 55.75 40.8333C57.6389 38.9444 59.0972 36.7778 60.125 34.3333C61.1528 31.8889 61.6667 29.3333 61.6667 26.6667C59 26.6667 56.4444 27.1806 54 28.2083C51.5555 29.2361 49.3889 30.6944 47.5 32.5833C45.6111 34.4722 44.1667 36.625 43.1667 39.0417C42.1667 41.4583 41.6667 44 41.6667 46.6667Z" fill="#1C1B1F"/>
</g>
</svg>
