<svg width="80" height="80" viewBox="0 0 80 80" fill="none" xmlns="http://www.w3.org/2000/svg">
<mask id="mask0_34_638" style="mask-type:alpha" maskUnits="userSpaceOnUse" x="0" y="0" width="80" height="80">
<rect width="80" height="80" fill="#D9D9D9"/>
</mask>
<g mask="url(#mask0_34_638)">
<path d="M22.0517 70C20.5172 70 19.2361 69.4861 18.2084 68.4583C17.1806 67.4306 16.6667 66.1494 16.6667 64.615V28.7183C16.6667 27.1839 17.1806 25.9028 18.2084 24.875C19.2361 23.8472 20.5172 23.3333 22.0517 23.3333H28.3334V21.6667C28.3334 18.4272 29.4681 15.6731 31.7375 13.4042C34.0064 11.1347 36.7606 10 40 10C43.2395 10 45.9936 11.1347 48.2625 13.4042C50.532 15.6731 51.6667 18.4272 51.6667 21.6667V23.3333H57.9484C59.4828 23.3333 60.7639 23.8472 61.7917 24.875C62.8195 25.9028 63.3334 27.1839 63.3334 28.7183V64.615C63.3334 66.1494 62.8195 67.4306 61.7917 68.4583C60.7639 69.4861 59.4828 70 57.9484 70H22.0517ZM22.0517 66.6667H57.9484C58.4617 66.6667 58.932 66.4531 59.3592 66.0258C59.7864 65.5986 60 65.1283 60 64.615V28.7183C60 28.205 59.7864 27.7347 59.3592 27.3075C58.932 26.8803 58.4617 26.6667 57.9484 26.6667H51.6667V35C51.6667 35.4744 51.5075 35.8708 51.1892 36.1892C50.8709 36.5075 50.4745 36.6667 50 36.6667C49.5256 36.6667 49.1292 36.5075 48.8109 36.1892C48.4925 35.8708 48.3334 35.4744 48.3334 35V26.6667H31.6667V35C31.6667 35.4744 31.5075 35.8708 31.1892 36.1892C30.8709 36.5075 30.4745 36.6667 30 36.6667C29.5256 36.6667 29.1292 36.5075 28.8109 36.1892C28.4925 35.8708 28.3334 35.4744 28.3334 35V26.6667H22.0517C21.5384 26.6667 21.0681 26.8803 20.6409 27.3075C20.2136 27.7347 20 28.205 20 28.7183V64.615C20 65.1283 20.2136 65.5986 20.6409 66.0258C21.0681 66.4531 21.5384 66.6667 22.0517 66.6667ZM31.6667 23.3333H48.3334V21.6667C48.3334 19.3206 47.5311 17.345 45.9267 15.74C44.3217 14.1356 42.3461 13.3333 40 13.3333C37.6539 13.3333 35.6784 14.1356 34.0734 15.74C32.4689 17.345 31.6667 19.3206 31.6667 21.6667V23.3333Z" fill="#1C1B1F"/>
</g>
</svg>
