<svg width="98" height="98" viewBox="0 0 98 98" fill="none" xmlns="http://www.w3.org/2000/svg">
<circle cx="49" cy="49" r="49" fill="#FFEB80"/>
<circle cx="49" cy="49" r="44" fill="#FFDD13"/>
<g clip-path="url(#clip0_835_4827)">
<path d="M49.9176 82.9817C68.0628 82.9764 82.7681 68.2441 82.7628 50.0761C82.7576 31.9081 68.0438 17.1842 49.8986 17.1895C31.7534 17.1947 17.0481 31.9271 17.0533 50.0951C17.0586 68.2631 31.7724 82.9869 49.9176 82.9817Z" fill="#CD936E"/>
<path d="M77.8805 32.8278C78.8729 35.963 79.4096 39.3018 79.4106 42.764C79.4159 60.9324 64.7109 75.6644 46.5654 75.6696C34.7383 75.6731 24.372 69.4175 18.5835 60.0313C22.7966 73.3396 35.2331 82.9859 49.9176 82.9817C68.0632 82.9764 82.7681 68.2444 82.7629 50.076C82.761 43.7496 80.9734 37.843 77.8805 32.8278Z" fill="#923B27"/>
<path d="M81.7628 50.0765C81.7679 67.6934 67.509 81.9767 49.9173 81.9818C32.3256 81.9869 18.0584 67.7118 18.0533 50.0949C18.0482 32.478 32.3072 18.1947 49.8989 18.1896C67.4906 18.1845 81.7577 32.4596 81.7628 50.0765Z" stroke="black" stroke-width="2"/>
<path d="M42.6874 49.9551C43.9391 49.9547 44.9534 48.9385 44.9531 47.6853C44.9527 46.4321 43.9378 45.4165 42.6861 45.4168C41.4345 45.4172 40.4202 46.4334 40.4205 47.6866C40.4209 48.9398 41.4358 49.9554 42.6874 49.9551Z" fill="#3B170E"/>
<path d="M57.1257 49.9509C58.3773 49.9506 59.3917 48.9343 59.3913 47.6811C59.3909 46.4279 58.376 45.4123 57.1244 45.4127C55.8727 45.413 54.8584 46.4293 54.8587 47.6825C54.8591 48.9357 55.8741 49.9513 57.1257 49.9509Z" fill="#3B170E"/>
<path d="M49.9104 57.7839C47.4809 57.7846 45.5066 55.8059 45.5059 53.3765C45.5057 52.7938 45.9767 52.3188 46.5617 52.3187C47.1468 52.3185 47.618 52.7901 47.6182 53.3758C47.6185 54.643 48.6473 55.6724 49.9128 55.672C51.1784 55.6717 52.2065 54.6416 52.2061 53.3745C52.206 52.7918 52.6769 52.3169 53.262 52.3167C53.847 52.3166 54.3183 52.7881 54.3184 53.3739C54.3191 55.8064 52.3429 57.7832 49.9165 57.7839L49.9104 57.7839Z" fill="#3B170E"/>
<path d="M49.9158 76.5134C52.8527 76.5125 55.2329 74.128 55.232 71.1874C55.2311 68.2468 52.8496 65.8637 49.9127 65.8646C46.9758 65.8654 44.5957 68.2499 44.5965 71.1905C44.5974 74.1311 46.9789 76.5142 49.9158 76.5134Z" fill="#5C2416"/>
<path d="M74.1983 77.1169C77.324 77.116 79.8571 74.5782 79.8562 71.4486C79.8553 68.319 77.3207 65.7827 74.195 65.7836C71.0694 65.7845 68.5363 68.3223 68.5372 71.4519C68.5381 74.5815 71.0727 77.1178 74.1983 77.1169Z" fill="#5C2416"/>
<path d="M61.7232 82.9782C63.3915 82.9778 64.7435 81.6233 64.743 79.9529C64.7425 78.2825 63.3897 76.9288 61.7214 76.9293C60.0532 76.9298 58.7012 78.2843 58.7017 79.9546C58.7021 81.625 60.0549 82.9787 61.7232 82.9782Z" fill="#5C2416"/>
<path d="M77.2145 61.6422C78.8828 61.6417 80.2348 60.2872 80.2343 58.6168C80.2338 56.9465 78.881 55.5928 77.2127 55.5932C75.5445 55.5937 74.1925 56.9482 74.193 58.6186C74.1934 60.289 75.5462 61.6427 77.2145 61.6422Z" fill="#5C2416"/>
<path d="M43.786 36.8149C45.4441 36.8144 46.7878 35.4682 46.7873 33.8081C46.7868 32.1479 45.4423 30.8025 43.7843 30.803C42.1262 30.8034 40.7825 32.1497 40.7829 33.8098C40.7834 35.47 42.1279 36.8154 43.786 36.8149Z" fill="#5C2416"/>
<path d="M66.3967 38.094C67.5038 38.0937 68.401 37.1948 68.4007 36.0863C68.4004 34.9779 67.5026 34.0795 66.3956 34.0799C65.2885 34.0802 64.3913 34.979 64.3916 36.0875C64.3919 37.196 65.2896 38.0943 66.3967 38.094Z" fill="#5C2416"/>
<path d="M43.1826 26.5145C44.2897 26.5142 45.1869 25.6154 45.1865 24.5069C45.1862 23.3984 44.2885 22.5001 43.1814 22.5004C42.0743 22.5007 41.1771 23.3996 41.1775 24.508C41.1778 25.6165 42.0755 26.5148 43.1826 26.5145Z" fill="#5C2416"/>
<path d="M25.5887 49.7103C26.7026 49.71 27.6053 48.8056 27.605 47.6903C27.6047 46.5751 26.7014 45.6712 25.5875 45.6715C24.4737 45.6719 23.5709 46.5762 23.5713 47.6915C23.5716 48.8068 24.4748 49.7106 25.5887 49.7103Z" fill="#5C2416"/>
<path d="M39.1059 69.4318C40.2197 69.4314 41.1224 68.5271 41.1221 67.4118C41.1218 66.2965 40.2186 65.3926 39.1047 65.393C37.9908 65.3933 37.0881 66.2977 37.0884 67.413C37.0887 68.5282 37.992 69.4321 39.1059 69.4318Z" fill="#5C2416"/>
<path d="M62.7346 66.7581C63.8485 66.7577 64.7512 65.8534 64.7509 64.7381C64.7506 63.6228 63.8474 62.7189 62.7335 62.7193C61.6196 62.7196 60.7169 63.624 60.7172 64.7392C60.7175 65.8545 61.6208 66.7584 62.7346 66.7581Z" fill="#5C2416"/>
<path d="M50.9156 20.1767C52.5737 20.1762 53.9174 18.83 53.9169 17.1699C53.9165 15.5097 52.5719 14.1643 50.9139 14.1648C49.2558 14.1653 47.9121 15.5115 47.9126 17.1716C47.913 18.8318 49.2575 20.1772 50.9156 20.1767Z" fill="#5C2416"/>
<path d="M29.3683 65.2817C31.0366 65.2812 32.3886 63.9267 32.3881 62.2564C32.3876 60.586 31.0349 59.2323 29.3666 59.2328C27.6983 59.2333 26.3463 60.5877 26.3468 62.2581C26.3473 63.9285 27.7001 65.2822 29.3683 65.2817Z" fill="#5C2416"/>
<path d="M81.0421 51.4517C83.1253 51.4511 84.8135 49.7597 84.8129 47.6738C84.8123 45.588 83.1231 43.8976 81.0399 43.8982C78.9567 43.8988 77.2684 45.5902 77.269 47.676C77.2696 49.7619 78.9588 51.4523 81.0421 51.4517Z" fill="#5C2416"/>
<path d="M57.2829 29.2637C59.3525 29.2631 61.0298 27.5827 61.0292 25.5105C61.0286 23.4383 59.3503 21.7589 57.2807 21.7595C55.2111 21.7601 53.5339 23.4405 53.5345 25.5127C53.5351 27.5849 55.2133 29.2643 57.2829 29.2637Z" fill="#5C2416"/>
<path d="M29.3722 78.7485C31.4554 78.7479 33.1437 77.0565 33.1431 74.9707C33.1425 72.8849 31.4532 71.1945 29.37 71.1951C27.2868 71.1957 25.5985 72.8871 25.5991 74.9729C25.5997 77.0587 27.289 78.7491 29.3722 78.7485Z" fill="#5C2416"/>
<path d="M27.5912 42.7791C29.6745 42.7785 31.3627 41.0871 31.3621 39.0012C31.3615 36.9154 29.6723 35.225 27.5891 35.2256C25.5059 35.2262 23.8176 36.9176 23.8182 39.0034C23.8188 41.0892 25.508 42.7797 27.5912 42.7791Z" fill="#5C2416"/>
<path d="M32.8677 27.7909C35.7842 27.79 38.1478 25.4221 38.147 22.5019C38.1461 19.5817 35.7812 17.2152 32.8647 17.216C29.9482 17.2168 27.5846 19.5848 27.5854 22.505C27.5863 25.4251 29.9512 27.7917 32.8677 27.7909Z" fill="#5C2416"/>
<path d="M77.241 36.0806C80.1575 36.0798 82.5211 33.7119 82.5202 30.7917C82.5194 27.8715 80.1544 25.505 77.2379 25.5058C74.3214 25.5066 71.9578 27.8746 71.9587 30.7947C71.9595 33.7149 74.3245 36.0815 77.241 36.0806Z" fill="#5C2416"/>
<path d="M18.5073 62.7321C21.4442 62.7313 23.8244 60.3468 23.8235 57.4062C23.8227 54.4656 21.4412 52.0825 18.5043 52.0833C15.5674 52.0842 13.1872 54.4687 13.1881 57.4093C13.1889 60.3499 15.5704 62.733 18.5073 62.7321Z" fill="#5C2416"/>
</g>
<defs>
<clipPath id="clip0_835_4827">
<rect width="71.9818" height="69.1682" fill="white" transform="translate(13 14) rotate(-0.0165768)"/>
</clipPath>
</defs>
</svg>
