<svg width="240" height="96" viewBox="0 0 240 96" fill="none" xmlns="http://www.w3.org/2000/svg">
<mask id="mask0_494_673" style="mask-type:alpha" maskUnits="userSpaceOnUse" x="92" y="8" width="56" height="57">
<rect x="92" y="8.5" width="56" height="56" fill="#D9D9D9"/>
</mask>
<g mask="url(#mask0_494_673)">
<path d="M137.664 47.4135C138.401 47.7927 139.297 47.6527 139.883 47.0672V47.0672C140.477 46.4732 140.611 45.5601 140.214 44.82L139.76 43.9754C138.871 42.3196 136.45 42.4674 135.768 44.2191V44.2191C135.36 45.2693 135.811 46.4584 136.812 46.9744L137.664 47.4135ZM127.382 44.1107C127.302 45.0371 128.032 45.8333 128.962 45.8333V45.8333C129.61 45.8333 130.192 45.4402 130.434 44.84L134.854 33.8766C135.476 32.3324 134.722 30.5767 133.174 29.9648L132.496 29.6969C130.628 28.9588 128.577 30.2287 128.405 32.2296L127.382 44.1107ZM109.566 44.84C109.808 45.4402 110.391 45.8333 111.038 45.8333V45.8333C111.968 45.8333 112.698 45.0372 112.618 44.1107L111.595 32.2296C111.423 30.2287 109.372 28.9588 107.504 29.6969L106.826 29.9648C105.278 30.5767 104.524 32.3324 105.146 33.8766L109.566 44.84ZM100.117 47.0672C100.703 47.6527 101.599 47.7927 102.336 47.4135L103.188 46.9744C104.19 46.4584 104.64 45.2693 104.232 44.2191V44.2191C103.55 42.4674 101.129 42.3196 100.24 43.9754L99.7862 44.82C99.3887 45.5601 99.5232 46.4732 100.117 47.0672V47.0672ZM117.206 43.2767C117.335 44.7239 118.547 45.8333 120 45.8333V45.8333C121.453 45.8333 122.665 44.7239 122.794 43.2767L124.143 28.0989C124.299 26.3441 122.917 24.8333 121.155 24.8333H118.845C117.083 24.8333 115.701 26.3441 115.857 28.0989L117.206 43.2767ZM102.178 52.8036C101.016 53.4113 99.5939 53.1938 98.6666 52.2665L95.0135 48.6134C94.0878 47.6877 93.8692 46.2686 94.4736 45.1073L99.5373 35.3762C99.9372 34.6076 99.9853 33.7037 99.6693 32.8971L99.0365 31.2818C98.4352 29.7468 99.1851 28.0143 100.716 27.402L109.572 23.8595C110.291 23.572 110.735 22.8466 110.665 22.0757V22.0757C110.572 21.0505 111.379 20.1666 112.409 20.1666H127.535C128.57 20.1666 129.386 21.0448 129.311 22.0763V22.0763C129.255 22.8497 129.706 23.5706 130.426 23.8586L139.265 27.3941C140.803 28.0095 141.551 29.7554 140.936 31.2937L140.346 32.7691C140.02 33.5821 140.067 34.4966 140.472 35.2726L145.58 45.0472C146.187 46.2092 145.969 47.6308 145.042 48.5579L141.403 52.1965C140.499 53.1012 139.12 53.3326 137.969 52.7726L133.922 50.8025C133.513 50.6034 133.064 50.5 132.609 50.5H107.32C106.836 50.5 106.359 50.6171 105.93 50.8415L102.178 52.8036Z" fill="#25282A"/>
</g>
<path d="M83.4688 72.7344C85.5195 72.7344 87.1602 73.2812 88.3906 74.375C88.8945 74.8203 89.2539 75.2695 89.4688 75.7227C89.6875 76.1719 89.7969 76.7383 89.7969 77.4219C89.7969 77.9414 89.6133 78.3848 89.2461 78.752C88.8828 79.1152 88.4414 79.2969 87.9219 79.2969C87.4023 79.2969 86.959 79.1152 86.5918 78.752C86.2285 78.3848 86.0469 77.9414 86.0469 77.4219C86.0469 77.1562 86.0996 76.9062 86.2051 76.6719C86.3105 76.4336 86.457 76.2266 86.6445 76.0508C86.3633 75.5273 85.9824 75.1562 85.502 74.9375C85.0254 74.7188 84.4258 74.6094 83.7031 74.6094C83.2305 74.6094 82.791 74.7051 82.3848 74.8965C81.9824 75.0879 81.6328 75.3555 81.3359 75.6992C81.043 76.043 80.791 76.4492 80.5801 76.918C80.3691 77.3867 80.2109 77.9023 80.1055 78.4648C80.0039 79.0234 79.9531 79.6133 79.9531 80.2344C79.9531 80.8477 80.0156 81.4375 80.1406 82.0039C80.2656 82.5703 80.4473 83.0859 80.6855 83.5508C80.9238 84.0156 81.2031 84.4219 81.5234 84.7695C81.8438 85.1133 82.2109 85.3809 82.625 85.5723C83.043 85.7637 83.4805 85.8594 83.9375 85.8594C84.6016 85.8594 85.2188 85.6816 85.7891 85.3262C86.3633 84.9707 86.8379 84.4727 87.2129 83.832C87.5918 83.1875 87.8281 82.457 87.9219 81.6406L89.7969 82.1094C89.7031 82.5664 89.5938 82.9922 89.4688 83.3867C89.3438 83.7773 89.1875 84.168 89 84.5586C88.8125 84.9453 88.5996 85.2949 88.3613 85.6074C88.123 85.9199 87.8418 86.2109 87.5176 86.4805C87.1934 86.75 86.8359 86.9766 86.4453 87.1602C86.0547 87.3398 85.6074 87.4805 85.1035 87.582C84.5996 87.6836 84.0547 87.7344 83.4688 87.7344C82.7695 87.7344 82.1016 87.6602 81.4648 87.5117C80.832 87.3672 80.2578 87.1641 79.7422 86.9023C79.2305 86.6406 78.7578 86.3281 78.3242 85.9648C77.8906 85.6016 77.5156 85.2012 77.1992 84.7637C76.8828 84.3223 76.6133 83.8555 76.3906 83.3633C76.1719 82.8672 76.0078 82.3574 75.8984 81.834C75.7891 81.3066 75.7344 80.7734 75.7344 80.2344C75.7344 79.6953 75.7891 79.1641 75.8984 78.6406C76.0078 78.1133 76.1719 77.6035 76.3906 77.1113C76.6133 76.6152 76.8828 76.1484 77.1992 75.7109C77.5156 75.2695 77.8906 74.8672 78.3242 74.5039C78.7578 74.1406 79.2305 73.8281 79.7422 73.5664C80.2578 73.3047 80.832 73.1016 81.4648 72.957C82.1016 72.8086 82.7695 72.7344 83.4688 72.7344ZM90.2544 76.7188H93.893L94.6313 78.1426C95.3227 77.0371 96.3013 76.4844 97.5669 76.4844C98.4145 76.4844 99.0864 76.7461 99.5825 77.2695C100.083 77.7891 100.333 78.4648 100.333 79.2969C100.333 79.8164 100.149 80.2598 99.7817 80.627C99.4184 80.9902 98.977 81.1719 98.4575 81.1719C97.938 81.1719 97.4946 80.9902 97.1274 80.627C96.7641 80.2598 96.5825 79.8164 96.5825 79.2969C96.5825 79.0859 96.6157 78.8828 96.6821 78.6875C96.5766 78.625 96.4653 78.5938 96.3481 78.5938C96.0864 78.5938 95.8149 78.7656 95.5337 79.1094C95.2563 79.4492 94.9888 79.959 94.7309 80.6387L94.7075 85.625H97.2856V87.5H90.2544V85.625H91.4263V78.5938H90.2544V76.7188ZM100.79 76.7188H105.243V83.2812C105.243 83.8984 105.298 84.3789 105.407 84.7227C105.52 85.0664 105.681 85.3027 105.888 85.4316C106.099 85.5605 106.384 85.625 106.743 85.625C107.071 85.625 107.407 85.4863 107.751 85.209C108.099 84.9316 108.427 84.5449 108.735 84.0488L108.759 78.5938H107.587V76.7188H112.04V85.625H113.212V87.5H109.573L108.753 85.9062C108.093 87.125 107.001 87.7344 105.478 87.7344C104.931 87.7344 104.452 87.6602 104.042 87.5117C103.632 87.3633 103.296 87.1602 103.034 86.9023C102.772 86.6406 102.56 86.3105 102.395 85.9121C102.235 85.5098 102.122 85.0801 102.056 84.623C101.993 84.1621 101.962 83.6367 101.962 83.0469V78.5938H100.79V76.7188ZM128.201 76.4844C128.748 76.4844 129.226 76.5586 129.636 76.707C130.046 76.8555 130.382 77.0605 130.644 77.3223C130.906 77.5801 131.117 77.9102 131.277 78.3125C131.441 78.7109 131.554 79.1406 131.617 79.6016C131.683 80.0586 131.716 80.582 131.716 81.1719V85.625H132.888V87.5H127.263V85.625H128.435V80.9375C128.435 80.3203 128.378 79.8398 128.265 79.4961C128.156 79.1523 127.996 78.916 127.785 78.7871C127.578 78.6582 127.294 78.5938 126.935 78.5938C126.599 78.5938 126.253 78.7402 125.898 79.0332C125.542 79.3262 125.206 79.7363 124.89 80.2637C124.91 80.5449 124.919 80.8477 124.919 81.1719V85.625H126.091V87.5H120.466V85.625H121.638V80.9375C121.638 80.3203 121.581 79.8398 121.468 79.4961C121.359 79.1523 121.199 78.916 120.988 78.7871C120.781 78.6582 120.498 78.5938 120.138 78.5938C119.81 78.5938 119.474 78.7324 119.13 79.0098C118.787 79.2871 118.46 79.6738 118.152 80.1699L118.123 85.625H119.294V87.5H113.669V85.625H114.841V78.5938H113.669V76.7188H117.308L118.128 78.3066C118.273 78.0449 118.439 77.8105 118.626 77.6035C118.818 77.3926 119.044 77.2012 119.306 77.0293C119.572 76.8535 119.882 76.7188 120.238 76.625C120.593 76.5312 120.982 76.4844 121.404 76.4844C121.876 76.4844 122.298 76.5391 122.669 76.6484C123.04 76.7539 123.355 76.9121 123.613 77.123C123.874 77.3301 124.091 77.5781 124.263 77.8672C124.435 78.1523 124.572 78.4844 124.673 78.8633C124.771 78.6094 124.884 78.3711 125.013 78.1484C125.146 77.9258 125.314 77.7109 125.517 77.5039C125.72 77.293 125.945 77.1152 126.191 76.9707C126.441 76.8223 126.738 76.7051 127.081 76.6191C127.425 76.5293 127.798 76.4844 128.201 76.4844ZM140.682 76.4844C141.596 76.4844 142.369 76.7168 143.002 77.1816C143.639 77.6426 144.111 78.291 144.42 79.127C144.732 79.959 144.889 80.9551 144.889 82.1152C144.889 82.9629 144.771 83.7402 144.537 84.4473C144.303 85.1504 143.978 85.7422 143.564 86.2227C143.154 86.6992 142.662 87.0703 142.088 87.3359C141.518 87.6016 140.896 87.7344 140.225 87.7344C139.912 87.7344 139.611 87.707 139.322 87.6523C139.033 87.5977 138.781 87.5312 138.566 87.4531C138.351 87.3711 138.141 87.2676 137.934 87.1426C137.73 87.0176 137.56 86.9023 137.424 86.7969C137.291 86.6914 137.156 86.5664 137.019 86.4219C136.887 86.2773 136.787 86.1641 136.721 86.082C136.658 86 136.588 85.9043 136.51 85.7949L135.367 87.5H133.814V74.8438H132.643V72.9688H137.096V78.4766C137.256 78.1992 137.443 77.9453 137.658 77.7148C137.873 77.4844 138.125 77.2754 138.414 77.0879C138.707 76.8965 139.047 76.748 139.434 76.6426C139.82 76.5371 140.236 76.4844 140.682 76.4844ZM137.096 83.9902C137.303 84.4707 137.572 84.8535 137.904 85.1387C138.236 85.4199 138.629 85.5605 139.082 85.5605C139.855 85.5605 140.43 85.2578 140.805 84.6523C141.184 84.0469 141.373 83.1875 141.373 82.0742C141.373 81.5508 141.31 81.0684 141.185 80.627C141.064 80.1816 140.9 79.8125 140.693 79.5195C140.49 79.2266 140.256 79 139.99 78.8398C139.725 78.6758 139.447 78.5938 139.158 78.5938C138.728 78.5938 138.35 78.7266 138.021 78.9922C137.697 79.2539 137.389 79.6465 137.096 80.1699V83.9902ZM145.006 72.9688H149.459V85.625H150.631V87.5H145.006V85.625H146.178V74.8438H145.006V72.9688ZM151.399 91.1152C151.192 90.8027 151.089 90.457 151.089 90.0781C151.089 89.5586 151.27 89.1152 151.634 88.748C152.001 88.3848 152.444 88.2031 152.964 88.2031C153.483 88.2031 153.925 88.3848 154.288 88.748C154.655 89.1152 154.839 89.5586 154.839 90.0781C154.839 90.1875 154.829 90.293 154.809 90.3945C154.825 90.3984 154.839 90.4004 154.85 90.4004C155.132 90.4004 155.475 89.9355 155.882 89.0059L156.321 87.998L152.19 78.5938H151.089V76.7188H157.651V78.5938H155.724L157.581 82.8125C157.819 83.3672 157.991 83.8359 158.097 84.2188C158.202 83.8359 158.374 83.3672 158.612 82.8125L160.464 78.5938H158.823V76.7188H163.745V78.5938H162.503L158.589 87.5C158.386 87.9609 158.202 88.3574 158.038 88.6895C157.878 89.0254 157.696 89.3652 157.493 89.709C157.294 90.0566 157.1 90.3496 156.913 90.5879C156.725 90.8262 156.513 91.0527 156.274 91.2676C156.04 91.4824 155.796 91.6523 155.542 91.7773C155.288 91.9062 155.007 92.0059 154.698 92.0762C154.39 92.1504 154.058 92.1875 153.702 92.1875C153.37 92.1875 153.077 92.1602 152.823 92.1055C152.569 92.0547 152.352 91.9766 152.173 91.8711C151.997 91.7695 151.85 91.6582 151.733 91.5371C151.616 91.4199 151.505 91.2793 151.399 91.1152Z" fill="#25282A"/>
</svg>
