<svg width="90" height="85" viewBox="0 0 90 85" fill="none" xmlns="http://www.w3.org/2000/svg">
<mask id="mask0_805_218" style="mask-type:alpha" maskUnits="userSpaceOnUse" x="17" y="0" width="56" height="57">
<rect x="17" y="0.5" width="56" height="56" fill="#D9D9D9"/>
</mask>
<g mask="url(#mask0_805_218)">
<path d="M62.6645 39.4135C63.4006 39.7927 64.2973 39.6527 64.8828 39.0672V39.0672C65.4768 38.4732 65.6113 37.5601 65.2139 36.82L64.7603 35.9754C63.8711 34.3196 61.4497 34.4674 60.7685 36.2191V36.2191C60.3601 37.2693 60.8105 38.4584 61.8122 38.9744L62.6645 39.4135ZM52.3817 36.1107C52.3019 37.0371 53.0324 37.8333 53.9624 37.8333V37.8333C54.6095 37.8333 55.1918 37.4402 55.4338 36.84L59.8538 25.8766C60.4764 24.3324 59.7224 22.5767 58.174 21.9648L57.496 21.6969C55.6282 20.9588 53.5768 22.2287 53.4045 24.2296L52.3817 36.1107ZM34.5662 36.84C34.8082 37.4402 35.3905 37.8333 36.0377 37.8333V37.8333C36.9676 37.8333 37.6981 37.0372 37.6184 36.1107L36.5955 24.2296C36.4232 22.2287 34.3718 20.9588 32.504 21.6969L31.8261 21.9648C30.2776 22.5767 29.5237 24.3324 30.1462 25.8766L34.5662 36.84ZM25.1173 39.0672C25.7027 39.6527 26.5995 39.7927 27.3356 39.4135L28.1878 38.9744C29.1895 38.4584 29.64 37.2693 29.2315 36.2191V36.2191C28.5503 34.4674 26.129 34.3196 25.2397 35.9754L24.7862 36.82C24.3887 37.5601 24.5232 38.4732 25.1173 39.0672V39.0672ZM42.2061 35.2767C42.3347 36.7239 43.5471 37.8333 45 37.8333V37.8333C46.4529 37.8333 47.6653 36.7239 47.7939 35.2767L49.1431 20.0989C49.2991 18.3441 47.9166 16.8333 46.1549 16.8333H43.8452C42.0835 16.8333 40.701 18.3441 40.857 20.0989L42.2061 35.2767ZM27.1781 44.8036C26.016 45.4113 24.5939 45.1938 23.6666 44.2665L20.0135 40.6134C19.0878 39.6877 18.8693 38.2686 19.4736 37.1073L24.5373 27.3762C24.9372 26.6076 24.9853 25.7037 24.6693 24.8971L24.0365 23.2818C23.4352 21.7468 24.1851 20.0143 25.7157 19.402L34.572 15.8595C35.2907 15.572 35.7353 14.8466 35.6652 14.0757V14.0757C35.572 13.0505 36.3792 12.1666 37.4086 12.1666H52.5353C53.5695 12.1666 54.3862 13.0448 54.3111 14.0763V14.0763C54.2549 14.8497 54.7057 15.5706 55.4257 15.8586L64.2646 19.3941C65.8029 20.0095 66.5512 21.7554 65.9358 23.2937L65.3457 24.7691C65.0205 25.5821 65.0667 26.4966 65.4722 27.2726L70.5797 37.0472C71.1868 38.2092 70.9691 39.6308 70.0421 40.5579L66.4035 44.1965C65.4987 45.1012 64.1197 45.3326 62.9693 44.7726L58.9216 42.8025C58.5126 42.6034 58.0636 42.5 57.6087 42.5H32.3204C31.8362 42.5 31.3593 42.6171 30.9302 42.8415L27.1781 44.8036Z" fill="white"/>
</g>
<path d="M8.46875 64.7344C10.5195 64.7344 12.1602 65.2812 13.3906 66.375C13.8945 66.8203 14.2539 67.2695 14.4688 67.7227C14.6875 68.1719 14.7969 68.7383 14.7969 69.4219C14.7969 69.9414 14.6133 70.3848 14.2461 70.752C13.8828 71.1152 13.4414 71.2969 12.9219 71.2969C12.4023 71.2969 11.959 71.1152 11.5918 70.752C11.2285 70.3848 11.0469 69.9414 11.0469 69.4219C11.0469 69.1562 11.0996 68.9062 11.2051 68.6719C11.3105 68.4336 11.457 68.2266 11.6445 68.0508C11.3633 67.5273 10.9824 67.1562 10.502 66.9375C10.0254 66.7188 9.42578 66.6094 8.70312 66.6094C8.23047 66.6094 7.79102 66.7051 7.38477 66.8965C6.98242 67.0879 6.63281 67.3555 6.33594 67.6992C6.04297 68.043 5.79102 68.4492 5.58008 68.918C5.36914 69.3867 5.21094 69.9023 5.10547 70.4648C5.00391 71.0234 4.95312 71.6133 4.95312 72.2344C4.95312 72.8477 5.01562 73.4375 5.14062 74.0039C5.26562 74.5703 5.44727 75.0859 5.68555 75.5508C5.92383 76.0156 6.20312 76.4219 6.52344 76.7695C6.84375 77.1133 7.21094 77.3809 7.625 77.5723C8.04297 77.7637 8.48047 77.8594 8.9375 77.8594C9.60156 77.8594 10.2188 77.6816 10.7891 77.3262C11.3633 76.9707 11.8379 76.4727 12.2129 75.832C12.5918 75.1875 12.8281 74.457 12.9219 73.6406L14.7969 74.1094C14.7031 74.5664 14.5938 74.9922 14.4688 75.3867C14.3438 75.7773 14.1875 76.168 14 76.5586C13.8125 76.9453 13.5996 77.2949 13.3613 77.6074C13.123 77.9199 12.8418 78.2109 12.5176 78.4805C12.1934 78.75 11.8359 78.9766 11.4453 79.1602C11.0547 79.3398 10.6074 79.4805 10.1035 79.582C9.59961 79.6836 9.05469 79.7344 8.46875 79.7344C7.76953 79.7344 7.10156 79.6602 6.46484 79.5117C5.83203 79.3672 5.25781 79.1641 4.74219 78.9023C4.23047 78.6406 3.75781 78.3281 3.32422 77.9648C2.89062 77.6016 2.51562 77.2012 2.19922 76.7637C1.88281 76.3223 1.61328 75.8555 1.39062 75.3633C1.17188 74.8672 1.00781 74.3574 0.898438 73.834C0.789062 73.3066 0.734375 72.7734 0.734375 72.2344C0.734375 71.6953 0.789062 71.1641 0.898438 70.6406C1.00781 70.1133 1.17188 69.6035 1.39062 69.1113C1.61328 68.6152 1.88281 68.1484 2.19922 67.7109C2.51562 67.2695 2.89062 66.8672 3.32422 66.5039C3.75781 66.1406 4.23047 65.8281 4.74219 65.5664C5.25781 65.3047 5.83203 65.1016 6.46484 64.957C7.10156 64.8086 7.76953 64.7344 8.46875 64.7344ZM15.2544 68.7188H18.893L19.6313 70.1426C20.3227 69.0371 21.3013 68.4844 22.5669 68.4844C23.4145 68.4844 24.0864 68.7461 24.5825 69.2695C25.0825 69.7891 25.3325 70.4648 25.3325 71.2969C25.3325 71.8164 25.1489 72.2598 24.7817 72.627C24.4184 72.9902 23.977 73.1719 23.4575 73.1719C22.938 73.1719 22.4946 72.9902 22.1274 72.627C21.7641 72.2598 21.5825 71.8164 21.5825 71.2969C21.5825 71.0859 21.6157 70.8828 21.6821 70.6875C21.5766 70.625 21.4653 70.5938 21.3481 70.5938C21.0864 70.5938 20.8149 70.7656 20.5337 71.1094C20.2563 71.4492 19.9888 71.959 19.7309 72.6387L19.7075 77.625H22.2856V79.5H15.2544V77.625H16.4263V70.5938H15.2544V68.7188ZM25.79 68.7188H30.2431V75.2812C30.2431 75.8984 30.2978 76.3789 30.4072 76.7227C30.5205 77.0664 30.6806 77.3027 30.8877 77.4316C31.0986 77.5605 31.3838 77.625 31.7431 77.625C32.0713 77.625 32.4072 77.4863 32.7509 77.209C33.0986 76.9316 33.4267 76.5449 33.7353 76.0488L33.7588 70.5938H32.5869V68.7188H37.04V77.625H38.2119V79.5H34.5732L33.7529 77.9062C33.0927 79.125 32.0009 79.7344 30.4775 79.7344C29.9306 79.7344 29.4521 79.6602 29.042 79.5117C28.6318 79.3633 28.2959 79.1602 28.0341 78.9023C27.7724 78.6406 27.5595 78.3105 27.3955 77.9121C27.2353 77.5098 27.122 77.0801 27.0556 76.623C26.9931 76.1621 26.9619 75.6367 26.9619 75.0469V70.5938H25.79V68.7188ZM53.2006 68.4844C53.7475 68.4844 54.226 68.5586 54.6362 68.707C55.0463 68.8555 55.3823 69.0605 55.644 69.3223C55.9057 69.5801 56.1166 69.9102 56.2768 70.3125C56.4409 70.7109 56.5541 71.1406 56.6166 71.6016C56.683 72.0586 56.7163 72.582 56.7163 73.1719V77.625H57.8881V79.5H52.2631V77.625H53.435V72.9375C53.435 72.3203 53.3784 71.8398 53.2651 71.4961C53.1557 71.1523 52.9955 70.916 52.7846 70.7871C52.5776 70.6582 52.2944 70.5938 51.935 70.5938C51.5991 70.5938 51.2534 70.7402 50.8979 71.0332C50.5424 71.3262 50.2065 71.7363 49.8901 72.2637C49.9096 72.5449 49.9194 72.8477 49.9194 73.1719V77.625H51.0913V79.5H45.4663V77.625H46.6381V72.9375C46.6381 72.3203 46.5815 71.8398 46.4682 71.4961C46.3588 71.1523 46.1987 70.916 45.9877 70.7871C45.7807 70.6582 45.4975 70.5938 45.1381 70.5938C44.81 70.5938 44.4741 70.7324 44.1303 71.0098C43.7866 71.2871 43.4604 71.6738 43.1518 72.1699L43.1225 77.625H44.2944V79.5H38.6694V77.625H39.8413V70.5938H38.6694V68.7188H42.308L43.1284 70.3066C43.2729 70.0449 43.4389 69.8105 43.6264 69.6035C43.8178 69.3926 44.0444 69.2012 44.3061 69.0293C44.5717 68.8535 44.8823 68.7188 45.2377 68.625C45.5932 68.5312 45.9819 68.4844 46.4038 68.4844C46.8764 68.4844 47.2983 68.5391 47.6694 68.6484C48.0405 68.7539 48.3549 68.9121 48.6127 69.123C48.8745 69.3301 49.0913 69.5781 49.2631 69.8672C49.435 70.1523 49.5717 70.4844 49.6733 70.8633C49.7709 70.6094 49.8842 70.3711 50.0131 70.1484C50.1459 69.9258 50.3139 69.7109 50.517 69.5039C50.7202 69.293 50.9448 69.1152 51.1909 68.9707C51.4409 68.8223 51.7377 68.7051 52.0815 68.6191C52.4252 68.5293 52.7983 68.4844 53.2006 68.4844ZM65.6816 68.4844C66.5956 68.4844 67.3691 68.7168 68.0019 69.1816C68.6386 69.6426 69.1113 70.291 69.4198 71.127C69.7323 71.959 69.8886 72.9551 69.8886 74.1152C69.8886 74.9629 69.7714 75.7402 69.537 76.4473C69.3027 77.1504 68.9784 77.7422 68.5644 78.2227C68.1542 78.6992 67.662 79.0703 67.0878 79.3359C66.5175 79.6016 65.8964 79.7344 65.2245 79.7344C64.912 79.7344 64.6113 79.707 64.3222 79.6523C64.0331 79.5977 63.7812 79.5312 63.5663 79.4531C63.3515 79.3711 63.1405 79.2676 62.9335 79.1426C62.7304 79.0176 62.5605 78.9023 62.4238 78.7969C62.2909 78.6914 62.1562 78.5664 62.0195 78.4219C61.8866 78.2773 61.787 78.1641 61.7206 78.082C61.6581 78 61.5878 77.9043 61.5097 77.7949L60.3671 79.5H58.8144V66.8438H57.6425V64.9688H62.0956V70.4766C62.2558 70.1992 62.4433 69.9453 62.6581 69.7148C62.873 69.4844 63.1249 69.2754 63.414 69.0879C63.707 68.8965 64.0468 68.748 64.4335 68.6426C64.8202 68.5371 65.2363 68.4844 65.6816 68.4844ZM62.0956 75.9902C62.3027 76.4707 62.5722 76.8535 62.9042 77.1387C63.2363 77.4199 63.6288 77.5605 64.082 77.5605C64.8554 77.5605 65.4296 77.2578 65.8046 76.6523C66.1835 76.0469 66.373 75.1875 66.373 74.0742C66.373 73.5508 66.3105 73.0684 66.1855 72.627C66.0644 72.1816 65.9003 71.8125 65.6933 71.5195C65.4902 71.2266 65.2558 71 64.9902 70.8398C64.7245 70.6758 64.4472 70.5938 64.1581 70.5938C63.7284 70.5938 63.3495 70.7266 63.0214 70.9922C62.6972 71.2539 62.3886 71.6465 62.0956 72.1699V75.9902ZM70.0062 64.9688H74.4594V77.625H75.6312V79.5H70.0062V77.625H71.1781V66.8438H70.0062V64.9688ZM76.3993 83.1152C76.1923 82.8027 76.0888 82.457 76.0888 82.0781C76.0888 81.5586 76.2704 81.1152 76.6337 80.748C77.0009 80.3848 77.4442 80.2031 77.9638 80.2031C78.4833 80.2031 78.9247 80.3848 79.288 80.748C79.6552 81.1152 79.8388 81.5586 79.8388 82.0781C79.8388 82.1875 79.829 82.293 79.8095 82.3945C79.8251 82.3984 79.8388 82.4004 79.8505 82.4004C80.1317 82.4004 80.4755 81.9355 80.8817 81.0059L81.3212 79.998L77.1903 70.5938H76.0888V68.7188H82.6513V70.5938H80.7235L82.5809 74.8125C82.8192 75.3672 82.9911 75.8359 83.0966 76.2188C83.202 75.8359 83.3739 75.3672 83.6122 74.8125L85.4638 70.5938H83.8231V68.7188H88.745V70.5938H87.5028L83.5888 79.5C83.3856 79.9609 83.202 80.3574 83.038 80.6895C82.8778 81.0254 82.6962 81.3652 82.493 81.709C82.2938 82.0566 82.1005 82.3496 81.913 82.5879C81.7255 82.8262 81.5126 83.0527 81.2743 83.2676C81.0399 83.4824 80.7958 83.6523 80.5419 83.7773C80.288 83.9062 80.0067 84.0059 79.6981 84.0762C79.3895 84.1504 79.0575 84.1875 78.702 84.1875C78.37 84.1875 78.077 84.1602 77.8231 84.1055C77.5692 84.0547 77.3524 83.9766 77.1727 83.8711C76.997 83.7695 76.8505 83.6582 76.7333 83.5371C76.6161 83.4199 76.5048 83.2793 76.3993 83.1152Z" fill="white"/>
</svg>
