<svg width="56" height="56" viewBox="0 0 56 56" fill="none" xmlns="http://www.w3.org/2000/svg">
<rect width="56" height="56" rx="28" fill="#E2DEDE"/>
<mask id="mask0_503_4523" style="mask-type:alpha" maskUnits="userSpaceOnUse" x="4" y="4" width="48" height="48">
<rect x="4" y="4" width="48" height="48" fill="#D9D9D9"/>
</mask>
<g mask="url(#mask0_503_4523)">
<path d="M43.141 37.3547C43.7719 37.6797 44.5406 37.5597 45.0424 37.0579V37.0579C45.5515 36.5487 45.6669 35.7661 45.3262 35.1317L44.9374 34.4078C44.1752 32.9885 42.0998 33.1152 41.5159 34.6167V34.6167C41.1658 35.5168 41.5519 36.536 42.4105 36.9784L43.141 37.3547ZM34.3271 34.5237C34.2588 35.3178 34.885 36.0002 35.682 36.0002V36.0002C36.2367 36.0002 36.7359 35.6633 36.9433 35.1488L40.6317 26C41.2205 24.5396 40.5074 22.879 39.0429 22.3003V22.3003C37.2764 21.6022 35.3362 22.8032 35.1733 24.6957L34.3271 34.5237ZM19.0568 35.1488C19.2642 35.6633 19.7633 36.0002 20.318 36.0002V36.0002C21.1151 36.0002 21.7413 35.3178 21.6729 34.5237L20.8268 24.6957C20.6639 22.8032 18.7236 21.6022 16.9571 22.3003V22.3003C15.4926 22.879 14.7795 24.5396 15.3683 26L19.0568 35.1488ZM10.9577 37.0579C11.4595 37.5597 12.2281 37.6797 12.8591 37.3547L13.5896 36.9784C14.4482 36.536 14.8343 35.5168 14.4842 34.6167V34.6167C13.9003 33.1152 11.8248 32.9885 11.0627 34.4078L10.6739 35.1317C10.3332 35.7661 10.4485 36.5487 10.9577 37.0579V37.0579ZM25.6052 33.8089C25.7155 35.0493 26.7547 36.0002 28 36.0002V36.0002C29.2454 36.0002 30.2846 35.0493 30.3948 33.8089L31.5098 21.2659C31.6657 19.5111 30.2832 18.0002 28.5215 18.0002H27.4785C25.7168 18.0002 24.3343 19.5111 24.4903 21.2659L25.6052 33.8089ZM13.0031 41.8289C11.841 42.4366 10.4189 42.2191 9.49158 41.2918L6.80518 38.6054C5.87947 37.6797 5.66094 36.2606 6.26525 35.0993L10.3706 27.2098C10.7705 26.4413 10.8187 25.5374 10.5027 24.7307L10.1865 23.9237C9.58523 22.3888 10.3351 20.6562 11.8657 20.044L19.0617 17.1656C19.6778 16.9191 20.0589 16.2974 19.9988 15.6366V15.6366C19.9189 14.7579 20.6108 14.0002 21.4931 14.0002H34.4589C35.3453 14.0002 36.0453 14.753 35.981 15.6371V15.6371C35.9328 16.3 36.3192 16.9179 36.9363 17.1648L44.1146 20.0361C45.6529 20.6514 46.4012 22.3973 45.7859 23.9357L45.5124 24.6194C45.1872 25.4324 45.2334 26.3469 45.6389 27.1229L49.7797 35.0475C50.3868 36.2095 50.1691 37.6311 49.2421 38.5582L46.5618 41.2384C45.6571 42.1432 44.2781 42.3745 43.1276 41.8146L40.0216 40.3028C39.6126 40.1037 39.1636 40.0002 38.7087 40.0002H17.2371C16.7529 40.0002 16.2759 40.1174 15.8469 40.3418L13.0031 41.8289Z" fill="#303030"/>
</g>
</svg>
